<?xml version="1.0" standalone="no"?>
<!DOCTYPE svg PUBLIC "-//W3C//DTD SVG 1.1//EN" "http://www.w3.org/Graphics/SVG/1.1/DTD/svg11.dtd" >
<svg>
<metadata>
Created by FontForge 20090914 at Tue May  5 10:46:41 2015
 By www-data
(c) 1999-2012 Typodermic Fonts Inc. See attached license agreement. If agreement is missing visit typodermicfonts.com for more info.
</metadata>
<defs>
<font id="EdenMills-Regular" horiz-adv-x="460" >
  <font-face 
    font-family="Eden Mills"
    font-weight="400"
    font-stretch="normal"
    units-per-em="1000"
    panose-1="4 1 6 0 0 0 0 0 0 0"
    ascent="768"
    descent="-232"
    x-height="511.999"
    cap-height="731"
    bbox="-165 -232.003 892 967.002"
    underline-thickness="20"
    underline-position="-123"
    unicode-range="U+0017-U+2265"
  />
<missing-glyph horiz-adv-x="568" 
d="M109 -118c-54.667 0 -82 23.667 -82 71v774c0 48 27.333 72 82 72h349c55.333 0 83 -24 83 -72v-774c0 -47.333 -27.667 -71 -83 -71h-349zM504 663l-303 81l-21 -75l229 -62l-61 -226l-152 41l-77 -280l77 -21l55 205l151 -41zM182 36l-93 26l-26 -92l95 -26z" />
    <glyph glyph-name="copyright" unicode="&#x28;C&#x29;" horiz-adv-x="697" 
d="M357 -8c-54.667 0 -102.498 10.332 -143.498 30.999s-75.167 48.334 -102.5 83.001s-47.833 74.5 -61.5 119.5s-20.5 91.833 -20.5 140.5c0 52 7.5 100.667 22.5 146s36.333 84.833 64 118.5s61.167 60.167 100.5 79.5s83 29 131 29
c47.333 0 90.666 -9.33301 129.999 -28s73.166 -44.667 101.499 -78s50.333 -72.666 66 -117.999s23.5 -95 23.5 -149c0 -52 -7.16699 -100.833 -21.5 -146.5s-34.833 -85.334 -61.5 -119.001s-59.167 -60.167 -97.5 -79.5s-81.833 -29 -130.5 -29zM350.002 35.999
c44.667 0 84.3311 8.83301 118.998 26.5s64 41.5 88 71.5s42.333 65 55 105s19 82.333 19 127c0 46.667 -6.5 90 -19.5 130s-31.667 74.833 -56 104.5s-54.166 53 -89.499 70s-75.333 25.5 -120 25.5c-43.333 0 -82.166 -8.83301 -116.499 -26.5s-63.5 -41.5 -87.5 -71.5
s-42.333 -65 -55 -105s-19 -82.333 -19 -127c0 -44 6.16699 -86 18.5 -126s30.5 -75 54.5 -105s53.5 -54 88.5 -72s75.167 -27 120.5 -27zM362.999 165.999c-26.667 0 -50.834 5.00195 -72.501 15.002s-40.334 23.833 -56.001 41.5s-27.667 38.667 -36 63
s-12.5 51.166 -12.5 80.499c0 28.667 4.16699 55.167 12.5 79.5s20.333 45.333 36 63s34.334 31.5 56.001 41.5s45.834 15 72.501 15h44v-39h-53c-18.667 0 -35.834 -4 -51.501 -12s-29.167 -19.167 -40.5 -33.5s-20.166 -31.333 -26.499 -51s-9.5 -40.834 -9.5 -63.501
s3.16699 -43.834 9.5 -63.501s15.166 -36.667 26.499 -51s24.833 -25.666 40.5 -33.999s32.834 -12.5 51.501 -12.5h53v-39h-44z" />
    <glyph glyph-name="registered" unicode="&#x28;R&#x29;" horiz-adv-x="697" 
d="M357 -8c-54.667 0 -102.498 10.332 -143.498 30.999s-75.167 48.334 -102.5 83.001s-47.833 74.5 -61.5 119.5s-20.5 91.833 -20.5 140.5c0 52 7.5 100.667 22.5 146s36.333 84.833 64 118.5s61.167 60.167 100.5 79.5s83 29 131 29
c47.333 0 90.666 -9.33301 129.999 -28s73.166 -44.667 101.499 -78s50.333 -72.666 66 -117.999s23.5 -95 23.5 -149c0 -52 -7.16699 -100.833 -21.5 -146.5s-34.833 -85.334 -61.5 -119.001s-59.167 -60.167 -97.5 -79.5s-81.833 -29 -130.5 -29zM350.002 35.999
c44.667 0 84.3311 8.83301 118.998 26.5s64 41.5 88 71.5s42.333 65 55 105s19 82.333 19 127c0 46.667 -6.5 90 -19.5 130s-31.667 74.833 -56 104.5s-54.166 53 -89.499 70s-75.333 25.5 -120 25.5c-43.333 0 -82.166 -8.83301 -116.499 -26.5s-63.5 -41.5 -87.5 -71.5
s-42.333 -65 -55 -105s-19 -82.333 -19 -127c0 -44 6.16699 -86 18.5 -126s30.5 -75 54.5 -105s53.5 -54 88.5 -72s75.167 -27 120.5 -27zM412.999 165.999v159.001c0 27.333 -16.667 41 -50 41h-70v-200h-39v360l-40 39h143c30 0 53.667 -8.66699 71 -26s26 -41.333 26 -72
c0 -20 -4.83301 -36.333 -14.5 -49s-20.834 -21.667 -33.501 -27c12.667 -2.66699 23.834 -9.83398 33.501 -21.501s14.5 -26.167 14.5 -43.5v-160h-41zM354.999 407c40 0 59.999 20 59.999 60c0 18.667 -5.16699 33.167 -15.5 43.5s-24.166 15.5 -41.499 15.5h-65v-119h62z
" />
    <glyph glyph-name=".notdef" horiz-adv-x="568" 
d="M109 -118c-54.667 0 -82 23.667 -82 71v774c0 48 27.333 72 82 72h349c55.333 0 83 -24 83 -72v-774c0 -47.333 -27.667 -71 -83 -71h-349zM504 663l-303 81l-21 -75l229 -62l-61 -226l-152 41l-77 -280l77 -21l55 205l151 -41zM182 36l-93 26l-26 -92l95 -26z" />
    <glyph glyph-name="uni0017" horiz-adv-x="243" 
 />
    <glyph glyph-name="space" unicode=" " horiz-adv-x="243" 
 />
    <glyph glyph-name="exclam" unicode="!" horiz-adv-x="166" 
d="M46 163v568h74v-568h-74zM38 0v90h90v-90h-90z" />
    <glyph glyph-name="quotedbl" unicode="&#x22;" horiz-adv-x="332" 
d="M46 527v229h73v-229h-73zM212 527v229h73v-229h-73z" />
    <glyph glyph-name="numbersign" unicode="#" horiz-adv-x="425" 
d="M249 146v147h-73v-147h-74v147h-73v73h73v73h-73v73h73v146h74v-146h73v146h73v-146h73v-73h-73v-73h73v-73h-73v-147h-73zM249 439h-73v-73h73v73z" />
    <glyph glyph-name="dollar" unicode="$" horiz-adv-x="445" 
d="M259 220v-74h-73v74h-147v73h293v73h-293v219h147v73h73v-73h147v-73h-294v-73h294v-219h-147z" />
    <glyph glyph-name="percent" unicode="%" horiz-adv-x="585" 
d="M46 512v219h221v-219h-221zM120 0l275 731h71l-274 -731h-72zM319 0v220h221v-220h-221z" />
    <glyph glyph-name="ampersand" unicode="&#x26;" horiz-adv-x="491" 
d="M40 0v439h73v292h220v-292h73v-73h-73v-293h146v-73h-439zM260 658h-73v-219h73v219zM260 366h-147v-293h147v293z" />
    <glyph glyph-name="quotesingle" unicode="'" horiz-adv-x="166" 
d="M46 527v229h73v-229h-73z" />
    <glyph glyph-name="parenleft" unicode="(" horiz-adv-x="222" 
d="M154 -73l-74 73v731l74 73l56 -55l-56 -55v-658l56 -55z" />
    <glyph glyph-name="parenright" unicode=")" horiz-adv-x="221" 
d="M13 -19l55 55v658l-55 55l55 55l72 -73v-731l-72 -73z" />
    <glyph glyph-name="asterisk" unicode="*" horiz-adv-x="461" 
d="M10 366l220 219l220 -219l-220 -220z" />
    <glyph glyph-name="plus" unicode="+" 
d="M194 146v147h-148v73h148v146h73v-146h146v-73h-146v-147h-73z" />
    <glyph glyph-name="comma" unicode="," horiz-adv-x="240" 
d="M121 0h-75v146h148v-219l-73 -73v146z" />
    <glyph glyph-name="hyphen" unicode="-" horiz-adv-x="275" 
d="M27 293v73h221v-73h-221z" />
    <glyph glyph-name="period" unicode="." horiz-adv-x="240" 
d="M46 0v146h148v-146h-148z" />
    <glyph glyph-name="slash" unicode="/" horiz-adv-x="346" 
d="M0 0l275 731h71l-275 -731h-71z" />
    <glyph glyph-name="zero" unicode="0" 
d="M46 0v731h367v-731h-367zM340 658h-220v-585h220v585z" />
    <glyph glyph-name="one" unicode="1" horiz-adv-x="194" 
d="M74 0v658l-74 73h147v-731h-73z" />
    <glyph glyph-name="two" unicode="2" 
d="M46 0v439h294v219h-294v73h367v-365h-293v-293h293v-73h-367z" />
    <glyph glyph-name="three" unicode="3" horiz-adv-x="444" 
d="M30 0v73h294v293h-294v73h294v219h-294v73h367v-731h-367z" />
    <glyph glyph-name="four" unicode="4" horiz-adv-x="445" 
d="M325 0v366h-293v365h74v-292h219v219h74v-658h-74z" />
    <glyph glyph-name="five" unicode="5" 
d="M46 0v73h294v293h-294v365h367v-73h-293v-219h293v-439h-367z" />
    <glyph glyph-name="six" unicode="6" 
d="M46 0v731h367v-73h-293v-219h293v-439h-367zM340 366h-220v-293h220v293z" />
    <glyph glyph-name="seven" unicode="7" horiz-adv-x="431" 
d="M170 0v284l146 182v192h-293v73h367v-283l-147 -183v-265h-73z" />
    <glyph glyph-name="eight" unicode="8" 
d="M46 0v731h367v-731h-367zM340 658h-220v-219h220v219zM340 366h-220v-293h220v293z" />
    <glyph glyph-name="nine" unicode="9" 
d="M46 0v73h294v293h-294v365h367v-731h-367zM340 658h-220v-219h220v219z" />
    <glyph glyph-name="colon" unicode=":" horiz-adv-x="239" 
d="M46 293v146h147v-146h-147zM46 0v146h147v-146h-147z" />
    <glyph glyph-name="semicolon" unicode=";" horiz-adv-x="240" 
d="M46 293v146h148v-146h-148zM120 -73v73h-74v146h148v-292z" />
    <glyph glyph-name="less" unicode="&#x3c;" horiz-adv-x="352" 
d="M46 308l208 206l51 -52l-155 -154l155 -156l-51 -51z" />
    <glyph glyph-name="equal" unicode="=" horiz-adv-x="386" 
d="M46 366v73h294v-73h-294zM46 220v73h294v-73h-294z" />
    <glyph glyph-name="greater" unicode="&#x3e;" horiz-adv-x="352" 
d="M46 152l156 156l-156 154l52 52l207 -206l-207 -207z" />
    <glyph glyph-name="question" unicode="?" horiz-adv-x="347" 
d="M101 168v271h147v219h-220v73h293v-365h-146v-198h-74zM93 0v90h90v-90h-90z" />
    <glyph glyph-name="at" unicode="@" horiz-adv-x="604" 
d="M46 0v731h512v-511h-365v292h219v-146h-72v73h-74v-146h220v365h-367v-585h439v-73h-512z" />
    <glyph glyph-name="A" unicode="A" horiz-adv-x="455" 
d="M337 0l0.000976562 293h-219v-293h-74v538c0 32 4.66699 60.5 14 85.5s22.166 46 38.499 63s35.833 30 58.5 39s47.667 13.5 75 13.5c26.667 0 51 -4.5 73 -13.5s41 -22 57 -39s28.5 -38 37.5 -63s13.5 -53.5 13.5 -85.5v-538h-74zM337.001 542
c0 41.333 -10.167 72.833 -30.5 94.5s-46.5 32.5 -78.5 32.5c-34 0 -60.833 -10.667 -80.5 -32s-29.5 -53 -29.5 -95v-176h219v176z" />
    <glyph glyph-name="B" unicode="B" horiz-adv-x="515" 
d="M73 0l0.000976562 658l-73 73h247c28 0 53.333 -4.5 76 -13.5s42 -21.333 58 -37s28.333 -34.5 37 -56.5s13 -46 13 -72s-4.83301 -50.667 -14.5 -74s-24.5 -42.666 -44.5 -57.999c19.333 -7.33301 37.166 -17.333 53.499 -30s30.333 -27.667 42 -45
s20.667 -36.333 27 -57s9.5 -42.334 9.5 -65.001c0 -32 -4.5 -61.5 -13.5 -88.5s-22.5 -50.5 -40.5 -70.5s-40.167 -35.667 -66.5 -47s-56.833 -17 -91.5 -17h-219zM255.001 442c36 0 62.667 9.83301 80 29.5s26 46.167 26 79.5c0 32 -11 57.833 -33 77.5
s-52.667 29.5 -92 29.5h-90v-216h109zM284.001 76c48 0 85.166 13.332 111.499 39.999s39.5 61.667 39.5 105c0 22 -3.66699 41.833 -11 59.5s-17.666 32.834 -30.999 45.501s-29.333 22.5 -48 29.5s-39 10.5 -61 10.5h-138v-290h138z" />
    <glyph glyph-name="C" unicode="C" 
d="M352 0c-48 0 -91.833 9.16504 -131.5 27.498s-73.667 43.833 -102 76.5s-50.333 71.334 -66 116.001s-23.5 93.334 -23.5 146.001c0 52 7.66699 100.333 23 145s37.166 83.167 65.499 115.5s62.333 57.833 102 76.5s83.834 28 132.501 28h81v-73h-96
c-34.667 0 -66.334 -7.5 -95.001 -22.5s-53.167 -35.5 -73.5 -61.5s-36.166 -56.833 -47.499 -92.5s-17 -74.167 -17 -115.5c0 -42 5.66699 -80.833 17 -116.5s27.166 -66.5 47.499 -92.5s44.833 -46.5 73.5 -61.5s60.334 -22.5 95.001 -22.5h96v-73h-81z" />
    <glyph glyph-name="D" unicode="D" horiz-adv-x="507" 
d="M73 0l0.000976562 658.002l-73 73h155c48 0 91.833 -9.33301 131.5 -28s73.667 -44.167 102 -76.5s50.333 -70.833 66 -115.5s23.5 -93 23.5 -145c0 -52.667 -7.83301 -101.334 -23.5 -146.001s-37.834 -83.334 -66.501 -116.001s-62.667 -58.167 -102 -76.5
s-83 -27.5 -131 -27.5h-82zM169.001 73.002c34.667 0 66.334 7.5 95.001 22.5s53.167 35.5 73.5 61.5s36.166 56.833 47.499 92.5s17 74.5 17 116.5c0 41.333 -5.66699 79.833 -17 115.5s-27.166 66.5 -47.499 92.5s-44.833 46.5 -73.5 61.5s-60.334 22.5 -95.001 22.5h-23
v-585h23z" />
    <glyph glyph-name="E" unicode="E" horiz-adv-x="392" 
d="M73 0v658l-73 73h366v-73h-220v-219h184v-73h-184v-293h220v-73h-293z" />
    <glyph glyph-name="F" unicode="F" horiz-adv-x="375" 
d="M73 0v658l-73 73h366v-73h-220v-219h184v-73h-184v-366h-73z" />
    <glyph glyph-name="G" unicode="G" horiz-adv-x="513" 
d="M351 0c-47.333 0 -90.833 9.16504 -130.5 27.498s-73.667 43.833 -102 76.5s-50.333 71.334 -66 116.001s-23.5 93.334 -23.5 146.001c0 52 7.83301 100.333 23.5 145s37.5 83.167 65.5 115.5s61.833 57.833 101.5 76.5s83.5 28 131.5 28h83v-73h-96
c-34.667 0 -66.334 -7.5 -95.001 -22.5s-53.167 -35.5 -73.5 -61.5s-36.166 -56.833 -47.499 -92.5s-17 -74.167 -17 -115.5c0 -42 5.66699 -80.833 17 -116.5s27.166 -66.5 47.499 -92.5s44.833 -46.5 73.5 -61.5s60.334 -22.5 95.001 -22.5h22v220h-73v73h220l-73 -73
v-220l73 -73h-156z" />
    <glyph glyph-name="H" unicode="H" horiz-adv-x="486" 
d="M366 0v366h-220v-366h-73v658l-73 73h146v-292h220v292h73v-731h-73z" />
    <glyph glyph-name="I" unicode="I" horiz-adv-x="194" 
d="M74 0v658l-74 73h147v-731h-73z" />
    <glyph glyph-name="J" unicode="J" horiz-adv-x="416" 
d="M298 658l-72.001 73.001h146v-537c0 -28.667 -4.33301 -55.334 -13 -80.001s-21 -46 -37 -64s-35.167 -32.167 -57.5 -42.5s-46.833 -15.5 -73.5 -15.5c-29.333 0 -55.333 5.16699 -78 15.5s-41.667 24.333 -57 42s-27.166 37.667 -35.499 60s-12.5 45.5 -12.5 69.5v41
h72v-43c0 -38 9.83301 -66.667 29.5 -86s46.5 -29 80.5 -29c32 0 58 11.333 78 34s30 55 30 97v465z" />
    <glyph glyph-name="K" unicode="K" horiz-adv-x="450" 
d="M351 0l-205 369v-369h-73v658l-73 73h146v-314l210 314h83l-224 -328l224 -403h-88z" />
    <glyph glyph-name="L" unicode="L" horiz-adv-x="379" 
d="M73 0v658l-73 73h146v-658h220v-73h-293z" />
    <glyph glyph-name="M" unicode="M" horiz-adv-x="705" 
d="M585 0v658h-185v-658h-74v658h-180v-658h-73v658l-73 73h658v-731h-73z" />
    <glyph glyph-name="N" unicode="N" horiz-adv-x="485" 
d="M370 0l-228 544v-544h-69v658l-73 73h147l222 -533v533h70v-731h-69z" />
    <glyph glyph-name="O" unicode="O" horiz-adv-x="697" 
d="M357 -8c-54.667 0 -102.498 10.332 -143.498 30.999s-75.167 48.334 -102.5 83.001s-47.833 74.5 -61.5 119.5s-20.5 91.833 -20.5 140.5c0 52 7.5 100.667 22.5 146s36.333 84.833 64 118.5s61.167 60.167 100.5 79.5s83 29 131 29
c47.333 0 90.666 -9.33301 129.999 -28s73.166 -44.667 101.499 -78s50.333 -72.666 66 -117.999s23.5 -95 23.5 -149c0 -52 -7.16699 -100.833 -21.5 -146.5s-34.833 -85.334 -61.5 -119.001s-59.167 -60.167 -97.5 -79.5s-81.833 -29 -130.5 -29zM350.002 59.999
c38.667 0 73.1641 8.16602 103.497 24.499s56 38.5 77 66.5s37 60.5 48 97.5s16.5 76.167 16.5 117.5c0 42.667 -5.66699 82.667 -17 120s-27.666 69.833 -48.999 97.5s-47.5 49.334 -78.5 65.001s-65.833 23.5 -104.5 23.5c-37.333 0 -70.833 -8.16699 -100.5 -24.5
s-55 -38.333 -76 -66s-37 -60 -48 -97s-16.5 -76.5 -16.5 -118.5c0 -40.667 5.33301 -79.5 16 -116.5s26.334 -69.5 47.001 -97.5s46.334 -50.333 77.001 -67s65.667 -25 105 -25z" />
    <glyph glyph-name="P" unicode="P" horiz-adv-x="453" 
d="M73 0l-0.00195312 657.999l-73 73h239c28.667 0 55.167 -4.33301 79.5 -13s45.166 -21 62.499 -37s30.833 -35.167 40.5 -57.5s14.5 -47.5 14.5 -75.5c0 -27.333 -4.66699 -52.166 -14 -74.499s-22.666 -41.5 -39.999 -57.5s-38.166 -28.333 -62.499 -37
s-51.166 -13 -80.499 -13h-93v-366h-73zM259.998 439.999c30.667 0 55.167 10.833 73.5 32.5s27.5 48.167 27.5 79.5c0 30 -9.16699 55.167 -27.5 75.5s-42.833 30.5 -73.5 30.5h-114v-218h114z" />
    <glyph glyph-name="Q" unicode="Q" horiz-adv-x="697" 
d="M554 0l-37.998 36.998c-45.333 -30 -98.333 -45 -159 -45c-54.667 0 -102.5 10.333 -143.5 31s-75.167 48.334 -102.5 83.001s-47.833 74.5 -61.5 119.5s-20.5 91.833 -20.5 140.5c0 52 7.5 100.667 22.5 146s36.333 84.833 64 118.5s61.167 60.167 100.5 79.5
s83 29 131 29c47.333 0 90.666 -9.33301 129.999 -28s73.166 -44.667 101.499 -78s50.333 -72.666 66 -117.999s23.5 -95 23.5 -149c0 -57.333 -8.5 -110.333 -25.5 -159s-41.5 -90 -73.5 -124l84 -83h-99zM334.002 219.998l99.9971 -0.000976562l84 -85
c25.333 28.667 44.5 62.834 57.5 102.501s19.5 82.5 19.5 128.5c0 42.667 -5.66699 82.667 -17 120s-27.666 69.833 -48.999 97.5s-47.5 49.334 -78.5 65.001s-65.833 23.5 -104.5 23.5c-37.333 0 -70.833 -8.16699 -100.5 -24.5s-55 -38.333 -76 -66s-37 -60 -48 -97
s-16.5 -76.5 -16.5 -118.5c0 -40.667 5.33301 -79.5 16 -116.5s26.334 -69.5 47.001 -97.5s46.334 -50.333 77.001 -67s65.667 -25 105 -25c21.333 0 41.5 2.66699 60.5 8s36.833 12.666 53.5 21.999z" />
    <glyph glyph-name="R" unicode="R" horiz-adv-x="479" 
d="M365 0l0.000976562 292c0 49.333 -30.333 74 -91 74h-129v-366h-72v658l-73 73h261c56.667 0 100.5 -16.167 131.5 -48.5s46.5 -75.833 46.5 -130.5c0 -38 -9 -68.667 -27 -92s-38 -39 -60 -47c11.333 -2 22.166 -6.5 32.499 -13.5s19.5 -15.667 27.5 -26
s14.5 -22.333 19.5 -36s7.5 -28.5 7.5 -44.5v-293h-74zM259.001 442c72.667 0 109 36.667 109 110c0 34 -9.66699 60.167 -29 78.5s-44.333 27.5 -75 27.5h-119v-216h114z" />
    <glyph glyph-name="S" unicode="S" horiz-adv-x="442" 
d="M38 0v73h293v293h-293v365h367v-73h-293v-219h293v-439h-367z" />
    <glyph glyph-name="T" unicode="T" horiz-adv-x="390" 
d="M158 0v658h-146v73h366v-73h-147v-658h-73z" />
    <glyph glyph-name="U" unicode="U" horiz-adv-x="455" 
d="M336 731h74.999v-537c0 -32.667 -4.66699 -61.5 -14 -86.5s-22.166 -46 -38.499 -63s-36 -30 -59 -39s-47.833 -13.5 -74.5 -13.5s-51.167 4.5 -73.5 13.5s-41.5 22 -57.5 39s-28.333 38 -37 63s-13 53.833 -13 86.5v537h73v-542c0 -42 10.167 -73.667 30.5 -95
s46.5 -32 78.5 -32c34 0 60.833 10.667 80.5 32s29.5 53 29.5 95v542z" />
    <glyph glyph-name="V" unicode="V" horiz-adv-x="501" 
d="M217 0l-206 731h83l161 -599l167 599h79l-210 -731h-74z" />
    <glyph glyph-name="W" unicode="W" horiz-adv-x="731" 
d="M73 0v731h73v-658h184v658h74v-658h181v658h73v-658l73 -73h-658z" />
    <glyph glyph-name="X" unicode="X" horiz-adv-x="532" 
d="M400 0l-133 309l-135 -309h-86l170 371l-163 360h88l129 -289l128 289h85l-162 -354l169 -377h-90z" />
    <glyph glyph-name="Y" unicode="Y" horiz-adv-x="466" 
d="M220 0v366h-147v292l-73 73h146v-292h220v292h73v-365h-146v-366h-73z" />
    <glyph glyph-name="Z" unicode="Z" horiz-adv-x="408" 
d="M14 0v54l283 604h-273v73h360v-53l-274 -604h270v-74h-366z" />
    <glyph glyph-name="bracketleft" unicode="[" horiz-adv-x="222" 
d="M80 -73v877h137v-66h-63v-745h63v-66h-137z" />
    <glyph glyph-name="backslash" unicode="\" horiz-adv-x="346" 
d="M275 0l-275 731h71l275 -731h-71z" />
    <glyph glyph-name="bracketright" unicode="]" horiz-adv-x="222" 
d="M4 -73v66h64v745h-64v66h137v-877h-137z" />
    <glyph glyph-name="asciicircum" unicode="^" horiz-adv-x="441" 
d="M375 482l-154 154l-156 -154l-51 51l207 206l206 -206z" />
    <glyph glyph-name="underscore" unicode="_" horiz-adv-x="364" 
d="M-1 -146v72h367v-72h-367z" />
    <glyph glyph-name="grave" unicode="`" horiz-adv-x="293" 
d="M170 574l-124 174h91l110 -174h-77z" />
    <glyph glyph-name="a" unicode="a" horiz-adv-x="465" 
d="M47 0v293h294v146h-294v73h367v-441l63 -71h-430zM341 220h-220v-147h220v147z" />
    <glyph glyph-name="b" unicode="b" horiz-adv-x="439" 
d="M119 0l-73.001 -72.999v804h73v-219h75c32 0 61.667 -6.33301 89 -19s50.833 -30.167 70.5 -52.5s35.167 -49 46.5 -80s17 -64.5 17 -100.5s-5.66699 -69.667 -17 -101s-27 -58.833 -47 -82.5s-43.667 -42.334 -71 -56.001s-56.666 -20.5 -87.999 -20.5h-75z
M185.999 73.001c24.667 0 46.667 4.66699 66 14s35.5 22.333 48.5 39s22.833 36.167 29.5 58.5s10 46.5 10 72.5s-3.5 50.167 -10.5 72.5s-17 41.5 -30 57.5s-29.167 28.667 -48.5 38s-41 14 -65 14h-67v-366h67z" />
    <glyph glyph-name="c" unicode="c" horiz-adv-x="363" 
d="M266 0c-32 0 -61.834 6.83008 -89.501 20.4971s-51.5 32.334 -71.5 56.001s-35.833 51.167 -47.5 82.5s-17.5 65 -17.5 101c0 36.667 5.83301 70.334 17.5 101.001s27.667 57.167 48 79.5s44.166 39.833 71.499 52.5s57 19 89 19h72v-73h-71
c-25.333 0 -47.5 -4.83301 -66.5 -14.5s-34.667 -22.667 -47 -39s-21.5 -35.666 -27.5 -57.999s-9 -45.833 -9 -70.5c0 -26 3.16699 -50.167 9.5 -72.5s15.833 -41.833 28.5 -58.5s28.334 -29.667 47.001 -39s40.334 -14 65.001 -14h71v-73h-72z" />
    <glyph glyph-name="d" unicode="d" horiz-adv-x="466" 
d="M246 0c-32 0 -61.667 6.83203 -89 20.499s-51 32.334 -71 56.001s-35.667 51.167 -47 82.5s-17 65 -17 101s5.66699 69.5 17 100.5s27 57.667 47 80s43.667 39.833 71 52.5s57 19 89 19h74v219h73v-658l73 -73h-220zM320 438.999h-66c-24.667 0 -46.5 -4.66699 -65.5 -14
s-35 -22 -48 -38s-23 -35.167 -30 -57.5s-10.5 -46.5 -10.5 -72.5s3.33301 -50.167 10 -72.5s16.5 -41.833 29.5 -58.5s29.167 -29.667 48.5 -39s41.333 -14 66 -14h66v366z" />
    <glyph glyph-name="e" unicode="e" horiz-adv-x="456" 
d="M46 0v512h366v-292h-293v-147h293v-73h-366zM340 439h-221v-146h221v146z" />
    <glyph glyph-name="f" unicode="f" horiz-adv-x="280" 
d="M59 0l-0.000976562 439h-45v73h45v79c0 19.333 3 37.5 9 54.5s15.167 31.833 27.5 44.5s27.833 22.667 46.5 30s40.667 11 66 11h72v-73h-72c-25.333 0 -44.166 -7.33301 -56.499 -22s-18.5 -33.667 -18.5 -57v-67h73v-73h-73v-439h-74z" />
    <glyph glyph-name="g" unicode="g" horiz-adv-x="486" 
d="M46 -146v73h294v73h-294l147 146h-147v366h440l-74 -73v-293h-123l-86 -82h209v-210h-366zM341 441h-223v-229h223v229z" />
    <glyph glyph-name="h" unicode="h" 
d="M340 0v439h-220v-439h-74v731h74v-219h293v-512h-73z" />
    <glyph glyph-name="i" unicode="i" horiz-adv-x="166" 
d="M38 641v90h90v-90h-90zM46 0v512h74v-512h-74z" />
    <glyph glyph-name="j" unicode="j" horiz-adv-x="184" 
d="M53 641v90h91v-90h-91zM-85 -146l-0.000976562 73.002h46c34.667 0 60.167 7.16699 76.5 21.5s24.5 33.166 24.5 56.499v507h73v-509c0 -20.667 -4.5 -40 -13.5 -58s-21.167 -33.833 -36.5 -47.5s-33.666 -24.334 -54.999 -32.001s-44.333 -11.5 -69 -11.5h-46z" />
    <glyph glyph-name="k" unicode="k" 
d="M339 0l-219 241v-241h-74v731h74v-439l217 220h92l-242 -240l248 -272h-96z" />
    <glyph glyph-name="l" unicode="l" horiz-adv-x="166" 
d="M46 0v731h74v-731h-74z" />
    <glyph glyph-name="m" unicode="m" horiz-adv-x="678" 
d="M559 0v439h-186v-439h-73v439h-180v-439h-74v585l74 -73h512v-512h-73z" />
    <glyph glyph-name="n" unicode="n" 
d="M340 0v439h-220v-439h-74v585l74 -73h293v-512h-73z" />
    <glyph glyph-name="o" unicode="o" horiz-adv-x="544" 
d="M272 -8c-40 0 -75.499 7.16699 -106.499 21.5s-56.833 33.666 -77.5 57.999s-36.334 52.666 -47.001 84.999s-16 66.833 -16 103.5c0 37.333 5.33301 71.833 16 103.5s26.5 59.167 47.5 82.5s46.833 41.666 77.5 54.999s66 20 106 20s75.5 -6.66699 106.5 -20
s56.833 -31.666 77.5 -54.999s36.334 -50.833 47.001 -82.5s16 -66.167 16 -103.5c0 -36.667 -5.33301 -71.167 -16 -103.5s-26.334 -60.666 -47.001 -84.999s-46.5 -43.666 -77.5 -57.999s-66.5 -21.5 -106.5 -21.5zM272.001 64c26 0 49.499 4.66699 70.499 14
s38.833 22.5 53.5 39.5s26 37.333 34 61s12 49.834 12 78.501s-3.83301 54.834 -11.5 78.501s-18.667 43.834 -33 60.501s-32.166 29.5 -53.499 38.5s-45.333 13.5 -72 13.5c-27.333 0 -51.5 -4.5 -72.5 -13.5s-38.667 -21.833 -53 -38.5s-25.333 -36.834 -33 -60.501
s-11.5 -49.834 -11.5 -78.501s4 -54.834 12 -78.501s19.333 -44 34 -61s32.5 -30.167 53.5 -39.5s44.5 -14 70.5 -14z" />
    <glyph glyph-name="p" unicode="p" horiz-adv-x="470" 
d="M74 -146l0.000976562 585.001l-74 73h221c31.333 0 60.666 -6.83301 87.999 -20.5s51 -32.334 71 -56.001s35.667 -51.167 47 -82.5s17 -65 17 -101s-5.66699 -69.5 -17 -100.5s-26.833 -57.667 -46.5 -80s-43.167 -39.833 -70.5 -52.5s-57 -19 -89 -19h-75v-146h-72z
M213.001 73.001c24 0 45.667 4.66699 65 14s35.5 22 48.5 38s23 35.167 30 57.5s10.5 46.5 10.5 72.5s-3.33301 50.167 -10 72.5s-16.5 41.833 -29.5 58.5s-29.167 29.667 -48.5 39s-41.333 14 -66 14h-67v-366h67z" />
    <glyph glyph-name="q" unicode="q" horiz-adv-x="439" 
d="M320 -146v145.999h-74c-32 0 -61.667 6.33301 -89 19s-51 30.167 -71 52.5s-35.667 49 -47 80s-17 64.5 -17 100.5s5.66699 69.667 17 101s27 58.833 47 82.5s43.667 42.334 71 56.001s57 20.5 89 20.5h74l73 72v-730h-73zM320 438.999h-66
c-24.667 0 -46.667 -4.66699 -66 -14s-35.5 -22.333 -48.5 -39s-22.833 -36.167 -29.5 -58.5s-10 -46.5 -10 -72.5s3.5 -50.167 10.5 -72.5s17 -41.5 30 -57.5s29 -28.667 48 -38s40.833 -14 65.5 -14h66v366z" />
    <glyph glyph-name="r" unicode="r" horiz-adv-x="313" 
d="M49 0v512h73v-62c36 41.333 81.333 62 136 62h44v-73c-6.66699 0.666992 -12.667 1.16699 -18 1.5s-10.666 0.5 -15.999 0.5c-62.667 0 -111.334 -25 -146.001 -75v-366h-73z" />
    <glyph glyph-name="s" unicode="s" horiz-adv-x="450" 
d="M41 0v73h293v147h-292v292h363v-73h-289v-146h291v-293h-366z" />
    <glyph glyph-name="t" unicode="t" horiz-adv-x="272" 
d="M235 0c-52 0 -93.668 11.668 -125.001 35.001s-47 60.666 -47 111.999v292h-50v73h50v146l73 73v-219h83v-73h-83v-287c0 -29.333 9.33301 -49.833 28 -61.5s42.334 -17.5 71.001 -17.5h27v-73h-27z" />
    <glyph glyph-name="u" unicode="u" horiz-adv-x="486" 
d="M46 0v512h74v-439h220v439h73v-439l73 -73h-440z" />
    <glyph glyph-name="v" unicode="v" horiz-adv-x="390" 
d="M161 0l-157 512h86l110 -379l108 379h77l-151 -512h-73z" />
    <glyph glyph-name="w" unicode="w" horiz-adv-x="700" 
d="M46 0v512h74v-439h184v439h74v-439h181v439h73v-439l73 -73h-659z" />
    <glyph glyph-name="x" unicode="x" horiz-adv-x="472" 
d="M363 0l-127 210l-131 -210h-88l171 260l-163 252h90l121 -193l124 193h88l-165 -248l173 -264h-93z" />
    <glyph glyph-name="y" unicode="y" 
d="M152 -146l0.000976562 71.998h116c25.333 0 43.666 4.83301 54.999 14.5s17 26.834 17 51.501v27h-294v493h74v-421h220v421h73v-520c0 -47.333 -13 -82.166 -39 -104.499s-61.333 -33.5 -106 -33.5h-116z" />
    <glyph glyph-name="z" unicode="z" horiz-adv-x="433" 
d="M35 0v60l263 379h-263v73h366v-50l-264 -389h264v-73h-366z" />
    <glyph glyph-name="braceleft" unicode="{" horiz-adv-x="222" 
d="M154 -73l-74 74v311l-55 55l55 54v310l74 73l56 -55l-56 -55v-310l-19 -18l19 -18v-311l56 -55z" />
    <glyph glyph-name="bar" unicode="|" horiz-adv-x="215" 
d="M70 -87v877h74v-877h-74z" />
    <glyph glyph-name="braceright" unicode="}" horiz-adv-x="222" 
d="M10 -18l56 55v311l19 18l-19 18v310l-56 55l56 55l73 -73v-310l56 -54l-56 -55v-311l-73 -74z" />
    <glyph glyph-name="asciitilde" unicode="~" horiz-adv-x="441" 
d="M184 293v146h-73v-146h-74v219h221v-146h72v146h74v-219h-220z" />
    <glyph glyph-name="nonbreakingspace" unicode="&#xa0;" horiz-adv-x="243" 
 />
    <glyph glyph-name="exclamdown" unicode="&#xa1;" horiz-adv-x="166" 
d="M46 -120v568h74v-568h-74zM38 521v90h90v-90h-90z" />
    <glyph glyph-name="cent" unicode="&#xa2;" horiz-adv-x="433" 
d="M259 220v-74h-74v74h-146v365h146v73h74v-73h147v-73h-294v-219h294v-73h-147z" />
    <glyph glyph-name="sterling" unicode="&#xa3;" horiz-adv-x="427" 
d="M12 0v73h122v293h-74v73h74v292h245v-73h-172v-219h73v-73h-73v-293h200v-73h-395z" />
    <glyph glyph-name="yen" unicode="&#xa5;" 
d="M194 0v73h-74v73h74v74h-74v73h74v146h-148v292h74v-219h220v219h73v-292h-146v-146h73v-73h-73v-74h73v-73h-73v-73h-73z" />
    <glyph glyph-name="brokenbar" unicode="&#xa6;" horiz-adv-x="215" 
d="M70 -87v327h74v-327h-74zM70 480v310h74v-310h-74z" />
    <glyph glyph-name="dieresis" unicode="&#xa8;" horiz-adv-x="352" 
d="M215 624v90h91v-90h-91zM46 624v90h91v-90h-91z" />
    <glyph glyph-name="ordfeminine" unicode="&#xaa;" horiz-adv-x="286" 
d="M36 444v169h159v66h-159v52h209v-240l40 -47h-249zM195 562h-107v-67h107v67z" />
    <glyph glyph-name="guillemotleft" unicode="&#xab;" horiz-adv-x="422" 
d="M9 308l141 140l51 -52l-89 -88l89 -89l-51 -52zM220 308l141 140l51 -52l-89 -88l89 -89l-51 -52z" />
    <glyph glyph-name="macron" unicode="&#xaf;" horiz-adv-x="415" 
d="M46 616v73h322v-73h-322z" />
    <glyph glyph-name="degree" unicode="&#xb0;" horiz-adv-x="340" 
d="M40 477v254h259v-254h-259zM232 664h-125v-121h125v121z" />
    <glyph glyph-name="plusminus" unicode="&#xb1;" 
d="M194 146v147h-148v73h148v146h73v-146h146v-73h-146v-147h-73zM46 1v73h367v-73h-367z" />
    <glyph glyph-name="twosuperior" unicode="&#xb2;" horiz-adv-x="283" 
d="M35 326v247h158v107h-158v51h209v-209h-157v-145h157v-51h-209z" />
    <glyph glyph-name="threesuperior" unicode="&#xb3;" horiz-adv-x="274" 
d="M26 326v51h158v145h-158v51h158v107h-158v51h209v-405h-209z" />
    <glyph glyph-name="acute" unicode="&#xb4;" horiz-adv-x="293" 
d="M46 574l110 174h91l-124 -174h-77z" />
    <glyph glyph-name="periodcentered" unicode="&#xb7;" horiz-adv-x="240" 
d="M46 279v146h148v-146h-148z" />
    <glyph glyph-name="cedilla" unicode="&#xb8;" horiz-adv-x="223" 
d="M104 -232v79h-58v129h131v-159z" />
    <glyph glyph-name="onesuperior" unicode="&#xb9;" horiz-adv-x="137" 
d="M50 326v358l-48 47h98v-405h-50z" />
    <glyph glyph-name="ordmasculine" unicode="&#xba;" horiz-adv-x="329" 
d="M163 446c-22.667 0 -42.668 4 -60.001 12s-31.666 18.833 -42.999 32.5s-20 29.5 -26 47.5s-9 37.333 -9 58s3 40 9 58s14.833 33.5 26.5 46.5s26 23.167 43 30.5s36.833 11 59.5 11s42.5 -3.66699 59.5 -11s31.333 -17.5 43 -30.5s20.5 -28.5 26.5 -46.5
s9 -37.333 9 -58s-3 -40 -9 -58s-14.833 -33.833 -26.5 -47.5s-26 -24.5 -43 -32.5s-36.833 -12 -59.5 -12zM162.999 496c26 0 46.667 9 62 27s23 41.667 23 71s-7.33301 52.666 -22 69.999s-35.667 26 -63 26s-48.5 -8.66699 -63.5 -26s-22.5 -40.666 -22.5 -69.999
s7.83301 -53 23.5 -71s36.5 -27 62.5 -27z" />
    <glyph glyph-name="guillemotright" unicode="&#xbb;" horiz-adv-x="422" 
d="M9 219l89 89l-89 88l52 52l140 -140l-140 -141zM220 219l89 89l-89 88l52 52l140 -140l-140 -141z" />
    <glyph glyph-name="onequarter" unicode="&#xbc;" horiz-adv-x="710" 
d="M124 326v358l-48 47h98v-405h-50zM46 0l475 731h71l-475 -731h-71zM612 0v196h-157v209h51v-158h106v118h51v-365h-51z" />
    <glyph glyph-name="onehalf" unicode="&#xbd;" horiz-adv-x="718" 
d="M124 326v358l-48 47h98v-405h-50zM46 0l475 731h71l-475 -731h-71zM462 0v247h158v107h-158v51h209v-209h-157v-145h157v-51h-209z" />
    <glyph glyph-name="threequarters" unicode="&#xbe;" horiz-adv-x="793" 
d="M46 326v51h158v145h-158v51h158v107h-158v51h209v-405h-209zM129 0l475 731h71l-475 -731h-71zM695 0v196h-157v209h51v-158h106v118h51v-365h-51z" />
    <glyph glyph-name="questiondown" unicode="&#xbf;" horiz-adv-x="347" 
d="M28 -120v365h146v198h74v-271h-147v-219h220v-73h-293zM166 521v90h90v-90h-90z" />
    <glyph glyph-name="Agrave" unicode="&#xc0;" horiz-adv-x="455" 
d="M337 0l0.000976562 293h-219v-293h-74v538c0 32 4.66699 60.5 14 85.5s22.166 46 38.499 63s35.833 30 58.5 39s47.667 13.5 75 13.5c26.667 0 51 -4.5 73 -13.5s41 -22 57 -39s28.5 -38 37.5 -63s13.5 -53.5 13.5 -85.5v-538h-74zM337.001 542
c0 41.333 -10.167 72.833 -30.5 94.5s-46.5 32.5 -78.5 32.5c-34 0 -60.833 -10.667 -80.5 -32s-29.5 -53 -29.5 -95v-176h219v176zM201.001 793l-124 174h91l110 -174h-77z" />
    <glyph glyph-name="Aacute" unicode="&#xc1;" horiz-adv-x="455" 
d="M337 0l0.000976562 293h-219v-293h-74v538c0 32 4.66699 60.5 14 85.5s22.166 46 38.499 63s35.833 30 58.5 39s47.667 13.5 75 13.5c26.667 0 51 -4.5 73 -13.5s41 -22 57 -39s28.5 -38 37.5 -63s13.5 -53.5 13.5 -85.5v-538h-74zM337.001 542
c0 41.333 -10.167 72.833 -30.5 94.5s-46.5 32.5 -78.5 32.5c-34 0 -60.833 -10.667 -80.5 -32s-29.5 -53 -29.5 -95v-176h219v176zM177.001 793l110 174h91l-124 -174h-77z" />
    <glyph glyph-name="Acircumflex" unicode="&#xc2;" horiz-adv-x="455" 
d="M337 0l0.000976562 293h-219v-293h-74v538c0 32 4.66699 60.5 14 85.5s22.166 46 38.499 63s35.833 30 58.5 39s47.667 13.5 75 13.5c26.667 0 51 -4.5 73 -13.5s41 -22 57 -39s28.5 -38 37.5 -63s13.5 -53.5 13.5 -85.5v-538h-74zM337.001 542
c0 41.333 -10.167 72.833 -30.5 94.5s-46.5 32.5 -78.5 32.5c-34 0 -60.833 -10.667 -80.5 -32s-29.5 -53 -29.5 -95v-176h219v176zM299.001 793l-71 113l-72 -113h-91l124 174h77l123 -174h-90z" />
    <glyph glyph-name="Atilde" unicode="&#xc3;" horiz-adv-x="455" 
d="M337 0l0.000976562 293h-219v-293h-74v538c0 32 4.66699 60.5 14 85.5s22.166 46 38.499 63s35.833 30 58.5 39s47.667 13.5 75 13.5c26.667 0 51 -4.5 73 -13.5s41 -22 57 -39s28.5 -38 37.5 -63s13.5 -53.5 13.5 -85.5v-538h-74zM337.001 542
c0 41.333 -10.167 72.833 -30.5 94.5s-46.5 32.5 -78.5 32.5c-34 0 -60.833 -10.667 -80.5 -32s-29.5 -53 -29.5 -95v-176h219v176zM66.001 835v73h322v-73h-322z" />
    <glyph glyph-name="Adieresis" unicode="&#xc4;" horiz-adv-x="455" 
d="M337 0l0.000976562 293h-219v-293h-74v538c0 32 4.66699 60.5 14 85.5s22.166 46 38.499 63s35.833 30 58.5 39s47.667 13.5 75 13.5c26.667 0 51 -4.5 73 -13.5s41 -22 57 -39s28.5 -38 37.5 -63s13.5 -53.5 13.5 -85.5v-538h-74zM337.001 542
c0 41.333 -10.167 72.833 -30.5 94.5s-46.5 32.5 -78.5 32.5c-34 0 -60.833 -10.667 -80.5 -32s-29.5 -53 -29.5 -95v-176h219v176zM266.001 843v90h91v-90h-91zM97.001 843v90h91v-90h-91z" />
    <glyph glyph-name="Aring" unicode="&#xc5;" horiz-adv-x="455" 
d="M337 0l0.000976562 293h-219v-293h-74v538c0 32 4.66699 60.5 14 85.5s22.166 46 38.499 63s35.833 30 58.5 39s47.667 13.5 75 13.5c26.667 0 51 -4.5 73 -13.5s41 -22 57 -39s28.5 -38 37.5 -63s13.5 -53.5 13.5 -85.5v-538h-74zM337.001 542
c0 41.333 -10.167 72.833 -30.5 94.5s-46.5 32.5 -78.5 32.5c-34 0 -60.833 -10.667 -80.5 -32s-29.5 -53 -29.5 -95v-176h219v176zM97.001 755v212h260v-212h-260zM289.001 900h-124v-80h124v80z" />
    <glyph glyph-name="AE" unicode="&#xc6;" horiz-adv-x="657" 
d="M337 0l0.000976562 293h-219v-293h-74v538c0 32 4.66699 60.5 14 85.5s22.166 46 38.499 63s35.833 30 58.5 39s47.667 13.5 75 13.5c18.667 0 37.667 -2.66699 57 -8h344v-73h-220v-219h184v-73h-184v-293h220v-73h-294zM337.001 542
c0 41.333 -10.167 72.833 -30.5 94.5s-46.5 32.5 -78.5 32.5c-34 0 -60.833 -10.667 -80.5 -32s-29.5 -53 -29.5 -95v-176h219v176z" />
    <glyph glyph-name="Ccedilla" unicode="&#xc7;" 
d="M352 0c-48 0 -91.833 9.16504 -131.5 27.498s-73.667 43.833 -102 76.5s-50.333 71.334 -66 116.001s-23.5 93.334 -23.5 146.001c0 52 7.66699 100.333 23 145s37.166 83.167 65.499 115.5s62.333 57.833 102 76.5s83.834 28 132.501 28h81v-73h-96
c-34.667 0 -66.334 -7.5 -95.001 -22.5s-53.167 -35.5 -73.5 -61.5s-36.166 -56.833 -47.499 -92.5s-17 -74.167 -17 -115.5c0 -42 5.66699 -80.833 17 -116.5s27.166 -66.5 47.499 -92.5s44.833 -46.5 73.5 -61.5s60.334 -22.5 95.001 -22.5h96v-73h-81zM329 -232.002v79
h-58v129h131v-159z" />
    <glyph glyph-name="Egrave" unicode="&#xc8;" horiz-adv-x="392" 
d="M73 0v658l-73 73h366v-73h-220v-219h184v-73h-184v-293h220v-73h-293zM180 793l-124 174h91l110 -174h-77z" />
    <glyph glyph-name="Eacute" unicode="&#xc9;" horiz-adv-x="392" 
d="M73 0v658l-73 73h366v-73h-220v-219h184v-73h-184v-293h220v-73h-293zM155 793l110 174h91l-124 -174h-77z" />
    <glyph glyph-name="Ecircumflex" unicode="&#xca;" horiz-adv-x="392" 
d="M73 0v658l-73 73h366v-73h-220v-219h184v-73h-184v-293h220v-73h-293zM279 793l-71 113l-72 -113h-91l124 174h77l123 -174h-90z" />
    <glyph glyph-name="Edieresis" unicode="&#xcb;" horiz-adv-x="392" 
d="M73 0v658l-73 73h366v-73h-220v-219h184v-73h-184v-293h220v-73h-293zM245 843v90h91v-90h-91zM76 843v90h91v-90h-91z" />
    <glyph glyph-name="Igrave" unicode="&#xcc;" horiz-adv-x="194" 
d="M74 0v658l-74 73h147v-731h-73zM72 793l-124 174h91l110 -174h-77z" />
    <glyph glyph-name="Iacute" unicode="&#xcd;" horiz-adv-x="194" 
d="M74 0v658l-74 73h147v-731h-73zM46 793l110 174h91l-124 -174h-77z" />
    <glyph glyph-name="Icircumflex" unicode="&#xce;" horiz-adv-x="194" 
d="M74 0v658l-74 73h147v-731h-73zM170 793l-71 113l-72 -113h-91l124 174h77l123 -174h-90z" />
    <glyph glyph-name="Idieresis" unicode="&#xcf;" horiz-adv-x="194" 
d="M74 0v658l-74 73h147v-731h-73zM137 843v90h91v-90h-91zM-32 843v90h91v-90h-91z" />
    <glyph glyph-name="Eth" unicode="&#xd0;" horiz-adv-x="507" 
d="M73 0l0.000976562 367.002h-61v72h61v219l-73 73h155c48 0 91.833 -9.33301 131.5 -28s73.667 -44.167 102 -76.5s50.333 -70.833 66 -115.5s23.5 -93 23.5 -145c0 -52.667 -7.83301 -101.334 -23.5 -146.001s-37.834 -83.334 -66.501 -116.001
s-62.667 -58.167 -102 -76.5s-83 -27.5 -131 -27.5h-82zM169.001 73.002c34.667 0 66.334 7.5 95.001 22.5s53.167 35.5 73.5 61.5s36.166 56.833 47.499 92.5s17 74.5 17 116.5c0 41.333 -5.66699 79.833 -17 115.5s-27.166 66.5 -47.499 92.5s-44.833 46.5 -73.5 61.5
s-60.334 22.5 -95.001 22.5h-23v-219h188v-72h-188v-294h23z" />
    <glyph glyph-name="Ntilde" unicode="&#xd1;" horiz-adv-x="485" 
d="M370 0l-228 544v-544h-69v658l-73 73h147l222 -533v533h70v-731h-69zM81 835v73h322v-73h-322z" />
    <glyph glyph-name="Ograve" unicode="&#xd2;" horiz-adv-x="697" 
d="M357 -8c-54.667 0 -102.498 10.332 -143.498 30.999s-75.167 48.334 -102.5 83.001s-47.833 74.5 -61.5 119.5s-20.5 91.833 -20.5 140.5c0 52 7.5 100.667 22.5 146s36.333 84.833 64 118.5s61.167 60.167 100.5 79.5s83 29 131 29
c47.333 0 90.666 -9.33301 129.999 -28s73.166 -44.667 101.499 -78s50.333 -72.666 66 -117.999s23.5 -95 23.5 -149c0 -52 -7.16699 -100.833 -21.5 -146.5s-34.833 -85.334 -61.5 -119.001s-59.167 -60.167 -97.5 -79.5s-81.833 -29 -130.5 -29zM350.002 59.999
c38.667 0 73.1641 8.16602 103.497 24.499s56 38.5 77 66.5s37 60.5 48 97.5s16.5 76.167 16.5 117.5c0 42.667 -5.66699 82.667 -17 120s-27.666 69.833 -48.999 97.5s-47.5 49.334 -78.5 65.001s-65.833 23.5 -104.5 23.5c-37.333 0 -70.833 -8.16699 -100.5 -24.5
s-55 -38.333 -76 -66s-37 -60 -48 -97s-16.5 -76.5 -16.5 -118.5c0 -40.667 5.33301 -79.5 16 -116.5s26.334 -69.5 47.001 -97.5s46.334 -50.333 77.001 -67s65.667 -25 105 -25zM321.999 792.998l-124 174h91l110 -174h-77z" />
    <glyph glyph-name="Oacute" unicode="&#xd3;" horiz-adv-x="697" 
d="M357 -8c-54.667 0 -102.498 10.332 -143.498 30.999s-75.167 48.334 -102.5 83.001s-47.833 74.5 -61.5 119.5s-20.5 91.833 -20.5 140.5c0 52 7.5 100.667 22.5 146s36.333 84.833 64 118.5s61.167 60.167 100.5 79.5s83 29 131 29
c47.333 0 90.666 -9.33301 129.999 -28s73.166 -44.667 101.499 -78s50.333 -72.666 66 -117.999s23.5 -95 23.5 -149c0 -52 -7.16699 -100.833 -21.5 -146.5s-34.833 -85.334 -61.5 -119.001s-59.167 -60.167 -97.5 -79.5s-81.833 -29 -130.5 -29zM350.002 59.999
c38.667 0 73.1641 8.16602 103.497 24.499s56 38.5 77 66.5s37 60.5 48 97.5s16.5 76.167 16.5 117.5c0 42.667 -5.66699 82.667 -17 120s-27.666 69.833 -48.999 97.5s-47.5 49.334 -78.5 65.001s-65.833 23.5 -104.5 23.5c-37.333 0 -70.833 -8.16699 -100.5 -24.5
s-55 -38.333 -76 -66s-37 -60 -48 -97s-16.5 -76.5 -16.5 -118.5c0 -40.667 5.33301 -79.5 16 -116.5s26.334 -69.5 47.001 -97.5s46.334 -50.333 77.001 -67s65.667 -25 105 -25zM297.999 792.998l110 174h91l-124 -174h-77z" />
    <glyph glyph-name="Ocircumflex" unicode="&#xd4;" horiz-adv-x="697" 
d="M357 -8c-54.667 0 -102.498 10.332 -143.498 30.999s-75.167 48.334 -102.5 83.001s-47.833 74.5 -61.5 119.5s-20.5 91.833 -20.5 140.5c0 52 7.5 100.667 22.5 146s36.333 84.833 64 118.5s61.167 60.167 100.5 79.5s83 29 131 29
c47.333 0 90.666 -9.33301 129.999 -28s73.166 -44.667 101.499 -78s50.333 -72.666 66 -117.999s23.5 -95 23.5 -149c0 -52 -7.16699 -100.833 -21.5 -146.5s-34.833 -85.334 -61.5 -119.001s-59.167 -60.167 -97.5 -79.5s-81.833 -29 -130.5 -29zM350.002 59.999
c38.667 0 73.1641 8.16602 103.497 24.499s56 38.5 77 66.5s37 60.5 48 97.5s16.5 76.167 16.5 117.5c0 42.667 -5.66699 82.667 -17 120s-27.666 69.833 -48.999 97.5s-47.5 49.334 -78.5 65.001s-65.833 23.5 -104.5 23.5c-37.333 0 -70.833 -8.16699 -100.5 -24.5
s-55 -38.333 -76 -66s-37 -60 -48 -97s-16.5 -76.5 -16.5 -118.5c0 -40.667 5.33301 -79.5 16 -116.5s26.334 -69.5 47.001 -97.5s46.334 -50.333 77.001 -67s65.667 -25 105 -25zM419.999 792.998l-71 113l-72 -113h-91l124 174h77l123 -174h-90z" />
    <glyph glyph-name="Otilde" unicode="&#xd5;" horiz-adv-x="697" 
d="M357 -8c-54.667 0 -102.498 10.332 -143.498 30.999s-75.167 48.334 -102.5 83.001s-47.833 74.5 -61.5 119.5s-20.5 91.833 -20.5 140.5c0 52 7.5 100.667 22.5 146s36.333 84.833 64 118.5s61.167 60.167 100.5 79.5s83 29 131 29
c47.333 0 90.666 -9.33301 129.999 -28s73.166 -44.667 101.499 -78s50.333 -72.666 66 -117.999s23.5 -95 23.5 -149c0 -52 -7.16699 -100.833 -21.5 -146.5s-34.833 -85.334 -61.5 -119.001s-59.167 -60.167 -97.5 -79.5s-81.833 -29 -130.5 -29zM350.002 59.999
c38.667 0 73.1641 8.16602 103.497 24.499s56 38.5 77 66.5s37 60.5 48 97.5s16.5 76.167 16.5 117.5c0 42.667 -5.66699 82.667 -17 120s-27.666 69.833 -48.999 97.5s-47.5 49.334 -78.5 65.001s-65.833 23.5 -104.5 23.5c-37.333 0 -70.833 -8.16699 -100.5 -24.5
s-55 -38.333 -76 -66s-37 -60 -48 -97s-16.5 -76.5 -16.5 -118.5c0 -40.667 5.33301 -79.5 16 -116.5s26.334 -69.5 47.001 -97.5s46.334 -50.333 77.001 -67s65.667 -25 105 -25zM186.999 834.998v73h322v-73h-322z" />
    <glyph glyph-name="Odieresis" unicode="&#xd6;" horiz-adv-x="697" 
d="M357 -8c-54.667 0 -102.498 10.332 -143.498 30.999s-75.167 48.334 -102.5 83.001s-47.833 74.5 -61.5 119.5s-20.5 91.833 -20.5 140.5c0 52 7.5 100.667 22.5 146s36.333 84.833 64 118.5s61.167 60.167 100.5 79.5s83 29 131 29
c47.333 0 90.666 -9.33301 129.999 -28s73.166 -44.667 101.499 -78s50.333 -72.666 66 -117.999s23.5 -95 23.5 -149c0 -52 -7.16699 -100.833 -21.5 -146.5s-34.833 -85.334 -61.5 -119.001s-59.167 -60.167 -97.5 -79.5s-81.833 -29 -130.5 -29zM350.002 59.999
c38.667 0 73.1641 8.16602 103.497 24.499s56 38.5 77 66.5s37 60.5 48 97.5s16.5 76.167 16.5 117.5c0 42.667 -5.66699 82.667 -17 120s-27.666 69.833 -48.999 97.5s-47.5 49.334 -78.5 65.001s-65.833 23.5 -104.5 23.5c-37.333 0 -70.833 -8.16699 -100.5 -24.5
s-55 -38.333 -76 -66s-37 -60 -48 -97s-16.5 -76.5 -16.5 -118.5c0 -40.667 5.33301 -79.5 16 -116.5s26.334 -69.5 47.001 -97.5s46.334 -50.333 77.001 -67s65.667 -25 105 -25zM386.999 842.998v90h91v-90h-91zM217.999 842.998v90h91v-90h-91z" />
    <glyph glyph-name="multiply" unicode="&#xd7;" 
d="M231 277l-104 -104l-52 53l104 104l-104 103l52 52l104 -104l103 103l52 -52l-104 -103l104 -103l-51 -52z" />
    <glyph glyph-name="Oslash" unicode="&#xd8;" horiz-adv-x="697" 
d="M105 -100l66.002 148c-24 16.667 -44.833 36.667 -62.5 60s-32.334 48.833 -44.001 76.5s-20.5 56.834 -26.5 87.501s-9 62 -9 94c0 52 7.5 100.667 22.5 146s36.333 84.833 64 118.5s61.167 60.167 100.5 79.5s83 29 131 29c21.333 0 42.166 -2.16699 62.499 -6.5
s39.833 -10.166 58.5 -17.499l52 116h71l-66 -148c44.667 -32.667 79.667 -76.334 105 -131.001s38 -116.667 38 -186c0 -52 -7.16699 -100.833 -21.5 -146.5s-34.833 -85.334 -61.5 -119.001s-59.167 -60.167 -97.5 -79.5s-81.833 -29 -130.5 -29
c-49.333 0 -92.333 8 -129 24l-52 -116h-71zM256.002 79c29.333 -12.667 60.667 -18.999 94 -18.999c38.667 0 73.167 8.16699 103.5 24.5s56 38.5 77 66.5s37 60.5 48 97.5s16.5 76.167 16.5 117.5c0 53.333 -8.5 101.666 -25.5 144.999s-41.5 79 -73.5 107z
M440.003 653.001c-29.333 12.667 -60.667 19 -94 19c-37.333 0 -70.833 -8.16699 -100.5 -24.5s-55 -38.333 -76 -66s-37 -60 -48 -97s-16.5 -76.5 -16.5 -118.5c0 -50.667 8 -98 24 -142s40 -80 72 -108z" />
    <glyph glyph-name="Ugrave" unicode="&#xd9;" horiz-adv-x="455" 
d="M336 731h74.999v-537c0 -32.667 -4.66699 -61.5 -14 -86.5s-22.166 -46 -38.499 -63s-36 -30 -59 -39s-47.833 -13.5 -74.5 -13.5s-51.167 4.5 -73.5 13.5s-41.5 22 -57.5 39s-28.333 38 -37 63s-13 53.833 -13 86.5v537h73v-542c0 -42 10.167 -73.667 30.5 -95
s46.5 -32 78.5 -32c34 0 60.833 10.667 80.5 32s29.5 53 29.5 95v542zM200.999 793l-124 174h91l110 -174h-77z" />
    <glyph glyph-name="Uacute" unicode="&#xda;" horiz-adv-x="455" 
d="M336 731h74.999v-537c0 -32.667 -4.66699 -61.5 -14 -86.5s-22.166 -46 -38.499 -63s-36 -30 -59 -39s-47.833 -13.5 -74.5 -13.5s-51.167 4.5 -73.5 13.5s-41.5 22 -57.5 39s-28.333 38 -37 63s-13 53.833 -13 86.5v537h73v-542c0 -42 10.167 -73.667 30.5 -95
s46.5 -32 78.5 -32c34 0 60.833 10.667 80.5 32s29.5 53 29.5 95v542zM176.999 793l110 174h91l-124 -174h-77z" />
    <glyph glyph-name="Ucircumflex" unicode="&#xdb;" horiz-adv-x="455" 
d="M336 731h74.999v-537c0 -32.667 -4.66699 -61.5 -14 -86.5s-22.166 -46 -38.499 -63s-36 -30 -59 -39s-47.833 -13.5 -74.5 -13.5s-51.167 4.5 -73.5 13.5s-41.5 22 -57.5 39s-28.333 38 -37 63s-13 53.833 -13 86.5v537h73v-542c0 -42 10.167 -73.667 30.5 -95
s46.5 -32 78.5 -32c34 0 60.833 10.667 80.5 32s29.5 53 29.5 95v542zM298.999 793l-71 113l-72 -113h-91l124 174h77l123 -174h-90z" />
    <glyph glyph-name="Udieresis" unicode="&#xdc;" horiz-adv-x="455" 
d="M336 731h74.999v-537c0 -32.667 -4.66699 -61.5 -14 -86.5s-22.166 -46 -38.499 -63s-36 -30 -59 -39s-47.833 -13.5 -74.5 -13.5s-51.167 4.5 -73.5 13.5s-41.5 22 -57.5 39s-28.333 38 -37 63s-13 53.833 -13 86.5v537h73v-542c0 -42 10.167 -73.667 30.5 -95
s46.5 -32 78.5 -32c34 0 60.833 10.667 80.5 32s29.5 53 29.5 95v542zM265.999 843v90h91v-90h-91zM96.999 843v90h91v-90h-91z" />
    <glyph glyph-name="Yacute" unicode="&#xdd;" horiz-adv-x="466" 
d="M220 0v366h-147v292l-73 73h146v-292h220v292h73v-365h-146v-366h-73zM207 793l110 174h91l-124 -174h-77z" />
    <glyph glyph-name="Thorn" unicode="&#xde;" horiz-adv-x="453" 
d="M73 0l-0.00195312 658.001l-73 73h146v-169h93c28.667 0 55.167 -4.33301 79.5 -13s45.166 -20.834 62.499 -36.501s30.833 -34.834 40.5 -57.501s14.5 -48 14.5 -76c0 -27.333 -4.66699 -52.166 -14 -74.499s-22.666 -41.5 -39.999 -57.5s-38.166 -28.333 -62.499 -37
s-51.166 -13 -80.499 -13h-93v-197h-73zM259.998 271.001c30.667 0 55.167 10.833 73.5 32.5s27.5 48.167 27.5 79.5c0 30.667 -9.16699 56.167 -27.5 76.5s-42.833 30.5 -73.5 30.5h-114v-219h114z" />
    <glyph glyph-name="germandbls" unicode="&#xdf;" horiz-adv-x="453" 
d="M194 0v73h146v293h-73v292h-147v-658h-74v731h294v-292h73v-439h-219z" />
    <glyph glyph-name="agrave" unicode="&#xe0;" horiz-adv-x="465" 
d="M47 0v293h294v146h-294v73h367v-441l63 -71h-430zM341 220h-220v-147h220v147zM206 574l-124 174h91l110 -174h-77z" />
    <glyph glyph-name="aacute" unicode="&#xe1;" horiz-adv-x="465" 
d="M47 0v293h294v146h-294v73h367v-441l63 -71h-430zM341 220h-220v-147h220v147zM182 574l110 174h91l-124 -174h-77z" />
    <glyph glyph-name="acircumflex" unicode="&#xe2;" horiz-adv-x="465" 
d="M47 0v293h294v146h-294v73h367v-441l63 -71h-430zM341 220h-220v-147h220v147zM304 574l-71 113l-72 -113h-91l124 174h77l123 -174h-90z" />
    <glyph glyph-name="atilde" unicode="&#xe3;" horiz-adv-x="465" 
d="M47 0v293h294v146h-294v73h367v-441l63 -71h-430zM341 220h-220v-147h220v147zM71 616v73h322v-73h-322z" />
    <glyph glyph-name="adieresis" unicode="&#xe4;" horiz-adv-x="465" 
d="M47 0v293h294v146h-294v73h367v-441l63 -71h-430zM341 220h-220v-147h220v147zM271 624v90h91v-90h-91zM102 624v90h91v-90h-91z" />
    <glyph glyph-name="aring" unicode="&#xe5;" horiz-adv-x="465" 
d="M47 0v293h294v146h-294v73h367v-441l63 -71h-430zM341 220h-220v-147h220v147zM102 536v212h260v-212h-260zM294 681h-124v-80h124v80z" />
    <glyph glyph-name="ae" unicode="&#xe6;" horiz-adv-x="751" 
d="M47 0v293h294v146h-294v73h660v-292h-293v-147h293v-73h-660zM341 220h-220v-147h220v147zM635 439h-221v-146h221v146z" />
    <glyph glyph-name="ccedilla" unicode="&#xe7;" horiz-adv-x="363" 
d="M266 0c-32 0 -61.834 6.83008 -89.501 20.4971s-51.5 32.334 -71.5 56.001s-35.833 51.167 -47.5 82.5s-17.5 65 -17.5 101c0 36.667 5.83301 70.334 17.5 101.001s27.667 57.167 48 79.5s44.166 39.833 71.499 52.5s57 19 89 19h72v-73h-71
c-25.333 0 -47.5 -4.83301 -66.5 -14.5s-34.667 -22.667 -47 -39s-21.5 -35.666 -27.5 -57.999s-9 -45.833 -9 -70.5c0 -26 3.16699 -50.167 9.5 -72.5s15.833 -41.833 28.5 -58.5s28.334 -29.667 47.001 -39s40.334 -14 65.001 -14h71v-73h-72zM233.999 -232.003v79h-58
v129h131v-159z" />
    <glyph glyph-name="egrave" unicode="&#xe8;" horiz-adv-x="456" 
d="M46 0v512h366v-292h-293v-147h293v-73h-366zM340 439h-221v-146h221v146zM201 574l-124 174h91l110 -174h-77z" />
    <glyph glyph-name="eacute" unicode="&#xe9;" horiz-adv-x="456" 
d="M46 0v512h366v-292h-293v-147h293v-73h-366zM340 439h-221v-146h221v146zM177 574l110 174h91l-124 -174h-77z" />
    <glyph glyph-name="ecircumflex" unicode="&#xea;" horiz-adv-x="456" 
d="M46 0v512h366v-292h-293v-147h293v-73h-366zM340 439h-221v-146h221v146zM300 574l-71 113l-72 -113h-91l124 174h77l123 -174h-90z" />
    <glyph glyph-name="edieresis" unicode="&#xeb;" horiz-adv-x="456" 
d="M46 0v512h366v-292h-293v-147h293v-73h-366zM340 439h-221v-146h221v146zM267 624v90h91v-90h-91zM98 624v90h91v-90h-91z" />
    <glyph glyph-name="igrave" unicode="&#xec;" horiz-adv-x="203" 
d="M83 0v512h74v-512h-74zM95 574l-124 174h91l110 -174h-77z" />
    <glyph glyph-name="iacute" unicode="&#xed;" horiz-adv-x="219" 
d="M46 0v512h74v-512h-74zM34 574l110 174h91l-124 -174h-77z" />
    <glyph glyph-name="icircumflex" unicode="&#xee;" horiz-adv-x="291" 
d="M109 0v512h74v-512h-74zM219 574l-71 113l-72 -113h-91l124 174h77l123 -174h-90z" />
    <glyph glyph-name="idieresis" unicode="&#xef;" horiz-adv-x="234" 
d="M80 0v512h74v-512h-74zM157 624v90h91v-90h-91zM-12 624v90h91v-90h-91z" />
    <glyph glyph-name="eth" unicode="&#xf0;" horiz-adv-x="544" 
d="M519 260c0 -36.667 -5.33105 -71.166 -15.998 -103.499s-26.334 -60.666 -47.001 -84.999s-46.5 -43.666 -77.5 -57.999s-66.5 -21.5 -106.5 -21.5s-75.5 7.16699 -106.5 21.5s-56.833 33.666 -77.5 57.999s-36.334 52.666 -47.001 84.999s-16 66.833 -16 103.5
c0 37.333 5.33301 71.833 16 103.5s26.5 59.167 47.5 82.5s46.833 41.666 77.5 54.999s66 20 106 20c32 0 64.333 -7.33301 97 -22s59 -37.667 79 -69c-6 48 -21.667 89 -47 123s-55 60 -89 78l-67 -87l-30 23l60 80c-22 7.33301 -43.667 11 -65 11h-97v73h82
c44 0 85.667 -8.33301 125 -25l37 48l30 -23l-32 -42c50.667 -30 90.667 -73.167 120 -129.5s44 -120.833 44 -193.5v-106zM272.002 64.001c26 0 49.499 4.66699 70.499 14s38.833 22.5 53.5 39.5s26 37.333 34 61s12 49.834 12 78.501s-3.83301 54.834 -11.5 78.501
s-18.667 43.834 -33 60.501s-32.166 29.5 -53.499 38.5s-45.333 13.5 -72 13.5c-27.333 0 -51.5 -4.5 -72.5 -13.5s-38.667 -21.833 -53 -38.5s-25.333 -36.834 -33 -60.501s-11.5 -49.834 -11.5 -78.501s4 -54.834 12 -78.501s19.333 -44 34 -61s32.5 -30.167 53.5 -39.5
s44.5 -14 70.5 -14z" />
    <glyph glyph-name="ntilde" unicode="&#xf1;" 
d="M340 0v439h-220v-439h-74v585l74 -73h293v-512h-73zM69 616v73h322v-73h-322z" />
    <glyph glyph-name="ograve" unicode="&#xf2;" horiz-adv-x="544" 
d="M272 -8c-40 0 -75.499 7.16699 -106.499 21.5s-56.833 33.666 -77.5 57.999s-36.334 52.666 -47.001 84.999s-16 66.833 -16 103.5c0 37.333 5.33301 71.833 16 103.5s26.5 59.167 47.5 82.5s46.833 41.666 77.5 54.999s66 20 106 20s75.5 -6.66699 106.5 -20
s56.833 -31.666 77.5 -54.999s36.334 -50.833 47.001 -82.5s16 -66.167 16 -103.5c0 -36.667 -5.33301 -71.167 -16 -103.5s-26.334 -60.666 -47.001 -84.999s-46.5 -43.666 -77.5 -57.999s-66.5 -21.5 -106.5 -21.5zM272.001 64c26 0 49.499 4.66699 70.499 14
s38.833 22.5 53.5 39.5s26 37.333 34 61s12 49.834 12 78.501s-3.83301 54.834 -11.5 78.501s-18.667 43.834 -33 60.501s-32.166 29.5 -53.499 38.5s-45.333 13.5 -72 13.5c-27.333 0 -51.5 -4.5 -72.5 -13.5s-38.667 -21.833 -53 -38.5s-25.333 -36.834 -33 -60.501
s-11.5 -49.834 -11.5 -78.501s4 -54.834 12 -78.501s19.333 -44 34 -61s32.5 -30.167 53.5 -39.5s44.5 -14 70.5 -14zM245 574l-124 174h91l110 -174h-77z" />
    <glyph glyph-name="oacute" unicode="&#xf3;" horiz-adv-x="544" 
d="M272 -8c-40 0 -75.499 7.16699 -106.499 21.5s-56.833 33.666 -77.5 57.999s-36.334 52.666 -47.001 84.999s-16 66.833 -16 103.5c0 37.333 5.33301 71.833 16 103.5s26.5 59.167 47.5 82.5s46.833 41.666 77.5 54.999s66 20 106 20s75.5 -6.66699 106.5 -20
s56.833 -31.666 77.5 -54.999s36.334 -50.833 47.001 -82.5s16 -66.167 16 -103.5c0 -36.667 -5.33301 -71.167 -16 -103.5s-26.334 -60.666 -47.001 -84.999s-46.5 -43.666 -77.5 -57.999s-66.5 -21.5 -106.5 -21.5zM272.001 64c26 0 49.499 4.66699 70.499 14
s38.833 22.5 53.5 39.5s26 37.333 34 61s12 49.834 12 78.501s-3.83301 54.834 -11.5 78.501s-18.667 43.834 -33 60.501s-32.166 29.5 -53.499 38.5s-45.333 13.5 -72 13.5c-27.333 0 -51.5 -4.5 -72.5 -13.5s-38.667 -21.833 -53 -38.5s-25.333 -36.834 -33 -60.501
s-11.5 -49.834 -11.5 -78.501s4 -54.834 12 -78.501s19.333 -44 34 -61s32.5 -30.167 53.5 -39.5s44.5 -14 70.5 -14zM221 574l110 174h91l-124 -174h-77z" />
    <glyph glyph-name="ocircumflex" unicode="&#xf4;" horiz-adv-x="544" 
d="M272 -8c-40 0 -75.499 7.16699 -106.499 21.5s-56.833 33.666 -77.5 57.999s-36.334 52.666 -47.001 84.999s-16 66.833 -16 103.5c0 37.333 5.33301 71.833 16 103.5s26.5 59.167 47.5 82.5s46.833 41.666 77.5 54.999s66 20 106 20s75.5 -6.66699 106.5 -20
s56.833 -31.666 77.5 -54.999s36.334 -50.833 47.001 -82.5s16 -66.167 16 -103.5c0 -36.667 -5.33301 -71.167 -16 -103.5s-26.334 -60.666 -47.001 -84.999s-46.5 -43.666 -77.5 -57.999s-66.5 -21.5 -106.5 -21.5zM272.001 64c26 0 49.499 4.66699 70.499 14
s38.833 22.5 53.5 39.5s26 37.333 34 61s12 49.834 12 78.501s-3.83301 54.834 -11.5 78.501s-18.667 43.834 -33 60.501s-32.166 29.5 -53.499 38.5s-45.333 13.5 -72 13.5c-27.333 0 -51.5 -4.5 -72.5 -13.5s-38.667 -21.833 -53 -38.5s-25.333 -36.834 -33 -60.501
s-11.5 -49.834 -11.5 -78.501s4 -54.834 12 -78.501s19.333 -44 34 -61s32.5 -30.167 53.5 -39.5s44.5 -14 70.5 -14zM344 574l-71 113l-72 -113h-91l124 174h77l123 -174h-90z" />
    <glyph glyph-name="otilde" unicode="&#xf5;" horiz-adv-x="544" 
d="M272 -8c-40 0 -75.499 7.16699 -106.499 21.5s-56.833 33.666 -77.5 57.999s-36.334 52.666 -47.001 84.999s-16 66.833 -16 103.5c0 37.333 5.33301 71.833 16 103.5s26.5 59.167 47.5 82.5s46.833 41.666 77.5 54.999s66 20 106 20s75.5 -6.66699 106.5 -20
s56.833 -31.666 77.5 -54.999s36.334 -50.833 47.001 -82.5s16 -66.167 16 -103.5c0 -36.667 -5.33301 -71.167 -16 -103.5s-26.334 -60.666 -47.001 -84.999s-46.5 -43.666 -77.5 -57.999s-66.5 -21.5 -106.5 -21.5zM272.001 64c26 0 49.499 4.66699 70.499 14
s38.833 22.5 53.5 39.5s26 37.333 34 61s12 49.834 12 78.501s-3.83301 54.834 -11.5 78.501s-18.667 43.834 -33 60.501s-32.166 29.5 -53.499 38.5s-45.333 13.5 -72 13.5c-27.333 0 -51.5 -4.5 -72.5 -13.5s-38.667 -21.833 -53 -38.5s-25.333 -36.834 -33 -60.501
s-11.5 -49.834 -11.5 -78.501s4 -54.834 12 -78.501s19.333 -44 34 -61s32.5 -30.167 53.5 -39.5s44.5 -14 70.5 -14zM111 616v73h322v-73h-322z" />
    <glyph glyph-name="odieresis" unicode="&#xf6;" horiz-adv-x="544" 
d="M272 -8c-40 0 -75.499 7.16699 -106.499 21.5s-56.833 33.666 -77.5 57.999s-36.334 52.666 -47.001 84.999s-16 66.833 -16 103.5c0 37.333 5.33301 71.833 16 103.5s26.5 59.167 47.5 82.5s46.833 41.666 77.5 54.999s66 20 106 20s75.5 -6.66699 106.5 -20
s56.833 -31.666 77.5 -54.999s36.334 -50.833 47.001 -82.5s16 -66.167 16 -103.5c0 -36.667 -5.33301 -71.167 -16 -103.5s-26.334 -60.666 -47.001 -84.999s-46.5 -43.666 -77.5 -57.999s-66.5 -21.5 -106.5 -21.5zM272.001 64c26 0 49.499 4.66699 70.499 14
s38.833 22.5 53.5 39.5s26 37.333 34 61s12 49.834 12 78.501s-3.83301 54.834 -11.5 78.501s-18.667 43.834 -33 60.501s-32.166 29.5 -53.499 38.5s-45.333 13.5 -72 13.5c-27.333 0 -51.5 -4.5 -72.5 -13.5s-38.667 -21.833 -53 -38.5s-25.333 -36.834 -33 -60.501
s-11.5 -49.834 -11.5 -78.501s4 -54.834 12 -78.501s19.333 -44 34 -61s32.5 -30.167 53.5 -39.5s44.5 -14 70.5 -14zM311 624v90h91v-90h-91zM142 624v90h91v-90h-91z" />
    <glyph glyph-name="divide" unicode="&#xf7;" 
d="M46 293v73h367v-73h-367zM156 514v146h148v-146h-148zM156 0v146h148v-146h-148z" />
    <glyph glyph-name="oslash" unicode="&#xf8;" horiz-adv-x="544" 
d="M49 -100l73.001 138.998c-32 24 -56.167 55.333 -72.5 94s-24.5 81 -24.5 127c0 37.333 5.33301 71.833 16 103.5s26.5 59.167 47.5 82.5s46.833 41.666 77.5 54.999s66 20 106 20c17.333 0 34 -1.33301 50 -4s31 -6.66699 45 -12l56 107h71l-71 -136
c32 -23.333 56 -53.666 72 -90.999s24 -79 24 -125c0 -36.667 -5.33301 -71.167 -16 -103.5s-26.334 -60.666 -47.001 -84.999s-46.5 -43.666 -77.5 -57.999s-66.5 -21.5 -106.5 -21.5c-18 0 -34.833 1.33301 -50.5 4s-30.5 6.66699 -44.5 12l-57 -108h-71zM211.001 73.998
c18 -6.66699 38.333 -10 61 -10c26 0 49.5 4.66699 70.5 14s38.833 22.5 53.5 39.5s26 37.333 34 61s12 49.834 12 78.501c0 32 -4.83301 60.667 -14.5 86s-23.5 46.666 -41.5 63.999zM332.001 437.998c-9.33301 3.33301 -18.833 5.83398 -28.5 7.50098
s-20.167 2.5 -31.5 2.5c-27.333 0 -51.5 -4.5 -72.5 -13.5s-38.667 -21.833 -53 -38.5s-25.333 -36.834 -33 -60.501s-11.5 -49.834 -11.5 -78.501c0 -32 4.83301 -60.667 14.5 -86s23.167 -46.666 40.5 -63.999z" />
    <glyph glyph-name="ugrave" unicode="&#xf9;" horiz-adv-x="486" 
d="M46 0v512h74v-439h220v439h73v-439l73 -73h-440zM201 574l-124 174h91l110 -174h-77z" />
    <glyph glyph-name="uacute" unicode="&#xfa;" horiz-adv-x="486" 
d="M46 0v512h74v-439h220v439h73v-439l73 -73h-440zM177 574l110 174h91l-124 -174h-77z" />
    <glyph glyph-name="ucircumflex" unicode="&#xfb;" horiz-adv-x="486" 
d="M46 0v512h74v-439h220v439h73v-439l73 -73h-440zM298 574l-71 113l-72 -113h-91l124 174h77l123 -174h-90z" />
    <glyph glyph-name="udieresis" unicode="&#xfc;" horiz-adv-x="486" 
d="M46 0v512h74v-439h220v439h73v-439l73 -73h-440zM268 624v90h91v-90h-91zM99 624v90h91v-90h-91z" />
    <glyph glyph-name="yacute" unicode="&#xfd;" 
d="M152 -146l0.000976562 71.998h116c25.333 0 43.666 4.83301 54.999 14.5s17 26.834 17 51.501v27h-294v493h74v-421h220v421h73v-520c0 -47.333 -13 -82.166 -39 -104.499s-61.333 -33.5 -106 -33.5h-116zM179.001 573.998l110 174h91l-124 -174h-77z" />
    <glyph glyph-name="thorn" unicode="&#xfe;" horiz-adv-x="443" 
d="M46 -146l0.000976562 877.001h74v-219h74c31.333 0 60.666 -6.83301 87.999 -20.5s51 -32.334 71 -56.001s35.667 -51.167 47 -82.5s17 -65 17 -101s-5.66699 -69.5 -17 -100.5s-26.833 -57.667 -46.5 -80s-43.167 -39.833 -70.5 -52.5s-57 -19 -89 -19h-75v-146h-73z
M186.001 73.001c24 0 45.667 4.66699 65 14s35.5 22 48.5 38s23 35.167 30 57.5s10.5 46.5 10.5 72.5s-3.33301 50.167 -10 72.5s-16.5 41.833 -29.5 58.5s-29.167 29.667 -48.5 39s-41.333 14 -66 14h-67v-366h67z" />
    <glyph glyph-name="ydieresis" unicode="&#xff;" 
d="M152 -146l0.000976562 71.998h116c25.333 0 43.666 4.83301 54.999 14.5s17 26.834 17 51.501v27h-294v493h74v-421h220v421h73v-520c0 -47.333 -13 -82.166 -39 -104.499s-61.333 -33.5 -106 -33.5h-116zM269.001 623.998v90h91v-90h-91zM100.001 623.998v90h91v-90h-91
z" />
    <glyph glyph-name="Amacron" unicode="&#x100;" horiz-adv-x="455" 
d="M337 0l0.000976562 293h-219v-293h-74v538c0 32 4.66699 60.5 14 85.5s22.166 46 38.499 63s35.833 30 58.5 39s47.667 13.5 75 13.5c26.667 0 51 -4.5 73 -13.5s41 -22 57 -39s28.5 -38 37.5 -63s13.5 -53.5 13.5 -85.5v-538h-74zM337.001 542
c0 41.333 -10.167 72.833 -30.5 94.5s-46.5 32.5 -78.5 32.5c-34 0 -60.833 -10.667 -80.5 -32s-29.5 -53 -29.5 -95v-176h219v176zM66.001 835v73h322v-73h-322z" />
    <glyph glyph-name="amacron" unicode="&#x101;" horiz-adv-x="465" 
d="M47 0v293h294v146h-294v73h367v-441l63 -71h-430zM341 220h-220v-147h220v147zM71 616v73h322v-73h-322z" />
    <glyph glyph-name="Abreve" unicode="&#x102;" horiz-adv-x="455" 
d="M337 0l0.000976562 293h-219v-293h-74v538c0 32 4.66699 60.5 14 85.5s22.166 46 38.499 63s35.833 30 58.5 39s47.667 13.5 75 13.5c26.667 0 51 -4.5 73 -13.5s41 -22 57 -39s28.5 -38 37.5 -63s13.5 -53.5 13.5 -85.5v-538h-74zM337.001 542
c0 41.333 -10.167 72.833 -30.5 94.5s-46.5 32.5 -78.5 32.5c-34 0 -60.833 -10.667 -80.5 -32s-29.5 -53 -29.5 -95v-176h219v176zM97.001 796v171h68v-104h124v104h68v-171h-260z" />
    <glyph glyph-name="abreve" unicode="&#x103;" horiz-adv-x="465" 
d="M47 0v293h294v146h-294v73h367v-441l63 -71h-430zM341 220h-220v-147h220v147zM102 577v171h68v-104h124v104h68v-171h-260z" />
    <glyph glyph-name="Aogonek" unicode="&#x104;" horiz-adv-x="455" 
d="M384 -232c-104.667 0 -162.333 49.001 -173 147.001l126 85v293h-219v-293h-74v538c0 32 4.66699 60.5 14 85.5s22.166 46 38.499 63s35.833 30 58.5 39s47.667 13.5 75 13.5c26.667 0 51 -4.5 73 -13.5s41 -22 57 -39s28.5 -38 37.5 -63s13.5 -53.5 13.5 -85.5v-538
l-122 -90c5.33301 -24.667 15.333 -42.334 30 -53.001s36.334 -16 65.001 -16h27v-73h-27zM337.001 542.001c0 41.333 -10.167 72.833 -30.5 94.5s-46.5 32.5 -78.5 32.5c-34 0 -60.833 -10.667 -80.5 -32s-29.5 -53 -29.5 -95v-176h219v176z" />
    <glyph glyph-name="aogonek" unicode="&#x105;" horiz-adv-x="465" 
d="M450 -232c-104.667 0 -162.334 49.001 -173.001 147.001l126 85h-356v293h294v146h-294v73h367v-441l63 -71l-122 -90c5.33301 -24.667 15.333 -42.334 30 -53.001s36.334 -16 65.001 -16h27v-73h-27zM341 220.001h-220v-147h220v147z" />
    <glyph glyph-name="Cacute" unicode="&#x106;" 
d="M352 0c-48 0 -91.833 9.16504 -131.5 27.498s-73.667 43.833 -102 76.5s-50.333 71.334 -66 116.001s-23.5 93.334 -23.5 146.001c0 52 7.66699 100.333 23 145s37.166 83.167 65.499 115.5s62.333 57.833 102 76.5s83.834 28 132.501 28h81v-73h-96
c-34.667 0 -66.334 -7.5 -95.001 -22.5s-53.167 -35.5 -73.5 -61.5s-36.166 -56.833 -47.499 -92.5s-17 -74.167 -17 -115.5c0 -42 5.66699 -80.833 17 -116.5s27.166 -66.5 47.499 -92.5s44.833 -46.5 73.5 -61.5s60.334 -22.5 95.001 -22.5h96v-73h-81zM309 792.998
l110 174h91l-124 -174h-77z" />
    <glyph glyph-name="cacute" unicode="&#x107;" horiz-adv-x="363" 
d="M266 0c-32 0 -61.834 6.83008 -89.501 20.4971s-51.5 32.334 -71.5 56.001s-35.833 51.167 -47.5 82.5s-17.5 65 -17.5 101c0 36.667 5.83301 70.334 17.5 101.001s27.667 57.167 48 79.5s44.166 39.833 71.499 52.5s57 19 89 19h72v-73h-71
c-25.333 0 -47.5 -4.83301 -66.5 -14.5s-34.667 -22.667 -47 -39s-21.5 -35.666 -27.5 -57.999s-9 -45.833 -9 -70.5c0 -26 3.16699 -50.167 9.5 -72.5s15.833 -41.833 28.5 -58.5s28.334 -29.667 47.001 -39s40.334 -14 65.001 -14h71v-73h-72zM230.999 573.997l110 174h91
l-124 -174h-77z" />
    <glyph glyph-name="Cdotaccent" unicode="&#x10a;" 
d="M352 0c-48 0 -91.833 9.16504 -131.5 27.498s-73.667 43.833 -102 76.5s-50.333 71.334 -66 116.001s-23.5 93.334 -23.5 146.001c0 52 7.66699 100.333 23 145s37.166 83.167 65.499 115.5s62.333 57.833 102 76.5s83.834 28 132.501 28h81v-73h-96
c-34.667 0 -66.334 -7.5 -95.001 -22.5s-53.167 -35.5 -73.5 -61.5s-36.166 -56.833 -47.499 -92.5s-17 -74.167 -17 -115.5c0 -42 5.66699 -80.833 17 -116.5s27.166 -66.5 47.499 -92.5s44.833 -46.5 73.5 -61.5s60.334 -22.5 95.001 -22.5h96v-73h-81zM304 842.998v90h91
v-90h-91z" />
    <glyph glyph-name="cdotaccent" unicode="&#x10b;" horiz-adv-x="363" 
d="M266 0c-32 0 -61.834 6.83008 -89.501 20.4971s-51.5 32.334 -71.5 56.001s-35.833 51.167 -47.5 82.5s-17.5 65 -17.5 101c0 36.667 5.83301 70.334 17.5 101.001s27.667 57.167 48 79.5s44.166 39.833 71.499 52.5s57 19 89 19h72v-73h-71
c-25.333 0 -47.5 -4.83301 -66.5 -14.5s-34.667 -22.667 -47 -39s-21.5 -35.666 -27.5 -57.999s-9 -45.833 -9 -70.5c0 -26 3.16699 -50.167 9.5 -72.5s15.833 -41.833 28.5 -58.5s28.334 -29.667 47.001 -39s40.334 -14 65.001 -14h71v-73h-72zM215.999 623.997v90h91v-90
h-91z" />
    <glyph glyph-name="Ccaron" unicode="&#x10c;" 
d="M352 0c-48 0 -91.833 9.16504 -131.5 27.498s-73.667 43.833 -102 76.5s-50.333 71.334 -66 116.001s-23.5 93.334 -23.5 146.001c0 52 7.66699 100.333 23 145s37.166 83.167 65.499 115.5s62.333 57.833 102 76.5s83.834 28 132.501 28h81v-73h-96
c-34.667 0 -66.334 -7.5 -95.001 -22.5s-53.167 -35.5 -73.5 -61.5s-36.166 -56.833 -47.499 -92.5s-17 -74.167 -17 -115.5c0 -42 5.66699 -80.833 17 -116.5s27.166 -66.5 47.499 -92.5s44.833 -46.5 73.5 -61.5s60.334 -22.5 95.001 -22.5h96v-73h-81zM302 792.998
l-124 174h91l71 -114l72 114h90l-123 -174h-77z" />
    <glyph glyph-name="ccaron" unicode="&#x10d;" horiz-adv-x="363" 
d="M266 0c-32 0 -61.834 6.83008 -89.501 20.4971s-51.5 32.334 -71.5 56.001s-35.833 51.167 -47.5 82.5s-17.5 65 -17.5 101c0 36.667 5.83301 70.334 17.5 101.001s27.667 57.167 48 79.5s44.166 39.833 71.499 52.5s57 19 89 19h72v-73h-71
c-25.333 0 -47.5 -4.83301 -66.5 -14.5s-34.667 -22.667 -47 -39s-21.5 -35.666 -27.5 -57.999s-9 -45.833 -9 -70.5c0 -26 3.16699 -50.167 9.5 -72.5s15.833 -41.833 28.5 -58.5s28.334 -29.667 47.001 -39s40.334 -14 65.001 -14h71v-73h-72zM193.999 573.997l-124 174
h91l71 -114l72 114h90l-123 -174h-77z" />
    <glyph glyph-name="Dcaron" unicode="&#x10e;" horiz-adv-x="507" 
d="M73 0l0.000976562 658.002l-73 73h155c48 0 91.833 -9.33301 131.5 -28s73.667 -44.167 102 -76.5s50.333 -70.833 66 -115.5s23.5 -93 23.5 -145c0 -52.667 -7.83301 -101.334 -23.5 -146.001s-37.834 -83.334 -66.501 -116.001s-62.667 -58.167 -102 -76.5
s-83 -27.5 -131 -27.5h-82zM169.001 73.002c34.667 0 66.334 7.5 95.001 22.5s53.167 35.5 73.5 61.5s36.166 56.833 47.499 92.5s17 74.5 17 116.5c0 41.333 -5.66699 79.833 -17 115.5s-27.166 66.5 -47.499 92.5s-44.833 46.5 -73.5 61.5s-60.334 22.5 -95.001 22.5h-23
v-585h23zM166.001 793.002l-124 174h91l71 -114l72 114h90l-123 -174h-77z" />
    <glyph glyph-name="dcaron" unicode="&#x10f;" horiz-adv-x="564" 
d="M246 0c-32 0 -61.667 6.83203 -89 20.499s-51 32.334 -71 56.001s-35.667 51.167 -47 82.5s-17 65 -17 101s5.66699 69.5 17 100.5s27 57.667 47 80s43.667 39.833 71 52.5s57 19 89 19h74v219h73v-658l73 -73h-220zM320 438.999h-66c-24.667 0 -46.5 -4.66699 -65.5 -14
s-35 -22 -48 -38s-23 -35.167 -30 -57.5s-10.5 -46.5 -10.5 -72.5s3.33301 -50.167 10 -72.5s16.5 -41.833 29.5 -58.5s29.167 -29.667 48.5 -39s41.333 -14 66 -14h66v366zM491 522.999v79h-58v129h131v-159z" />
    <glyph glyph-name="Dcroat" unicode="&#x110;" horiz-adv-x="507" 
d="M73 0l0.000976562 367.002h-61v72h61v219l-73 73h155c48 0 91.833 -9.33301 131.5 -28s73.667 -44.167 102 -76.5s50.333 -70.833 66 -115.5s23.5 -93 23.5 -145c0 -52.667 -7.83301 -101.334 -23.5 -146.001s-37.834 -83.334 -66.501 -116.001
s-62.667 -58.167 -102 -76.5s-83 -27.5 -131 -27.5h-82zM169.001 73.002c34.667 0 66.334 7.5 95.001 22.5s53.167 35.5 73.5 61.5s36.166 56.833 47.499 92.5s17 74.5 17 116.5c0 41.333 -5.66699 79.833 -17 115.5s-27.166 66.5 -47.499 92.5s-44.833 46.5 -73.5 61.5
s-60.334 22.5 -95.001 22.5h-23v-219h188v-72h-188v-294h23z" />
    <glyph glyph-name="dmacron" unicode="&#x111;" horiz-adv-x="466" 
d="M246 0c-32 0 -61.667 6.83203 -89 20.499s-51 32.334 -71 56.001s-35.667 51.167 -47 82.5s-17 65 -17 101s5.66699 69.5 17 100.5s27 57.667 47 80s43.667 39.833 71 52.5s57 19 89 19h74v104h-176v73h176v42h73v-42h73v-73h-73v-543l73 -73h-220zM320 438.999h-66
c-24.667 0 -46.5 -4.66699 -65.5 -14s-35 -22 -48 -38s-23 -35.167 -30 -57.5s-10.5 -46.5 -10.5 -72.5s3.33301 -50.167 10 -72.5s16.5 -41.833 29.5 -58.5s29.167 -29.667 48.5 -39s41.333 -14 66 -14h66v366z" />
    <glyph glyph-name="Emacron" unicode="&#x112;" horiz-adv-x="392" 
d="M73 0v658l-73 73h366v-73h-220v-219h184v-73h-184v-293h220v-73h-293zM46 835v73h322v-73h-322z" />
    <glyph glyph-name="emacron" unicode="&#x113;" horiz-adv-x="456" 
d="M46 0v512h366v-292h-293v-147h293v-73h-366zM340 439h-221v-146h221v146zM67 616v73h322v-73h-322z" />
    <glyph glyph-name="Ebreve" unicode="&#x114;" horiz-adv-x="392" 
d="M73 0v658l-73 73h366v-73h-220v-219h184v-73h-184v-293h220v-73h-293zM76 796v171h68v-104h124v104h68v-171h-260z" />
    <glyph glyph-name="ebreve" unicode="&#x115;" horiz-adv-x="456" 
d="M46 0v512h366v-292h-293v-147h293v-73h-366zM340 439h-221v-146h221v146zM98 577v171h68v-104h124v104h68v-171h-260z" />
    <glyph glyph-name="Edotaccent" unicode="&#x116;" horiz-adv-x="392" 
d="M73 0v658l-73 73h366v-73h-220v-219h184v-73h-184v-293h220v-73h-293zM160 843v90h91v-90h-91z" />
    <glyph glyph-name="edotaccent" unicode="&#x117;" horiz-adv-x="456" 
d="M46 0v512h366v-292h-293v-147h293v-73h-366zM340 439h-221v-146h221v146zM182 624v90h91v-90h-91z" />
    <glyph glyph-name="Eogonek" unicode="&#x118;" horiz-adv-x="392" 
d="M339 -232c-104.667 0 -162.334 49.001 -173.001 147.001l126 85h-219v658l-73 73h366v-73h-220v-219h184v-73h-184v-293h220v-73l-122 -90c5.33301 -24.667 15.333 -42.334 30 -53.001s36.334 -16 65.001 -16h27v-73h-27z" />
    <glyph glyph-name="eogonek" unicode="&#x119;" horiz-adv-x="456" 
d="M385 -232c-104.667 0 -162.334 49.001 -173.001 147.001l126 85h-292v512h366v-292h-293v-147h293v-73l-122 -90c5.33301 -24.667 15.333 -42.334 30 -53.001s36.334 -16 65.001 -16h27v-73h-27zM340 439.001h-221v-146h221v146z" />
    <glyph glyph-name="Ecaron" unicode="&#x11a;" horiz-adv-x="392" 
d="M73 0v658l-73 73h366v-73h-220v-219h184v-73h-184v-293h220v-73h-293zM169 793l-124 174h91l71 -114l72 114h90l-123 -174h-77z" />
    <glyph glyph-name="ecaron" unicode="&#x11b;" horiz-adv-x="456" 
d="M46 0v512h366v-292h-293v-147h293v-73h-366zM340 439h-221v-146h221v146zM190 574l-124 174h91l71 -114l72 114h90l-123 -174h-77z" />
    <glyph glyph-name="Gbreve" unicode="&#x11e;" horiz-adv-x="513" 
d="M351 0c-47.333 0 -90.833 9.16504 -130.5 27.498s-73.667 43.833 -102 76.5s-50.333 71.334 -66 116.001s-23.5 93.334 -23.5 146.001c0 52 7.83301 100.333 23.5 145s37.5 83.167 65.5 115.5s61.833 57.833 101.5 76.5s83.5 28 131.5 28h83v-73h-96
c-34.667 0 -66.334 -7.5 -95.001 -22.5s-53.167 -35.5 -73.5 -61.5s-36.166 -56.833 -47.499 -92.5s-17 -74.167 -17 -115.5c0 -42 5.66699 -80.833 17 -116.5s27.166 -66.5 47.499 -92.5s44.833 -46.5 73.5 -61.5s60.334 -22.5 95.001 -22.5h22v220h-73v73h220l-73 -73
v-220l73 -73h-156zM176 795.998v171h68v-104h124v104h68v-171h-260z" />
    <glyph glyph-name="gbreve" unicode="&#x11f;" horiz-adv-x="486" 
d="M46 -146v73h294v73h-294l147 146h-147v366h440l-74 -73v-293h-123l-86 -82h209v-210h-366zM341 441h-223v-229h223v229zM113 577v171h68v-104h124v104h68v-171h-260z" />
    <glyph glyph-name="Gdotaccent" unicode="&#x120;" horiz-adv-x="513" 
d="M351 0c-47.333 0 -90.833 9.16504 -130.5 27.498s-73.667 43.833 -102 76.5s-50.333 71.334 -66 116.001s-23.5 93.334 -23.5 146.001c0 52 7.83301 100.333 23.5 145s37.5 83.167 65.5 115.5s61.833 57.833 101.5 76.5s83.5 28 131.5 28h83v-73h-96
c-34.667 0 -66.334 -7.5 -95.001 -22.5s-53.167 -35.5 -73.5 -61.5s-36.166 -56.833 -47.499 -92.5s-17 -74.167 -17 -115.5c0 -42 5.66699 -80.833 17 -116.5s27.166 -66.5 47.499 -92.5s44.833 -46.5 73.5 -61.5s60.334 -22.5 95.001 -22.5h22v220h-73v73h220l-73 -73
v-220l73 -73h-156zM311 842.998v90h91v-90h-91z" />
    <glyph glyph-name="gdotaccent" unicode="&#x121;" horiz-adv-x="486" 
d="M46 -146v73h294v73h-294l147 146h-147v366h440l-74 -73v-293h-123l-86 -82h209v-210h-366zM341 441h-223v-229h223v229zM187 624v90h91v-90h-91z" />
    <glyph glyph-name="Gcommaaccent" unicode="&#x122;" horiz-adv-x="513" 
d="M351 0c-47.333 0 -90.833 9.16504 -130.5 27.498s-73.667 43.833 -102 76.5s-50.333 71.334 -66 116.001s-23.5 93.334 -23.5 146.001c0 52 7.83301 100.333 23.5 145s37.5 83.167 65.5 115.5s61.833 57.833 101.5 76.5s83.5 28 131.5 28h83v-73h-96
c-34.667 0 -66.334 -7.5 -95.001 -22.5s-53.167 -35.5 -73.5 -61.5s-36.166 -56.833 -47.499 -92.5s-17 -74.167 -17 -115.5c0 -42 5.66699 -80.833 17 -116.5s27.166 -66.5 47.499 -92.5s44.833 -46.5 73.5 -61.5s60.334 -22.5 95.001 -22.5h22v220h-73v73h220l-73 -73
v-220l73 -73h-156zM309 -232.002v79h-58v129h131v-159z" />
    <glyph glyph-name="gcommaaccent" unicode="&#x123;" horiz-adv-x="486" 
d="M46 -146v73h294v73h-294l147 146h-147v366h440l-74 -73v-293h-123l-86 -82h209v-210h-366zM341 441h-223v-229h223v229zM251.006 759.986v-78.9961h57.9971v-128.992h-130.992v158.991z" />
    <glyph glyph-name="Hbar" unicode="&#x126;" horiz-adv-x="486" 
d="M366 0v366h-220v-366h-73v658l-73 73h146v-113h220v113h73v-731h-73zM366 545h-220v-106h220v106z" />
    <glyph glyph-name="hbar" unicode="&#x127;" 
d="M340 0v439h-220v-439h-74v616h-46v73h46v42h74v-42h202v-73h-202v-104h293v-512h-73z" />
    <glyph glyph-name="Imacron" unicode="&#x12a;" horiz-adv-x="194" 
d="M74 0v658l-74 73h147v-731h-73zM-63 835v73h322v-73h-322z" />
    <glyph glyph-name="imacron" unicode="&#x12b;" horiz-adv-x="311" 
d="M119 0v512h74v-512h-74zM-4 616v73h322v-73h-322z" />
    <glyph glyph-name="Ibreve" unicode="&#x12c;" horiz-adv-x="194" 
d="M74 0v658l-74 73h147v-731h-73zM-32 796v171h68v-104h124v104h68v-171h-260z" />
    <glyph glyph-name="ibreve" unicode="&#x12d;" horiz-adv-x="251" 
d="M89 0v512h74v-512h-74zM-3 577v171h68v-104h124v104h68v-171h-260z" />
    <glyph glyph-name="Iogonek" unicode="&#x12e;" horiz-adv-x="194" 
d="M120 -232c-104.667 0 -162.334 49.001 -173.001 147.001l127 85v658l-74 73h147v-731l-122 -90c5.33301 -24.667 15.333 -42.334 30 -53.001s36.334 -16 65.001 -16h27v-73h-27z" />
    <glyph glyph-name="iogonek" unicode="&#x12f;" horiz-adv-x="166" 
d="M93 -232c-104.667 0 -162.334 49.001 -173.001 147.001l126 85v512h74v-512l-122 -90c5.33301 -24.667 15.333 -42.334 30 -53.001s36.334 -16 65.001 -16h27v-73h-27zM-25 641.001v90h153v-90h-153z" />
    <glyph glyph-name="Idotaccent" unicode="&#x130;" horiz-adv-x="194" 
d="M74 0v658l-74 73h147v-731h-73zM51 843v90h91v-90h-91z" />
    <glyph glyph-name="dotlessi" unicode="&#x131;" horiz-adv-x="166" 
d="M46 0v512h74v-512h-74z" />
    <glyph glyph-name="IJ" unicode="&#x132;" horiz-adv-x="610" 
d="M74 0v658l-74 73h147v-731h-73zM492 658l-72.001 73.001h146v-537c0 -28.667 -4.33301 -55.334 -13 -80.001s-21 -46 -37 -64s-35.167 -32.167 -57.5 -42.5s-46.833 -15.5 -73.5 -15.5c-29.333 0 -55.333 5.16699 -78 15.5s-41.667 24.333 -57 42
s-27.166 37.667 -35.499 60s-12.5 45.5 -12.5 69.5v41h72v-43c0 -38 9.83301 -66.667 29.5 -86s46.5 -29 80.5 -29c32 0 58 11.333 78 34s30 55 30 97v465z" />
    <glyph glyph-name="ij" unicode="&#x133;" horiz-adv-x="350" 
d="M38 641v90h90v-90h-90zM46 0v512h74v-512h-74zM219 641v90h91v-90h-91zM81 -146l-0.000976562 73.002h46c34.667 0 60.167 7.16699 76.5 21.5s24.5 33.166 24.5 56.499v507h73v-509c0 -20.667 -4.5 -40 -13.5 -58s-21.167 -33.833 -36.5 -47.5
s-33.666 -24.334 -54.999 -32.001s-44.333 -11.5 -69 -11.5h-46z" />
    <glyph glyph-name="Kcommaaccent" unicode="&#x136;" horiz-adv-x="450" 
d="M351 0l-205 369v-369h-73v658l-73 73h146v-314l210 314h83l-224 -328l224 -403h-88zM237 -232v79h-58v129h131v-159z" />
    <glyph glyph-name="kcommaaccent" unicode="&#x137;" 
d="M339 0l-219 241v-241h-74v731h74v-439l217 220h92l-242 -240l248 -272h-96zM209 -232v79h-58v129h131v-159z" />
    <glyph glyph-name="Lacute" unicode="&#x139;" horiz-adv-x="379" 
d="M73 0v658l-73 73h146v-658h220v-73h-293zM89 793l110 174h91l-124 -174h-77z" />
    <glyph glyph-name="lacute" unicode="&#x13a;" horiz-adv-x="166" 
d="M46 0v731h74v-731h-74zM34 793l110 174h91l-124 -174h-77z" />
    <glyph glyph-name="Lcommaaccent" unicode="&#x13b;" horiz-adv-x="379" 
d="M73 0v658l-73 73h146v-658h220v-73h-293zM212 -232v79h-58v129h131v-159z" />
    <glyph glyph-name="lcommaaccent" unicode="&#x13c;" horiz-adv-x="166" 
d="M46 0v731h74v-731h-74zM77 -232v79h-58v129h131v-159z" />
    <glyph glyph-name="Lcaron" unicode="&#x13d;" horiz-adv-x="379" 
d="M73 0v658l-73 73h146v-658h220v-73h-293zM241 523v79h-58v129h131v-159z" />
    <glyph glyph-name="lcaron" unicode="&#x13e;" horiz-adv-x="291" 
d="M46 0v731h74v-731h-74zM218 523v79h-58v129h131v-159z" />
    <glyph glyph-name="Ldot" unicode="&#x13f;" horiz-adv-x="379" 
d="M73 0v658l-73 73h146v-658h220v-73h-293zM177 336v90h91v-90h-91z" />
    <glyph glyph-name="ldot" unicode="&#x140;" horiz-adv-x="251" 
d="M46 0v731h74v-731h-74zM160 341v90h91v-90h-91z" />
    <glyph glyph-name="Lslash" unicode="&#x141;" horiz-adv-x="379" 
d="M73 0v482l-73 -25v81l73 25v95l-73 73h146v-142l159 56v-81l-159 -55v-436h220v-73h-293z" />
    <glyph glyph-name="lslash" unicode="&#x142;" horiz-adv-x="288" 
d="M101 0v326l-109 -38v81l109 38v324h73v-298l123 44v-81l-123 -44v-352h-73z" />
    <glyph glyph-name="Nacute" unicode="&#x143;" horiz-adv-x="485" 
d="M370 0l-228 544v-544h-69v658l-73 73h147l222 -533v533h70v-731h-69zM192 793l110 174h91l-124 -174h-77z" />
    <glyph glyph-name="nacute" unicode="&#x144;" 
d="M340 0v439h-220v-439h-74v585l74 -73h293v-512h-73zM179 574l110 174h91l-124 -174h-77z" />
    <glyph glyph-name="Ncommaaccent" unicode="&#x145;" horiz-adv-x="485" 
d="M370 0l-228 544v-544h-69v658l-73 73h147l222 -533v533h70v-731h-69zM235 -232v79h-58v129h131v-159z" />
    <glyph glyph-name="ncommaaccent" unicode="&#x146;" 
d="M340 0v439h-220v-439h-74v585l74 -73h293v-512h-73zM222 -232v79h-58v129h131v-159z" />
    <glyph glyph-name="Ncaron" unicode="&#x147;" horiz-adv-x="485" 
d="M370 0l-228 544v-544h-69v658l-73 73h147l222 -533v533h70v-731h-69zM204 793l-124 174h91l71 -114l72 114h90l-123 -174h-77z" />
    <glyph glyph-name="ncaron" unicode="&#x148;" 
d="M340 0v439h-220v-439h-74v585l74 -73h293v-512h-73zM192 574l-124 174h91l71 -114l72 114h90l-123 -174h-77z" />
    <glyph glyph-name="Eng" unicode="&#x14a;" horiz-adv-x="485" 
d="M219 -146v73h46c34 0 59.667 7 77 21s26.333 32 27 54l-227 542v-544h-69v658l-73 73h147l222 -533v533h70v-731c0 -20 -4.5 -39 -13.5 -57s-21.333 -33.5 -37 -46.5s-34 -23.333 -55 -31s-43.833 -11.5 -68.5 -11.5h-46z" />
    <glyph glyph-name="eng" unicode="&#x14b;" 
d="M193 -146v73.001h46c34.667 0 60.167 7.16699 76.5 21.5s24.5 33.166 24.5 56.499v434h-220v-439h-74v585l74 -73h293v-512c0 -20 -4.5 -39 -13.5 -57s-21.333 -33.5 -37 -46.5s-34 -23.333 -55 -31s-43.833 -11.5 -68.5 -11.5h-46z" />
    <glyph glyph-name="Omacron" unicode="&#x14c;" horiz-adv-x="697" 
d="M357 -8c-54.667 0 -102.498 10.332 -143.498 30.999s-75.167 48.334 -102.5 83.001s-47.833 74.5 -61.5 119.5s-20.5 91.833 -20.5 140.5c0 52 7.5 100.667 22.5 146s36.333 84.833 64 118.5s61.167 60.167 100.5 79.5s83 29 131 29
c47.333 0 90.666 -9.33301 129.999 -28s73.166 -44.667 101.499 -78s50.333 -72.666 66 -117.999s23.5 -95 23.5 -149c0 -52 -7.16699 -100.833 -21.5 -146.5s-34.833 -85.334 -61.5 -119.001s-59.167 -60.167 -97.5 -79.5s-81.833 -29 -130.5 -29zM350.002 59.999
c38.667 0 73.1641 8.16602 103.497 24.499s56 38.5 77 66.5s37 60.5 48 97.5s16.5 76.167 16.5 117.5c0 42.667 -5.66699 82.667 -17 120s-27.666 69.833 -48.999 97.5s-47.5 49.334 -78.5 65.001s-65.833 23.5 -104.5 23.5c-37.333 0 -70.833 -8.16699 -100.5 -24.5
s-55 -38.333 -76 -66s-37 -60 -48 -97s-16.5 -76.5 -16.5 -118.5c0 -40.667 5.33301 -79.5 16 -116.5s26.334 -69.5 47.001 -97.5s46.334 -50.333 77.001 -67s65.667 -25 105 -25zM186.999 834.998v73h322v-73h-322z" />
    <glyph glyph-name="omacron" unicode="&#x14d;" horiz-adv-x="544" 
d="M272 -8c-40 0 -75.499 7.16699 -106.499 21.5s-56.833 33.666 -77.5 57.999s-36.334 52.666 -47.001 84.999s-16 66.833 -16 103.5c0 37.333 5.33301 71.833 16 103.5s26.5 59.167 47.5 82.5s46.833 41.666 77.5 54.999s66 20 106 20s75.5 -6.66699 106.5 -20
s56.833 -31.666 77.5 -54.999s36.334 -50.833 47.001 -82.5s16 -66.167 16 -103.5c0 -36.667 -5.33301 -71.167 -16 -103.5s-26.334 -60.666 -47.001 -84.999s-46.5 -43.666 -77.5 -57.999s-66.5 -21.5 -106.5 -21.5zM272.001 64c26 0 49.499 4.66699 70.499 14
s38.833 22.5 53.5 39.5s26 37.333 34 61s12 49.834 12 78.501s-3.83301 54.834 -11.5 78.501s-18.667 43.834 -33 60.501s-32.166 29.5 -53.499 38.5s-45.333 13.5 -72 13.5c-27.333 0 -51.5 -4.5 -72.5 -13.5s-38.667 -21.833 -53 -38.5s-25.333 -36.834 -33 -60.501
s-11.5 -49.834 -11.5 -78.501s4 -54.834 12 -78.501s19.333 -44 34 -61s32.5 -30.167 53.5 -39.5s44.5 -14 70.5 -14zM111 616v73h322v-73h-322z" />
    <glyph glyph-name="Obreve" unicode="&#x14e;" horiz-adv-x="697" 
d="M357 -8c-54.667 0 -102.498 10.332 -143.498 30.999s-75.167 48.334 -102.5 83.001s-47.833 74.5 -61.5 119.5s-20.5 91.833 -20.5 140.5c0 52 7.5 100.667 22.5 146s36.333 84.833 64 118.5s61.167 60.167 100.5 79.5s83 29 131 29
c47.333 0 90.666 -9.33301 129.999 -28s73.166 -44.667 101.499 -78s50.333 -72.666 66 -117.999s23.5 -95 23.5 -149c0 -52 -7.16699 -100.833 -21.5 -146.5s-34.833 -85.334 -61.5 -119.001s-59.167 -60.167 -97.5 -79.5s-81.833 -29 -130.5 -29zM350.002 59.999
c38.667 0 73.1641 8.16602 103.497 24.499s56 38.5 77 66.5s37 60.5 48 97.5s16.5 76.167 16.5 117.5c0 42.667 -5.66699 82.667 -17 120s-27.666 69.833 -48.999 97.5s-47.5 49.334 -78.5 65.001s-65.833 23.5 -104.5 23.5c-37.333 0 -70.833 -8.16699 -100.5 -24.5
s-55 -38.333 -76 -66s-37 -60 -48 -97s-16.5 -76.5 -16.5 -118.5c0 -40.667 5.33301 -79.5 16 -116.5s26.334 -69.5 47.001 -97.5s46.334 -50.333 77.001 -67s65.667 -25 105 -25zM217.999 795.998v171h68v-104h124v104h68v-171h-260z" />
    <glyph glyph-name="obreve" unicode="&#x14f;" horiz-adv-x="544" 
d="M272 -8c-40 0 -75.499 7.16699 -106.499 21.5s-56.833 33.666 -77.5 57.999s-36.334 52.666 -47.001 84.999s-16 66.833 -16 103.5c0 37.333 5.33301 71.833 16 103.5s26.5 59.167 47.5 82.5s46.833 41.666 77.5 54.999s66 20 106 20s75.5 -6.66699 106.5 -20
s56.833 -31.666 77.5 -54.999s36.334 -50.833 47.001 -82.5s16 -66.167 16 -103.5c0 -36.667 -5.33301 -71.167 -16 -103.5s-26.334 -60.666 -47.001 -84.999s-46.5 -43.666 -77.5 -57.999s-66.5 -21.5 -106.5 -21.5zM272.001 64c26 0 49.499 4.66699 70.499 14
s38.833 22.5 53.5 39.5s26 37.333 34 61s12 49.834 12 78.501s-3.83301 54.834 -11.5 78.501s-18.667 43.834 -33 60.501s-32.166 29.5 -53.499 38.5s-45.333 13.5 -72 13.5c-27.333 0 -51.5 -4.5 -72.5 -13.5s-38.667 -21.833 -53 -38.5s-25.333 -36.834 -33 -60.501
s-11.5 -49.834 -11.5 -78.501s4 -54.834 12 -78.501s19.333 -44 34 -61s32.5 -30.167 53.5 -39.5s44.5 -14 70.5 -14zM142 577v171h68v-104h124v104h68v-171h-260z" />
    <glyph glyph-name="Ohungarumlaut" unicode="&#x150;" horiz-adv-x="697" 
d="M357 -8c-54.667 0 -102.498 10.332 -143.498 30.999s-75.167 48.334 -102.5 83.001s-47.833 74.5 -61.5 119.5s-20.5 91.833 -20.5 140.5c0 52 7.5 100.667 22.5 146s36.333 84.833 64 118.5s61.167 60.167 100.5 79.5s83 29 131 29
c47.333 0 90.666 -9.33301 129.999 -28s73.166 -44.667 101.499 -78s50.333 -72.666 66 -117.999s23.5 -95 23.5 -149c0 -52 -7.16699 -100.833 -21.5 -146.5s-34.833 -85.334 -61.5 -119.001s-59.167 -60.167 -97.5 -79.5s-81.833 -29 -130.5 -29zM350.002 59.999
c38.667 0 73.1641 8.16602 103.497 24.499s56 38.5 77 66.5s37 60.5 48 97.5s16.5 76.167 16.5 117.5c0 42.667 -5.66699 82.667 -17 120s-27.666 69.833 -48.999 97.5s-47.5 49.334 -78.5 65.001s-65.833 23.5 -104.5 23.5c-37.333 0 -70.833 -8.16699 -100.5 -24.5
s-55 -38.333 -76 -66s-37 -60 -48 -97s-16.5 -76.5 -16.5 -118.5c0 -40.667 5.33301 -79.5 16 -116.5s26.334 -69.5 47.001 -97.5s46.334 -50.333 77.001 -67s65.667 -25 105 -25zM379.999 792.998l110 174h90l-123 -174h-77zM215.999 792.998l110 174h91l-124 -174h-77z
" />
    <glyph glyph-name="ohungarumlaut" unicode="&#x151;" horiz-adv-x="544" 
d="M272 -8c-40 0 -75.499 7.16699 -106.499 21.5s-56.833 33.666 -77.5 57.999s-36.334 52.666 -47.001 84.999s-16 66.833 -16 103.5c0 37.333 5.33301 71.833 16 103.5s26.5 59.167 47.5 82.5s46.833 41.666 77.5 54.999s66 20 106 20s75.5 -6.66699 106.5 -20
s56.833 -31.666 77.5 -54.999s36.334 -50.833 47.001 -82.5s16 -66.167 16 -103.5c0 -36.667 -5.33301 -71.167 -16 -103.5s-26.334 -60.666 -47.001 -84.999s-46.5 -43.666 -77.5 -57.999s-66.5 -21.5 -106.5 -21.5zM272.001 64c26 0 49.499 4.66699 70.499 14
s38.833 22.5 53.5 39.5s26 37.333 34 61s12 49.834 12 78.501s-3.83301 54.834 -11.5 78.501s-18.667 43.834 -33 60.501s-32.166 29.5 -53.499 38.5s-45.333 13.5 -72 13.5c-27.333 0 -51.5 -4.5 -72.5 -13.5s-38.667 -21.833 -53 -38.5s-25.333 -36.834 -33 -60.501
s-11.5 -49.834 -11.5 -78.501s4 -54.834 12 -78.501s19.333 -44 34 -61s32.5 -30.167 53.5 -39.5s44.5 -14 70.5 -14zM304 574l110 174h90l-123 -174h-77zM140 574l110 174h91l-124 -174h-77z" />
    <glyph glyph-name="OE" unicode="&#x152;" horiz-adv-x="918" 
d="M599 0l-0.00292969 118.999c-27.333 -39.333 -61.166 -70.333 -101.499 -93s-87.166 -34 -140.499 -34c-54.667 0 -102.5 10.333 -143.5 31s-75.167 48.334 -102.5 83.001s-47.833 74.5 -61.5 119.5s-20.5 91.833 -20.5 140.5c0 52 7.5 100.667 22.5 146
s36.333 84.833 64 118.5s61.167 60.167 100.5 79.5s83 29 131 29c54 0 102.333 -11.667 145 -35s78.334 -56 107.001 -98v52l-73 73h366v-73h-220v-219h184v-73h-184v-293h220v-73h-293zM349.997 59.999c38.667 0 73.1641 8.16602 103.497 24.499s56 38.5 77 66.5
s37 60.5 48 97.5s16.5 76.167 16.5 117.5c0 42.667 -5.66699 82.667 -17 120s-27.666 69.833 -48.999 97.5s-47.5 49.334 -78.5 65.001s-65.833 23.5 -104.5 23.5c-37.333 0 -70.833 -8.16699 -100.5 -24.5s-55 -38.333 -76 -66s-37 -60 -48 -97s-16.5 -76.5 -16.5 -118.5
c0 -40.667 5.33301 -79.5 16 -116.5s26.334 -69.5 47.001 -97.5s46.334 -50.333 77.001 -67s65.667 -25 105 -25z" />
    <glyph glyph-name="oe" unicode="&#x153;" horiz-adv-x="856" 
d="M446 0l0.000976562 60.0029c-21.333 -21.333 -46.333 -38 -75 -50s-61.667 -18 -99 -18c-40 0 -75.5 7.16699 -106.5 21.5s-56.833 33.666 -77.5 57.999s-36.334 52.666 -47.001 84.999s-16 66.833 -16 103.5c0 37.333 5.33301 71.833 16 103.5s26.5 59.167 47.5 82.5
s46.833 41.666 77.5 54.999s66 20 106 20c37.333 0 70.333 -5.66699 99 -17s53.667 -27 75 -47v55h366v-292h-293v-147h293v-73h-366zM272.001 64.0029c26 0 49.499 4.66699 70.499 14s38.833 22.5 53.5 39.5s26 37.333 34 61s12 49.834 12 78.501
s-3.83301 54.834 -11.5 78.501s-18.667 43.834 -33 60.501s-32.166 29.5 -53.499 38.5s-45.333 13.5 -72 13.5c-27.333 0 -51.5 -4.5 -72.5 -13.5s-38.667 -21.833 -53 -38.5s-25.333 -36.834 -33 -60.501s-11.5 -49.834 -11.5 -78.501s4 -54.834 12 -78.501
s19.333 -44 34 -61s32.5 -30.167 53.5 -39.5s44.5 -14 70.5 -14zM740 439.003h-221v-146h221v146z" />
    <glyph glyph-name="Racute" unicode="&#x154;" horiz-adv-x="479" 
d="M365 0l0.000976562 292c0 49.333 -30.333 74 -91 74h-129v-366h-72v658l-73 73h261c56.667 0 100.5 -16.167 131.5 -48.5s46.5 -75.833 46.5 -130.5c0 -38 -9 -68.667 -27 -92s-38 -39 -60 -47c11.333 -2 22.166 -6.5 32.499 -13.5s19.5 -15.667 27.5 -26
s14.5 -22.333 19.5 -36s7.5 -28.5 7.5 -44.5v-293h-74zM259.001 442c72.667 0 109 36.667 109 110c0 34 -9.66699 60.167 -29 78.5s-44.333 27.5 -75 27.5h-119v-216h114zM165.001 793l110 174h91l-124 -174h-77z" />
    <glyph glyph-name="racute" unicode="&#x155;" horiz-adv-x="313" 
d="M49 0v512h73v-62c36 41.333 81.333 62 136 62h44v-73c-6.66699 0.666992 -12.667 1.16699 -18 1.5s-10.666 0.5 -15.999 0.5c-62.667 0 -111.334 -25 -146.001 -75v-366h-73zM126 574l110 174h91l-124 -174h-77z" />
    <glyph glyph-name="Rcommaaccent" unicode="&#x156;" horiz-adv-x="479" 
d="M365 0l0.000976562 292c0 49.333 -30.333 74 -91 74h-129v-366h-72v658l-73 73h261c56.667 0 100.5 -16.167 131.5 -48.5s46.5 -75.833 46.5 -130.5c0 -38 -9 -68.667 -27 -92s-38 -39 -60 -47c11.333 -2 22.166 -6.5 32.499 -13.5s19.5 -15.667 27.5 -26
s14.5 -22.333 19.5 -36s7.5 -28.5 7.5 -44.5v-293h-74zM259.001 442c72.667 0 109 36.667 109 110c0 34 -9.66699 60.167 -29 78.5s-44.333 27.5 -75 27.5h-119v-216h114zM247.001 -232v79h-58v129h131v-159z" />
    <glyph glyph-name="rcommaaccent" unicode="&#x157;" horiz-adv-x="313" 
d="M49 0v512h73v-62c36 41.333 81.333 62 136 62h44v-73c-6.66699 0.666992 -12.667 1.16699 -18 1.5s-10.666 0.5 -15.999 0.5c-62.667 0 -111.334 -25 -146.001 -75v-366h-73zM80 -232v79h-58v129h131v-159z" />
    <glyph glyph-name="Rcaron" unicode="&#x158;" horiz-adv-x="479" 
d="M365 0l0.000976562 292c0 49.333 -30.333 74 -91 74h-129v-366h-72v658l-73 73h261c56.667 0 100.5 -16.167 131.5 -48.5s46.5 -75.833 46.5 -130.5c0 -38 -9 -68.667 -27 -92s-38 -39 -60 -47c11.333 -2 22.166 -6.5 32.499 -13.5s19.5 -15.667 27.5 -26
s14.5 -22.333 19.5 -36s7.5 -28.5 7.5 -44.5v-293h-74zM259.001 442c72.667 0 109 36.667 109 110c0 34 -9.66699 60.167 -29 78.5s-44.333 27.5 -75 27.5h-119v-216h114zM178.001 793l-124 174h91l71 -114l72 114h90l-123 -174h-77z" />
    <glyph glyph-name="rcaron" unicode="&#x159;" horiz-adv-x="313" 
d="M49 0v512h73v-62c36 41.333 81.333 62 136 62h44v-73c-6.66699 0.666992 -12.667 1.16699 -18 1.5s-10.666 0.5 -15.999 0.5c-62.667 0 -111.334 -25 -146.001 -75v-366h-73zM140 574l-124 174h91l71 -114l72 114h90l-123 -174h-77z" />
    <glyph glyph-name="Sacute" unicode="&#x15a;" horiz-adv-x="442" 
d="M38 0v73h293v293h-293v365h367v-73h-293v-219h293v-439h-367zM170 793l110 174h91l-124 -174h-77z" />
    <glyph glyph-name="sacute" unicode="&#x15b;" horiz-adv-x="450" 
d="M41 0v73h293v147h-292v292h363v-73h-289v-146h291v-293h-366zM174 574l110 174h91l-124 -174h-77z" />
    <glyph glyph-name="Scedilla" unicode="&#x15e;" horiz-adv-x="442" 
d="M38 0v73h293v293h-293v365h367v-73h-293v-219h293v-439h-367zM213 -232v79h-58v129h131v-159z" />
    <glyph glyph-name="scedilla" unicode="&#x15f;" horiz-adv-x="450" 
d="M41 0v73h293v147h-292v292h363v-73h-289v-146h291v-293h-366zM217 -232v79h-58v129h131v-159z" />
    <glyph glyph-name="Scaron" unicode="&#x160;" horiz-adv-x="442" 
d="M38 0v73h293v293h-293v365h367v-73h-293v-219h293v-439h-367zM183 793l-124 174h91l71 -114l72 114h90l-123 -174h-77z" />
    <glyph glyph-name="scaron" unicode="&#x161;" horiz-adv-x="450" 
d="M41 0v73h293v147h-292v292h363v-73h-289v-146h291v-293h-366zM187 574l-124 174h91l71 -114l72 114h90l-123 -174h-77z" />
    <glyph glyph-name="Tcedilla" unicode="&#x162;" horiz-adv-x="390" 
d="M158 0v658h-146v73h366v-73h-147v-658h-73zM187 -232v79h-58v129h131v-159z" />
    <glyph glyph-name="tcedilla" unicode="&#x163;" horiz-adv-x="272" 
d="M235 0c-52 0 -93.668 11.668 -125.001 35.001s-47 60.666 -47 111.999v292h-50v73h50v146l73 73v-219h83v-73h-83v-287c0 -29.333 9.33301 -49.833 28 -61.5s42.334 -17.5 71.001 -17.5h27v-73h-27zM147.999 -231.999v79h-58v129h131v-159z" />
    <glyph glyph-name="Tcaron" unicode="&#x164;" horiz-adv-x="390" 
d="M158 0v658h-146v73h366v-73h-147v-658h-73zM158 793l-124 174h91l71 -114l72 114h90l-123 -174h-77z" />
    <glyph glyph-name="tcaron" unicode="&#x165;" horiz-adv-x="314" 
d="M235 0c-52 0 -93.668 11.668 -125.001 35.001s-47 60.666 -47 111.999v292h-50v73h50v146l73 73v-219h83v-73h-83v-287c0 -29.333 9.33301 -49.833 28 -61.5s42.334 -17.5 71.001 -17.5h27v-73h-27zM240.999 523.001v79h-58v129h131v-159z" />
    <glyph glyph-name="Tbar" unicode="&#x166;" horiz-adv-x="390" 
d="M158 0v512h-74v73h74v73h-146v73h366v-73h-147v-73h74v-73h-74v-512h-73z" />
    <glyph glyph-name="tbar" unicode="&#x167;" horiz-adv-x="272" 
d="M235 0c-52 0 -93.668 11.668 -125.001 35.001s-47 60.666 -47 111.999v107h-48v73h48v112h-50v73h50v146l73 73v-219h83v-73h-83v-112h81v-73h-81v-102c0 -29.333 9.33301 -49.833 28 -61.5s42.334 -17.5 71.001 -17.5h27v-73h-27z" />
    <glyph glyph-name="Utilde" unicode="&#x168;" horiz-adv-x="455" 
d="M336 731h74.999v-537c0 -32.667 -4.66699 -61.5 -14 -86.5s-22.166 -46 -38.499 -63s-36 -30 -59 -39s-47.833 -13.5 -74.5 -13.5s-51.167 4.5 -73.5 13.5s-41.5 22 -57.5 39s-28.333 38 -37 63s-13 53.833 -13 86.5v537h73v-542c0 -42 10.167 -73.667 30.5 -95
s46.5 -32 78.5 -32c34 0 60.833 10.667 80.5 32s29.5 53 29.5 95v542zM65.999 835v73h322v-73h-322z" />
    <glyph glyph-name="utilde" unicode="&#x169;" horiz-adv-x="486" 
d="M46 0v512h74v-439h220v439h73v-439l73 -73h-440zM62 616v73h322v-73h-322z" />
    <glyph glyph-name="Umacron" unicode="&#x16a;" horiz-adv-x="455" 
d="M336 731h74.999v-537c0 -32.667 -4.66699 -61.5 -14 -86.5s-22.166 -46 -38.499 -63s-36 -30 -59 -39s-47.833 -13.5 -74.5 -13.5s-51.167 4.5 -73.5 13.5s-41.5 22 -57.5 39s-28.333 38 -37 63s-13 53.833 -13 86.5v537h73v-542c0 -42 10.167 -73.667 30.5 -95
s46.5 -32 78.5 -32c34 0 60.833 10.667 80.5 32s29.5 53 29.5 95v542zM65.999 835v73h322v-73h-322z" />
    <glyph glyph-name="umacron" unicode="&#x16b;" horiz-adv-x="486" 
d="M46 0v512h74v-439h220v439h73v-439l73 -73h-440zM62 616v73h322v-73h-322z" />
    <glyph glyph-name="Ubreve" unicode="&#x16c;" horiz-adv-x="455" 
d="M336 731h74.999v-537c0 -32.667 -4.66699 -61.5 -14 -86.5s-22.166 -46 -38.499 -63s-36 -30 -59 -39s-47.833 -13.5 -74.5 -13.5s-51.167 4.5 -73.5 13.5s-41.5 22 -57.5 39s-28.333 38 -37 63s-13 53.833 -13 86.5v537h73v-542c0 -42 10.167 -73.667 30.5 -95
s46.5 -32 78.5 -32c34 0 60.833 10.667 80.5 32s29.5 53 29.5 95v542zM96.999 796v171h68v-104h124v104h68v-171h-260z" />
    <glyph glyph-name="ubreve" unicode="&#x16d;" horiz-adv-x="486" 
d="M46 0v512h74v-439h220v439h73v-439l73 -73h-440zM93 577v171h68v-104h124v104h68v-171h-260z" />
    <glyph glyph-name="Uring" unicode="&#x16e;" horiz-adv-x="455" 
d="M336 731h74.999v-537c0 -32.667 -4.66699 -61.5 -14 -86.5s-22.166 -46 -38.499 -63s-36 -30 -59 -39s-47.833 -13.5 -74.5 -13.5s-51.167 4.5 -73.5 13.5s-41.5 22 -57.5 39s-28.333 38 -37 63s-13 53.833 -13 86.5v537h73v-542c0 -42 10.167 -73.667 30.5 -95
s46.5 -32 78.5 -32c34 0 60.833 10.667 80.5 32s29.5 53 29.5 95v542zM96.999 755v212h260v-212h-260zM288.999 900h-124v-80h124v80z" />
    <glyph glyph-name="uring" unicode="&#x16f;" horiz-adv-x="486" 
d="M46 0v512h74v-439h220v439h73v-439l73 -73h-440zM93 536v212h260v-212h-260zM285 681h-124v-80h124v80z" />
    <glyph glyph-name="Uhungarumlaut" unicode="&#x170;" horiz-adv-x="455" 
d="M336 731h74.999v-537c0 -32.667 -4.66699 -61.5 -14 -86.5s-22.166 -46 -38.499 -63s-36 -30 -59 -39s-47.833 -13.5 -74.5 -13.5s-51.167 4.5 -73.5 13.5s-41.5 22 -57.5 39s-28.333 38 -37 63s-13 53.833 -13 86.5v537h73v-542c0 -42 10.167 -73.667 30.5 -95
s46.5 -32 78.5 -32c34 0 60.833 10.667 80.5 32s29.5 53 29.5 95v542zM258.999 793l110 174h90l-123 -174h-77zM94.999 793l110 174h91l-124 -174h-77z" />
    <glyph glyph-name="uhungarumlaut" unicode="&#x171;" horiz-adv-x="486" 
d="M46 0v512h74v-439h220v439h73v-439l73 -73h-440zM255 574l110 174h90l-123 -174h-77zM91 574l110 174h91l-124 -174h-77z" />
    <glyph glyph-name="Uogonek" unicode="&#x172;" horiz-adv-x="455" 
d="M275 -232c-104.667 0 -162.334 49.002 -173.001 147.002l112 77c-50.667 2.66699 -91.667 21.167 -123 55.5s-47 83.166 -47 146.499v537h73v-542c0 -42 10.167 -73.667 30.5 -95s46.5 -32 78.5 -32c34 0 60.833 10.667 80.5 32s29.5 53 29.5 95v542h75v-537
c0 -40 -6.83301 -74 -20.5 -102s-32.167 -50.667 -55.5 -68l-155 -114c5.33301 -24.667 15.333 -42.334 30 -53.001s36.334 -16 65.001 -16h27v-73h-27z" />
    <glyph glyph-name="uogonek" unicode="&#x173;" horiz-adv-x="486" 
d="M459 -232c-104.667 0 -162.334 49.001 -173.001 147.001l126 85h-366v512h74v-439h220v439h73v-439l73 -73l-122 -90c5.33301 -24.667 15.333 -42.334 30 -53.001s36.334 -16 65.001 -16h27v-73h-27z" />
    <glyph glyph-name="Wcircumflex" unicode="&#x174;" horiz-adv-x="731" 
d="M73 0v731h73v-658h184v658h74v-658h181v658h73v-658l73 -73h-658zM437 793l-71 113l-72 -113h-91l124 174h77l123 -174h-90z" />
    <glyph glyph-name="wcircumflex" unicode="&#x175;" horiz-adv-x="700" 
d="M46 0v512h74v-439h184v439h74v-439h181v439h73v-439l73 -73h-659zM417 574l-71 113l-72 -113h-91l124 174h77l123 -174h-90z" />
    <glyph glyph-name="Ycircumflex" unicode="&#x176;" horiz-adv-x="466" 
d="M220 0v366h-147v292l-73 73h146v-292h220v292h73v-365h-146v-366h-73zM329 793l-71 113l-72 -113h-91l124 174h77l123 -174h-90z" />
    <glyph glyph-name="ycircumflex" unicode="&#x177;" 
d="M152 -146l0.000976562 71.998h116c25.333 0 43.666 4.83301 54.999 14.5s17 26.834 17 51.501v27h-294v493h74v-421h220v421h73v-520c0 -47.333 -13 -82.166 -39 -104.499s-61.333 -33.5 -106 -33.5h-116zM302.001 573.998l-71 113l-72 -113h-91l124 174h77l123 -174h-90
z" />
    <glyph glyph-name="Ydieresis" unicode="&#x178;" horiz-adv-x="466" 
d="M220 0v366h-147v292l-73 73h146v-292h220v292h73v-365h-146v-366h-73zM296 843v90h91v-90h-91zM127 843v90h91v-90h-91z" />
    <glyph glyph-name="Zacute" unicode="&#x179;" horiz-adv-x="408" 
d="M14 0v54l283 604h-273v73h360v-53l-274 -604h270v-74h-366zM159 793l110 174h91l-124 -174h-77z" />
    <glyph glyph-name="zacute" unicode="&#x17a;" horiz-adv-x="433" 
d="M35 0v60l263 379h-263v73h366v-50l-264 -389h264v-73h-366zM166 574l110 174h91l-124 -174h-77z" />
    <glyph glyph-name="Zdotaccent" unicode="&#x17b;" horiz-adv-x="408" 
d="M14 0v54l283 604h-273v73h360v-53l-274 -604h270v-74h-366zM169 843v90h91v-90h-91z" />
    <glyph glyph-name="zdotaccent" unicode="&#x17c;" horiz-adv-x="433" 
d="M35 0v60l263 379h-263v73h366v-50l-264 -389h264v-73h-366zM171 624v90h91v-90h-91z" />
    <glyph glyph-name="Zcaron" unicode="&#x17d;" horiz-adv-x="408" 
d="M14 0v54l283 604h-273v73h360v-53l-274 -604h270v-74h-366zM167 793l-124 174h91l71 -114l72 114h90l-123 -174h-77z" />
    <glyph glyph-name="zcaron" unicode="&#x17e;" horiz-adv-x="433" 
d="M35 0v60l263 379h-263v73h366v-50l-264 -389h264v-73h-366zM178 574l-124 174h91l71 -114l72 114h90l-123 -174h-77z" />
    <glyph glyph-name="Scommaaccent" unicode="&#x218;" horiz-adv-x="442" 
d="M38 0v73h293v293h-293v365h367v-73h-293v-219h293v-439h-367zM213 -232v79h-58v129h131v-159z" />
    <glyph glyph-name="scommaaccent" unicode="&#x219;" horiz-adv-x="450" 
d="M41 0v73h293v147h-292v292h363v-73h-289v-146h291v-293h-366zM217 -232v79h-58v129h131v-159z" />
    <glyph glyph-name="uni021A" unicode="&#x21a;" horiz-adv-x="390" 
d="M158 0v658h-146v73h366v-73h-147v-658h-73zM187 -232v79h-58v129h131v-159z" />
    <glyph glyph-name="uni021B" unicode="&#x21b;" horiz-adv-x="272" 
d="M235 0c-52 0 -93.668 11.668 -125.001 35.001s-47 60.666 -47 111.999v292h-50v73h50v146l73 73v-219h83v-73h-83v-287c0 -29.333 9.33301 -49.833 28 -61.5s42.334 -17.5 71.001 -17.5h27v-73h-27zM147.999 -231.999v79h-58v129h131v-159z" />
    <glyph glyph-name="circumflex" unicode="&#x2c6;" horiz-adv-x="417" 
d="M280 574l-71 113l-72 -113h-91l124 174h77l123 -174h-90z" />
    <glyph glyph-name="caron" unicode="&#x2c7;" horiz-adv-x="417" 
d="M170 574l-124 174h91l71 -114l72 114h90l-123 -174h-77z" />
    <glyph glyph-name="breve" unicode="&#x2d8;" horiz-adv-x="352" 
d="M46 577v171h68v-104h124v104h68v-171h-260z" />
    <glyph glyph-name="dotaccent" unicode="&#x2d9;" horiz-adv-x="183" 
d="M46 624v90h91v-90h-91z" />
    <glyph glyph-name="ring" unicode="&#x2da;" horiz-adv-x="352" 
d="M46 536v212h260v-212h-260zM238 681h-124v-80h124v80z" />
    <glyph glyph-name="ogonek" unicode="&#x2db;" horiz-adv-x="292" 
d="M219 -232c-104.667 0 -162.334 49.001 -173.001 147.001l126 85h74l-122 -90c5.33301 -24.667 15.333 -42.334 30 -53.001s36.334 -16 65.001 -16h27v-73h-27z" />
    <glyph glyph-name="tilde" unicode="&#x2dc;" horiz-adv-x="415" 
d="M46 616v73h322v-73h-322z" />
    <glyph glyph-name="hungarumlaut" unicode="&#x2dd;" horiz-adv-x="437" 
d="M210 574l110 174h90l-123 -174h-77zM46 574l110 174h91l-124 -174h-77z" />
    <glyph glyph-name="Wgrave" unicode="&#x1e80;" horiz-adv-x="731" 
d="M73 0v731h73v-658h184v658h74v-658h181v658h73v-658l73 -73h-658zM339 793l-124 174h91l110 -174h-77z" />
    <glyph glyph-name="wgrave" unicode="&#x1e81;" horiz-adv-x="700" 
d="M46 0v512h74v-439h184v439h74v-439h181v439h73v-439l73 -73h-659zM318 574l-124 174h91l110 -174h-77z" />
    <glyph glyph-name="Wacute" unicode="&#x1e82;" horiz-adv-x="731" 
d="M73 0v731h73v-658h184v658h74v-658h181v658h73v-658l73 -73h-658zM315 793l110 174h91l-124 -174h-77z" />
    <glyph glyph-name="wacute" unicode="&#x1e83;" horiz-adv-x="700" 
d="M46 0v512h74v-439h184v439h74v-439h181v439h73v-439l73 -73h-659zM294 574l110 174h91l-124 -174h-77z" />
    <glyph glyph-name="Wdieresis" unicode="&#x1e84;" horiz-adv-x="731" 
d="M73 0v731h73v-658h184v658h74v-658h181v658h73v-658l73 -73h-658zM404 843v90h91v-90h-91zM235 843v90h91v-90h-91z" />
    <glyph glyph-name="wdieresis" unicode="&#x1e85;" horiz-adv-x="700" 
d="M46 0v512h74v-439h184v439h74v-439h181v439h73v-439l73 -73h-659zM384 624v90h91v-90h-91zM215 624v90h91v-90h-91z" />
    <glyph glyph-name="Ygrave" unicode="&#x1ef2;" horiz-adv-x="466" 
d="M220 0v366h-147v292l-73 73h146v-292h220v292h73v-365h-146v-366h-73zM232 793l-124 174h91l110 -174h-77z" />
    <glyph glyph-name="ygrave" unicode="&#x1ef3;" 
d="M152 -146l0.000976562 71.998h116c25.333 0 43.666 4.83301 54.999 14.5s17 26.834 17 51.501v27h-294v493h74v-421h220v421h73v-520c0 -47.333 -13 -82.166 -39 -104.499s-61.333 -33.5 -106 -33.5h-116zM203.001 573.998l-124 174h91l110 -174h-77z" />
    <glyph glyph-name="endash" unicode="&#x2013;" horiz-adv-x="457" 
d="M27 293v72h402v-72h-402z" />
    <glyph glyph-name="emdash" unicode="&#x2014;" horiz-adv-x="634" 
d="M27 293v73h580v-73h-580z" />
    <glyph glyph-name="quoteleft" unicode="&#x2018;" horiz-adv-x="238" 
d="M46 536v218h146v-147h-73v-145z" />
    <glyph glyph-name="quoteright" unicode="&#x2019;" horiz-adv-x="240" 
d="M121 607h-75v147h148v-218l-73 -74v145z" />
    <glyph glyph-name="quotesinglbase" unicode="&#x201a;" horiz-adv-x="240" 
d="M121 0h-75v146h148v-219l-73 -73v146z" />
    <glyph glyph-name="quotedblleft" unicode="&#x201c;" horiz-adv-x="476" 
d="M46 536v218h146v-147h-73v-145zM284 536v218h146v-147h-73v-145z" />
    <glyph glyph-name="quotedblright" unicode="&#x201d;" horiz-adv-x="480" 
d="M121 607h-75v147h148v-218l-73 -74v145zM361 607h-75v147h148v-218l-73 -74v145z" />
    <glyph glyph-name="quotedblbase" unicode="&#x201e;" horiz-adv-x="480" 
d="M121 0h-75v146h148v-219l-73 -73v146zM361 0h-75v146h148v-219l-73 -73v146z" />
    <glyph glyph-name="dagger" unicode="&#x2020;" horiz-adv-x="428" 
d="M177 0v513h-147v72h147v146h74v-146h146v-72h-146v-513h-74z" />
    <glyph glyph-name="daggerdbl" unicode="&#x2021;" horiz-adv-x="428" 
d="M177 0v146h-147v73h147v294h-147v72h147v146h74v-146h146v-72h-146v-294h146v-73h-146v-146h-74z" />
    <glyph glyph-name="bullet" unicode="&#x2022;" horiz-adv-x="444" 
d="M46 177v350h351v-350h-351z" />
    <glyph glyph-name="ellipsis" unicode="&#x2026;" horiz-adv-x="920" 
d="M56 0v146h148v-146h-148zM386 0v146h148v-146h-148zM716 0v146h148v-146h-148z" />
    <glyph glyph-name="perthousand" unicode="&#x2030;" horiz-adv-x="932" 
d="M46 326v405h209v-405h-209zM204 680h-106v-303h106v303zM70 0l475 731h71l-475 -731h-71zM424 0v405h209v-405h-209zM582 354h-106v-303h106v303zM676 0v405h209v-405h-209zM834 354h-106v-303h106v303z" />
    <glyph glyph-name="guilsinglleft" unicode="&#x2039;" horiz-adv-x="211" 
d="M9 308l141 140l51 -52l-89 -88l89 -89l-51 -52z" />
    <glyph glyph-name="guilsinglright" unicode="&#x203a;" horiz-adv-x="211" 
d="M9 219l89 89l-89 88l52 52l140 -140l-140 -141z" />
    <glyph glyph-name="fraction" unicode="&#x2044;" horiz-adv-x="216" 
d="M-165 0l475 731h71l-475 -731h-71z" />
    <glyph glyph-name="zerosuperior" unicode="&#x2070;" horiz-adv-x="283" 
d="M35 326v405h209v-405h-209zM193 680h-106v-303h106v303z" />
    <glyph glyph-name="foursuperior" unicode="&#x2074;" horiz-adv-x="275" 
d="M185 326v196h-157v209h51v-158h106v118h51v-365h-51z" />
    <glyph glyph-name="fivesuperior" unicode="&#x2075;" horiz-adv-x="283" 
d="M35 326v51h158v145h-158v209h209v-51h-157v-107h157v-247h-209z" />
    <glyph glyph-name="sixsuperior" unicode="&#x2076;" horiz-adv-x="283" 
d="M35 326v405h209v-51h-157v-107h157v-247h-209zM193 522h-106v-145h106v145z" />
    <glyph glyph-name="sevensuperior" unicode="&#x2077;" horiz-adv-x="267" 
d="M102 326v161l78 98v95h-157v51h209v-162l-79 -97v-146h-51z" />
    <glyph glyph-name="eightsuperior" unicode="&#x2078;" horiz-adv-x="283" 
d="M35 326v405h209v-405h-209zM193 680h-106v-107h106v107zM193 522h-106v-145h106v145z" />
    <glyph glyph-name="ninesuperior" unicode="&#x2079;" horiz-adv-x="283" 
d="M35 326v51h158v145h-158v209h209v-405h-209zM193 680h-106v-107h106v107z" />
    <glyph glyph-name="zeroinferior" unicode="&#x2080;" horiz-adv-x="283" 
d="M35 0v405h209v-405h-209zM193 354h-106v-303h106v303z" />
    <glyph glyph-name="oneinferior" unicode="&#x2081;" horiz-adv-x="137" 
d="M50 0v358l-48 47h98v-405h-50z" />
    <glyph glyph-name="twoinferior" unicode="&#x2082;" horiz-adv-x="283" 
d="M35 0v247h158v107h-158v51h209v-209h-157v-145h157v-51h-209z" />
    <glyph glyph-name="threeinferior" unicode="&#x2083;" horiz-adv-x="274" 
d="M26 0v51h158v145h-158v51h158v107h-158v51h209v-405h-209z" />
    <glyph glyph-name="fourinferior" unicode="&#x2084;" horiz-adv-x="275" 
d="M185 0v196h-157v209h51v-158h106v118h51v-365h-51z" />
    <glyph glyph-name="fiveinferior" unicode="&#x2085;" horiz-adv-x="283" 
d="M35 0v51h158v145h-158v209h209v-51h-157v-107h157v-247h-209z" />
    <glyph glyph-name="sixinferior" unicode="&#x2086;" horiz-adv-x="283" 
d="M35 0v405h209v-51h-157v-107h157v-247h-209zM193 196h-106v-145h106v145z" />
    <glyph glyph-name="seveninferior" unicode="&#x2087;" horiz-adv-x="267" 
d="M102 0v161l78 98v95h-157v51h209v-162l-79 -97v-146h-51z" />
    <glyph glyph-name="eightinferior" unicode="&#x2088;" horiz-adv-x="283" 
d="M35 0v405h209v-405h-209zM193 354h-106v-107h106v107zM193 196h-106v-145h106v145z" />
    <glyph glyph-name="nineinferior" unicode="&#x2089;" horiz-adv-x="283" 
d="M35 0v51h158v145h-158v209h209v-405h-209zM193 354h-106v-107h106v107z" />
    <glyph glyph-name="Euro" unicode="&#x20ac;" horiz-adv-x="471" 
d="M79 0v262h-73v73h73v86h-73v72h73v238h366v-73h-293v-165h147v-72h-147v-86h147v-73h-147v-188h293v-74h-366z" />
    <glyph glyph-name="trademark" unicode="&#x2122;" horiz-adv-x="827" 
d="M142 331v348h-104v52h260v-52h-104v-348h-52zM705 331v348h-128v-348h-51v348h-134v-348h-51v400h468l-52 -52v-348h-52z" />
    <glyph glyph-name="onethird" unicode="&#x2153;" horiz-adv-x="709" 
d="M124 326v358l-48 47h98v-405h-50zM46 0l475 731h71l-475 -731h-71zM453 0v51h158v145h-158v51h158v107h-158v51h209v-405h-209z" />
    <glyph glyph-name="twothirds" unicode="&#x2154;" horiz-adv-x="792" 
d="M46 326v247h158v107h-158v51h209v-209h-157v-145h157v-51h-209zM129 0l475 731h71l-475 -731h-71zM536 0v51h158v145h-158v51h158v107h-158v51h209v-405h-209z" />
    <glyph glyph-name="oneeighth" unicode="&#x215b;" horiz-adv-x="718" 
d="M124 326v358l-48 47h98v-405h-50zM46 0l475 731h71l-475 -731h-71zM462 0v405h209v-405h-209zM620 354h-106v-107h106v107zM620 196h-106v-145h106v145z" />
    <glyph glyph-name="threeeighths" unicode="&#x215c;" horiz-adv-x="801" 
d="M46 326v51h158v145h-158v51h158v107h-158v51h209v-405h-209zM129 0l475 731h71l-475 -731h-71zM545 0v405h209v-405h-209zM703 354h-106v-107h106v107zM703 196h-106v-145h106v145z" />
    <glyph glyph-name="fiveeighths" unicode="&#x215d;" horiz-adv-x="801" 
d="M46 326v51h158v145h-158v209h209v-51h-157v-107h157v-247h-209zM129 0l475 731h71l-475 -731h-71zM545 0v405h209v-405h-209zM703 354h-106v-107h106v107zM703 196h-106v-145h106v145z" />
    <glyph glyph-name="seveneighths" unicode="&#x215e;" horiz-adv-x="738" 
d="M125 326v161l78 98v95h-157v51h209v-162l-79 -97v-146h-51zM66 0l475 731h71l-475 -731h-71zM482 0v405h209v-405h-209zM640 354h-106v-107h106v107zM640 196h-106v-145h106v145z" />
    <glyph glyph-name="minus" unicode="&#x2212;" 
d="M46 293v73h367v-73h-367z" />
    <glyph glyph-name="approxequal" unicode="&#x2248;" horiz-adv-x="441" 
d="M184 144v146h-73v-146h-74v219h221v-146h72v146h74v-219h-220zM184 443v146h-73v-146h-74v219h221v-146h72v146h74v-219h-220z" />
    <glyph glyph-name="notequal" unicode="&#x2260;" horiz-adv-x="386" 
d="M172 220l-75 -183h-71l75 183h-55v73h85l30 73h-115v73h145l75 184h71l-75 -184h78v-73h-108l-30 -73h138v-73h-168z" />
    <glyph glyph-name="lessequal" unicode="&#x2264;" horiz-adv-x="352" 
d="M46 308l208 206l51 -52l-155 -154l155 -156l-51 -51zM-5 1v73h367v-73h-367z" />
    <glyph glyph-name="greaterequal" unicode="&#x2265;" horiz-adv-x="352" 
d="M46 152l156 156l-156 154l52 52l207 -206l-207 -207zM-5 1v73h367v-73h-367z" />
    <glyph glyph-name=".null" horiz-adv-x="0" 
 />
    <glyph glyph-name="nonmarkingreturn" horiz-adv-x="243" 
 />
    <glyph glyph-name=".ttfautohint" horiz-adv-x="243" 
d="M0 0z" />
    </font>
</defs>
</svg>
