<?xml version="1.0" standalone="no"?>
<!DOCTYPE svg PUBLIC "-//W3C//DTD SVG 1.1//EN" "http://www.w3.org/Graphics/SVG/1.1/DTD/svg11.dtd" >
<svg>
<metadata>
Created by FontForge 20090914 at Tue May  5 10:45:46 2015
 By www-data
(c) 1999-2012 Typodermic Fonts Inc. See attached license agreement. If agreement is missing visit typodermicfonts.com for more info.
</metadata>
<defs>
<font id="EdenMills-Bold" horiz-adv-x="481" >
  <font-face 
    font-family="Eden Mills"
    font-weight="700"
    font-stretch="normal"
    units-per-em="1000"
    panose-1="4 1 8 0 0 0 0 0 0 0"
    ascent="768"
    descent="-232"
    x-height="512"
    cap-height="731"
    bbox="-166 -232.002 891 958.001"
    underline-thickness="20"
    underline-position="-123"
    unicode-range="U+0017-U+2265"
  />
<missing-glyph horiz-adv-x="568" 
d="M109 -118c-54.667 0 -82 23.667 -82 71v774c0 48 27.333 72 82 72h349c55.333 0 83 -24 83 -72v-774c0 -47.333 -27.667 -71 -83 -71h-349zM504 663l-303 81l-21 -75l229 -62l-61 -226l-152 41l-77 -280l77 -21l55 205l151 -41zM182 36l-93 26l-26 -92l95 -26z" />
    <glyph glyph-name="copyright" unicode="&#x28;C&#x29;" horiz-adv-x="708" 
d="M362 -8c-55.333 0 -103.501 10.3311 -144.501 30.998s-75.167 48.334 -102.5 83.001s-47.833 74.5 -61.5 119.5s-20.5 91.833 -20.5 140.5c0 52 7.5 100.667 22.5 146s36.5 84.833 64.5 118.5s61.667 60.167 101 79.5s83.333 29 132 29c48 0 91.667 -9.33301 131 -28
s73.333 -44.667 102 -78s50.834 -72.666 66.501 -117.999s23.5 -95 23.5 -149c0 -52 -7.16699 -100.667 -21.5 -146s-35 -85 -62 -119s-60 -60.667 -99 -80s-82.833 -29 -131.5 -29zM355.999 62.998c40 0 75.833 8.16602 107.5 24.499s58.5 38.333 80.5 66
s38.667 59.834 50 96.501s17 75.334 17 116.001c0 42.667 -5.83301 82.5 -17.5 119.5s-28.667 69 -51 96s-49.5 48.333 -81.5 64s-68.333 23.5 -109 23.5c-39.333 0 -74.666 -8 -105.999 -24s-57.833 -37.833 -79.5 -65.5s-38.334 -59.834 -50.001 -96.501
s-17.5 -75.667 -17.5 -117c0 -40 5.66699 -78.333 17 -115s27.833 -69 49.5 -97s48.5 -50.167 80.5 -66.5s68.667 -24.5 110 -24.5zM367.999 159.997c-27.333 0 -52.333 5.16895 -75 15.502s-42 24.5 -58 42.5s-28.5 39.667 -37.5 65s-13.5 53 -13.5 83
s4.33301 57.5 13 82.5s21 46.667 37 65s35.333 32.666 58 42.999s48 15.5 76 15.5h57v-67h-66c-16 0 -30.5 -3.5 -43.5 -10.5s-24.333 -16.833 -34 -29.5s-17.167 -27.334 -22.5 -44.001s-8 -35 -8 -55s2.66699 -38.5 8 -55.5s12.833 -31.833 22.5 -44.5s21 -22.5 34 -29.5
s27.5 -10.5 43.5 -10.5h66v-66h-57z" />
    <glyph glyph-name="registered" unicode="&#x28;R&#x29;" horiz-adv-x="708" 
d="M362 -8c-55.333 0 -103.501 10.3311 -144.501 30.998s-75.167 48.334 -102.5 83.001s-47.833 74.5 -61.5 119.5s-20.5 91.833 -20.5 140.5c0 52 7.5 100.667 22.5 146s36.5 84.833 64.5 118.5s61.667 60.167 101 79.5s83.333 29 132 29c48 0 91.667 -9.33301 131 -28
s73.333 -44.667 102 -78s50.834 -72.666 66.501 -117.999s23.5 -95 23.5 -149c0 -52 -7.16699 -100.667 -21.5 -146s-35 -85 -62 -119s-60 -60.667 -99 -80s-82.833 -29 -131.5 -29zM355.999 62.998c40 0 75.833 8.16602 107.5 24.499s58.5 38.333 80.5 66
s38.667 59.834 50 96.501s17 75.334 17 116.001c0 42.667 -5.83301 82.5 -17.5 119.5s-28.667 69 -51 96s-49.5 48.333 -81.5 64s-68.333 23.5 -109 23.5c-39.333 0 -74.666 -8 -105.999 -24s-57.833 -37.833 -79.5 -65.5s-38.334 -59.834 -50.001 -96.501
s-17.5 -75.667 -17.5 -117c0 -40 5.66699 -78.333 17 -115s27.833 -69 49.5 -97s48.5 -50.167 80.5 -66.5s68.667 -24.5 110 -24.5zM401.999 159.997l-0.000976562 166.999c0 16.667 -11.333 25 -34 25h-53v-192h-66v353l-60 59h173c34 0 60.5 -9.66699 79.5 -29
s28.5 -46 28.5 -80c0 -16 -2.66699 -30 -8 -42s-12.666 -21.667 -21.999 -29c8 -6.66699 15 -15.667 21 -27s9 -23.666 9 -36.999v-168h-68zM359.998 419.996c29.333 0 44 14.334 44 43.001c0 13.333 -3.83301 23.666 -11.5 30.999s-17.5 11 -29.5 11h-48v-85h45z" />
    <glyph glyph-name=".notdef" horiz-adv-x="568" 
d="M109 -118c-54.667 0 -82 23.667 -82 71v774c0 48 27.333 72 82 72h349c55.333 0 83 -24 83 -72v-774c0 -47.333 -27.667 -71 -83 -71h-349zM504 663l-303 81l-21 -75l229 -62l-61 -226l-152 41l-77 -280l77 -21l55 205l151 -41zM182 36l-93 26l-26 -92l95 -26z" />
    <glyph glyph-name="uni0017" horiz-adv-x="234" 
 />
    <glyph glyph-name="space" unicode=" " horiz-adv-x="234" 
 />
    <glyph glyph-name="exclam" unicode="!" horiz-adv-x="198" 
d="M49 157v574h100v-574h-100zM41 0v115h116v-115h-116z" />
    <glyph glyph-name="quotedbl" unicode="&#x22;" horiz-adv-x="357" 
d="M49 506v249h99v-249h-99zM209 506v249h99v-249h-99z" />
    <glyph glyph-name="numbersign" unicode="#" horiz-adv-x="447" 
d="M244 140v142h-41v-142h-100v142h-70v99h70v41h-70v99h70v140h100v-140h41v140h99v-140h70v-99h-70v-41h70v-99h-70v-142h-99zM244 422h-41v-41h41v41z" />
    <glyph glyph-name="dollar" unicode="$" horiz-adv-x="466" 
d="M283 211v-71h-99v71h-142v99h282v42h-282v239h142v70h99v-70h141v-99h-283v-41h283v-240h-141z" />
    <glyph glyph-name="percent" unicode="%" horiz-adv-x="601" 
d="M49 492v239h241v-239h-241zM114 0l275 731h98l-274 -731h-99zM311 0v240h242v-240h-242z" />
    <glyph glyph-name="ampersand" unicode="&#x26;" horiz-adv-x="510" 
d="M43 0v451h70v280h241v-280h70v-99h-70v-253h140v-99h-451zM255 632h-42v-181h42v181zM255 352h-113v-253h113v253z" />
    <glyph glyph-name="quotesingle" unicode="'" horiz-adv-x="198" 
d="M49 506v249h99v-249h-99z" />
    <glyph glyph-name="parenleft" unicode="(" horiz-adv-x="252" 
d="M167 -77l-85 85v716l85 84l75 -74l-60 -59v-619l60 -60z" />
    <glyph glyph-name="parenright" unicode=")" horiz-adv-x="251" 
d="M11 -4l59 60v619l-59 59l74 74l83 -84v-716l-83 -85z" />
    <glyph glyph-name="asterisk" unicode="*" 
d="M240 134l-232 232l232 232l233 -232z" />
    <glyph glyph-name="plus" unicode="+" 
d="M191 140v142h-142v99h142v140h99v-140h141v-99h-141v-142h-99z" />
    <glyph glyph-name="comma" unicode="," horiz-adv-x="269" 
d="M121 0h-72v169h171v-231l-99 -99v161z" />
    <glyph glyph-name="hyphen" unicode="-" horiz-adv-x="303" 
d="M31 282v99h241v-99h-241z" />
    <glyph glyph-name="period" unicode="." horiz-adv-x="269" 
d="M49 0v169h171v-169h-171z" />
    <glyph glyph-name="slash" unicode="/" horiz-adv-x="371" 
d="M-1 0l275 731h98l-275 -731h-98z" />
    <glyph glyph-name="zero" unicode="0" 
d="M49 0v731h382v-731h-382zM332 632h-183v-533h183v533z" />
    <glyph glyph-name="one" unicode="1" horiz-adv-x="225" 
d="M76 0v640l-76 91h175v-731h-99z" />
    <glyph glyph-name="two" unicode="2" 
d="M49 0v451h283v181h-283v99h382v-379h-282v-253h282v-99h-382z" />
    <glyph glyph-name="three" unicode="3" horiz-adv-x="465" 
d="M34 0v99h282v253h-282v99h282v181h-282v99h381v-731h-381z" />
    <glyph glyph-name="four" unicode="4" horiz-adv-x="466" 
d="M317 0v352h-281v379h100v-280h181v210h100v-661h-100z" />
    <glyph glyph-name="five" unicode="5" 
d="M49 0v99h283v253h-283v379h382v-99h-282v-181h282v-451h-382z" />
    <glyph glyph-name="six" unicode="6" 
d="M49 0v731h382v-99h-282v-181h282v-451h-382zM332 352h-183v-253h183v253z" />
    <glyph glyph-name="seven" unicode="7" horiz-adv-x="453" 
d="M168 0v292l140 175v165h-281v99h381v-291l-141 -176v-264h-99z" />
    <glyph glyph-name="eight" unicode="8" 
d="M49 0v731h382v-731h-382zM332 632h-183v-181h183v181zM332 352h-183v-253h183v253z" />
    <glyph glyph-name="nine" unicode="9" 
d="M49 0v99h283v253h-283v379h382v-731h-382zM332 632h-183v-181h183v181z" />
    <glyph glyph-name="colon" unicode=":" horiz-adv-x="268" 
d="M49 282v169h170v-169h-170zM49 0v169h170v-169h-170z" />
    <glyph glyph-name="semicolon" unicode=";" horiz-adv-x="269" 
d="M49 282v169h171v-169h-171zM120 -62v62h-71v169h171v-330z" />
    <glyph glyph-name="less" unicode="&#x3c;" horiz-adv-x="377" 
d="M42 310l221 220l70 -72l-148 -148l148 -150l-70 -70z" />
    <glyph glyph-name="equal" unicode="=" horiz-adv-x="409" 
d="M49 372v99h311v-99h-311zM49 191v99h311v-99h-311z" />
    <glyph glyph-name="greater" unicode="&#x3e;" horiz-adv-x="377" 
d="M42 160l150 150l-150 148l71 72l220 -220l-220 -220z" />
    <glyph glyph-name="question" unicode="?" horiz-adv-x="372" 
d="M102 161v290h141v181h-211v99h310v-379h-140v-191h-100zM94 0v115h115v-115h-115z" />
    <glyph glyph-name="at" unicode="@" horiz-adv-x="619" 
d="M49 0v731h521v-520h-380v310h240v-169h-98v70h-43v-112h183v322h-324v-533h422v-99h-521z" />
    <glyph glyph-name="A" unicode="A" horiz-adv-x="476" 
d="M329 0v282h-182v-282h-100v531c0 33.333 4.83301 63 14.5 89s23 47.833 40 65.5s37.333 31 61 40s49.5 13.5 77.5 13.5s53.5 -4.5 76.5 -13.5s42.833 -22.333 59.5 -40s29.667 -39.5 39 -65.5s14 -55.667 14 -89v-531h-100zM329 535c0 34.667 -8.5 61.332 -25.5 79.999
s-38.833 28 -65.5 28c-28 0 -50.167 -9.16699 -66.5 -27.5s-24.5 -45.166 -24.5 -80.499v-154h182v154z" />
    <glyph glyph-name="B" unicode="B" horiz-adv-x="533" 
d="M75 0l-0.00390625 639.999l-75 91h257c29.333 0 55.833 -4.66699 79.5 -14s43.667 -22.166 60 -38.499s29 -36 38 -59s13.5 -47.833 13.5 -74.5c0 -24 -3.66699 -46.333 -11 -67s-18.666 -39.334 -33.999 -56.001c16 -9.33301 31 -20.666 45 -33.999
s26.167 -28.5 36.5 -45.5s18.5 -35.167 24.5 -54.5s9 -39 9 -59c0 -32.667 -4.66699 -63 -14 -91s-23.166 -52.167 -41.499 -72.5s-41.166 -36.333 -68.499 -48s-58.666 -17.5 -93.999 -17.5h-225zM263.996 453.999c30 0 52.167 8 66.5 24s21.5 38 21.5 66
c0 26 -9.33301 47.167 -28 63.5s-44.667 24.5 -78 24.5h-72v-178h90zM291.996 101.999c42 0 74.333 11.5 97 34.5s34 53.167 34 90.5c0 38 -12.167 68.333 -36.5 91s-55.833 34 -94.5 34h-118v-250h118z" />
    <glyph glyph-name="C" unicode="C" 
d="M357 0c-48 0 -91.999 9.16699 -131.999 27.5s-74.167 43.833 -102.5 76.5s-50.333 71.334 -66 116.001s-23.5 93.334 -23.5 146.001c0 52 7.66699 100.333 23 145s37.166 83.334 65.499 116.001s62.5 58.167 102.5 76.5s84.333 27.5 133 27.5h93v-99h-107
c-31.333 0 -59.666 -6.83301 -84.999 -20.5s-47.333 -32.334 -66 -56.001s-33 -51.667 -43 -84s-15 -67.5 -15 -105.5s5 -73.333 15 -106s24.333 -60.834 43 -84.501s40.667 -42.334 66 -56.001s53.666 -20.5 84.999 -20.5h107v-99h-93z" />
    <glyph glyph-name="D" unicode="D" horiz-adv-x="526" 
d="M75 0l-0.000976562 640.003l-75 91h168c48 0 92 -9.16699 132 -27.5s74.333 -43.833 103 -76.5s50.834 -71.334 66.501 -116.001s23.5 -93 23.5 -145c0 -52.667 -8 -101.334 -24 -146.001s-38.167 -83.334 -66.5 -116.001s-62.5 -58.167 -102.5 -76.5
s-84 -27.5 -132 -27.5h-93zM181.999 99.0029c31.333 0 59.833 6.83008 85.5 20.4971s47.667 32.334 66 56.001s32.5 51.834 42.5 84.501s15 68 15 106s-5 73.167 -15 105.5s-24.167 60.333 -42.5 84s-40.333 42.334 -66 56.001s-54.167 20.5 -85.5 20.5h-8v-533h8z" />
    <glyph glyph-name="E" unicode="E" horiz-adv-x="415" 
d="M75 0v640l-75 91h385v-99h-211v-181h177v-99h-177v-253h211v-99h-310z" />
    <glyph glyph-name="F" unicode="F" horiz-adv-x="399" 
d="M75 0v640l-75 91h385v-99h-211v-181h177v-99h-177v-352h-99z" />
    <glyph glyph-name="G" unicode="G" horiz-adv-x="531" 
d="M357 0c-48 0 -91.832 9.16699 -131.499 27.5s-73.834 43.833 -102.501 76.5s-50.834 71.334 -66.501 116.001s-23.5 93.334 -23.5 146.001c0 52 7.83301 100.333 23.5 145s37.667 83.334 66 116.001s62.333 58.167 102 76.5s83.834 27.5 132.501 27.5h94v-99h-107
c-31.333 0 -59.833 -6.83301 -85.5 -20.5s-47.667 -32.334 -66 -56.001s-32.5 -51.667 -42.5 -84s-15 -67.5 -15 -105.5s5 -73.333 15 -106s24.167 -60.834 42.5 -84.501s40.333 -42.334 66 -56.001s54.167 -20.5 85.5 -20.5h7v183h-70v99h250l-80 -92v-198l80 -91h-174z
" />
    <glyph glyph-name="H" unicode="H" horiz-adv-x="505" 
d="M357 0v352h-183v-352h-99v640l-75 91h174v-280h183v280h99v-731h-99z" />
    <glyph glyph-name="I" unicode="I" horiz-adv-x="225" 
d="M76 0v640l-76 91h175v-731h-99z" />
    <glyph glyph-name="J" unicode="J" horiz-adv-x="438" 
d="M291 640l-75 91.002h175v-530c0 -30 -4.5 -57.667 -13.5 -83s-21.833 -47.333 -38.5 -66s-36.5 -33.334 -59.5 -44.001s-48.5 -16 -76.5 -16c-30 0 -56.833 5.33301 -80.5 16s-43.667 25 -60 43s-28.833 38.667 -37.5 62s-13 47.666 -13 72.999v54h99v-55
c0 -32 8.16699 -56.167 24.5 -72.5s38.5 -24.5 66.5 -24.5c26.667 0 48.167 9.83301 64.5 29.5s24.5 47.167 24.5 82.5v440z" />
    <glyph glyph-name="K" unicode="K" horiz-adv-x="471" 
d="M348 0l-174 313v-313h-99v640l-75 91h174v-270l181 270h113l-226 -329l223 -402h-117z" />
    <glyph glyph-name="L" unicode="L" horiz-adv-x="403" 
d="M75 0v640l-75 91h174v-632h211v-99h-310z" />
    <glyph glyph-name="M" unicode="M" horiz-adv-x="716" 
d="M567 0v632h-149v-632h-100v632h-144v-632h-99v640l-75 91h666v-731h-99z" />
    <glyph glyph-name="N" unicode="N" horiz-adv-x="505" 
d="M365 0l-195 466v-466h-95v640l-75 91h170l189 -455v455h97v-731h-91z" />
    <glyph glyph-name="O" unicode="O" horiz-adv-x="708" 
d="M362 -8c-55.333 0 -103.501 10.3311 -144.501 30.998s-75.167 48.334 -102.5 83.001s-47.833 74.5 -61.5 119.5s-20.5 91.833 -20.5 140.5c0 52 7.5 100.667 22.5 146s36.5 84.833 64.5 118.5s61.667 60.167 101 79.5s83.333 29 132 29c48 0 91.667 -9.33301 131 -28
s73.333 -44.667 102 -78s50.834 -72.666 66.501 -117.999s23.5 -95 23.5 -149c0 -52 -7.16699 -100.667 -21.5 -146s-35 -85 -62 -119s-60 -60.667 -99 -80s-82.833 -29 -131.5 -29zM355.999 85.998c34.667 0 65.8311 7.50293 93.498 22.5029s50.834 35.167 69.501 60.5
s33 55 43 89s15 70 15 108c0 39.333 -5.16699 76.166 -15.5 110.499s-25.166 64 -44.499 89s-42.833 44.667 -70.5 59s-59.167 21.5 -94.5 21.5c-34 0 -64.333 -7.33301 -91 -22s-49.334 -34.834 -68.001 -60.501s-33 -55.5 -43 -89.5s-15 -70 -15 -108
c0 -37.333 4.83301 -72.833 14.5 -106.5s23.834 -63.334 42.501 -89.001s41.667 -46.167 69 -61.5s59 -23 95 -23z" />
    <glyph glyph-name="P" unicode="P" horiz-adv-x="474" 
d="M75 0v639.998l-75 91h249c30 0 57.5 -4.5 82.5 -13.5s46.5 -21.833 64.5 -38.5s32 -36.667 42 -60s15 -49.333 15 -78c0 -28 -4.83301 -53.667 -14.5 -77s-23.5 -43.166 -41.5 -59.499s-39.5 -29.166 -64.5 -38.499s-52.833 -14 -83.5 -14h-75v-352h-99zM269 451.998
c25.333 0 45.5 9.00098 60.5 27.001s22.5 40 22.5 66c0 25.333 -7.5 46.166 -22.5 62.499s-35.167 24.5 -60.5 24.5h-95v-180h95z" />
    <glyph glyph-name="Q" unicode="Q" horiz-adv-x="708" 
d="M545 0l-32.001 30.998c-43.333 -26 -93.666 -39 -150.999 -39c-55.333 0 -103.5 10.333 -144.5 31s-75.167 48.334 -102.5 83.001s-47.833 74.5 -61.5 119.5s-20.5 91.833 -20.5 140.5c0 52 7.5 100.667 22.5 146s36.5 84.833 64.5 118.5s61.667 60.167 101 79.5
s83.333 29 132 29c48 0 91.667 -9.33301 131 -28s73.333 -44.667 102 -78s50.834 -72.666 66.501 -117.999s23.5 -95 23.5 -149s-7.83301 -104.167 -23.5 -150.5s-37.834 -86.5 -66.501 -120.5l23 -23l26 -26l25.5 -25l21.5 -21h-137zM304.999 239.998l137.999 0.00292969
l73 -74c19.333 25.333 34.333 55 45 89s16 71 16 111c0 39.333 -5.16699 76.166 -15.5 110.499s-25.166 64 -44.499 89s-42.833 44.667 -70.5 59s-59.167 21.5 -94.5 21.5c-34 0 -64.333 -7.33301 -91 -22s-49.334 -34.834 -68.001 -60.501s-33 -55.5 -43 -89.5
s-15 -70 -15 -108c0 -37.333 4.83301 -72.833 14.5 -106.5s23.834 -63.334 42.501 -89.001s41.667 -46.167 69 -61.5s59 -23 95 -23c30.667 0 59 6 85 18z" />
    <glyph glyph-name="R" unicode="R" horiz-adv-x="499" 
d="M356 0l-0.000976562 295.001c0 38 -24.333 57 -73 57h-110v-352h-98v640l-75 91h270c58.667 0 104.334 -16.833 137.001 -50.5s49 -78.834 49 -135.501c0 -32 -6 -59 -18 -81s-27.333 -39 -46 -51c18.667 -10.667 34 -26 46 -46s18 -43.667 18 -71v-296h-100z
M267.999 454.001c60 0 90 30.333 90 91c0 28 -7.83301 49.5 -23.5 64.5s-36.167 22.5 -61.5 22.5h-100v-178h95z" />
    <glyph glyph-name="S" unicode="S" horiz-adv-x="463" 
d="M41 0v99h282v253h-282v379h382v-99h-282v-181h282v-451h-382z" />
    <glyph glyph-name="T" unicode="T" horiz-adv-x="413" 
d="M157 0v632h-141v99h381v-99h-141v-632h-99z" />
    <glyph glyph-name="U" unicode="U" horiz-adv-x="476" 
d="M328 731h100.999v-530c0 -34 -4.83301 -64 -14.5 -90s-23 -47.833 -40 -65.5s-37.5 -31 -61.5 -40s-50 -13.5 -78 -13.5s-53.5 4.5 -76.5 13.5s-42.667 22.333 -59 40s-29.166 39.5 -38.499 65.5s-14 56 -14 90v530h99v-535c0 -35.333 8.5 -62.166 25.5 -80.499
s38.5 -27.5 64.5 -27.5c28 0 50.333 9.16699 67 27.5s25 45.166 25 80.499v535z" />
    <glyph glyph-name="V" unicode="V" horiz-adv-x="520" 
d="M217 0l-205 731h108l144 -536l150 536h105l-210 -731h-92z" />
    <glyph glyph-name="W" unicode="W" horiz-adv-x="741" 
d="M75 0v731h99v-632h148v632h100v-632h145v632h99v-640l75 -91h-666z" />
    <glyph glyph-name="X" unicode="X" horiz-adv-x="550" 
d="M394 0l-118 274l-120 -274h-116l173 376l-165 355h116l115 -255l113 255h114l-167 -350l173 -381h-118z" />
    <glyph glyph-name="Y" unicode="Y" horiz-adv-x="486" 
d="M216 0v352h-141v288l-75 91h174v-280h183v280h99v-379h-141v-352h-99z" />
    <glyph glyph-name="Z" unicode="Z" horiz-adv-x="431" 
d="M18 0v70l264 562h-254v99h375v-69l-256 -562h252v-100h-381z" />
    <glyph glyph-name="bracketleft" unicode="[" horiz-adv-x="252" 
d="M82 -70v871h160v-92h-60v-687h60v-92h-160z" />
    <glyph glyph-name="backslash" unicode="\" horiz-adv-x="371" 
d="M274 0l-275 731h98l275 -731h-98z" />
    <glyph glyph-name="bracketright" unicode="]" horiz-adv-x="252" 
d="M9 -70v92h61v687h-61v92h160v-871h-160z" />
    <glyph glyph-name="asciicircum" unicode="^" horiz-adv-x="462" 
d="M232 604l-150 -148l-70 71l220 219l219 -219l-71 -71z" />
    <glyph glyph-name="underscore" unicode="_" horiz-adv-x="388" 
d="M4 -140v98h381v-98h-381z" />
    <glyph glyph-name="grave" unicode="`" horiz-adv-x="320" 
d="M175 572l-139 176h124l123 -176h-108z" />
    <glyph glyph-name="a" unicode="a" horiz-adv-x="485" 
d="M50 0v305h283v110h-283v97h381v-425l53 -87h-434zM333 207h-183v-110h183v110z" />
    <glyph glyph-name="b" unicode="b" horiz-adv-x="460" 
d="M140 0l-90.9971 -74.999v806h99v-219h58c32.667 0 63 -6.33301 91 -19s52.167 -30.167 72.5 -52.5s36.166 -49 47.499 -80s17 -64.5 17 -100.5s-5.83301 -69.667 -17.5 -101s-27.834 -58.833 -48.501 -82.5s-44.834 -42.334 -72.501 -56.001s-57.5 -20.5 -89.5 -20.5h-66
zM198.003 97.001c21.333 0 40.333 3.99902 57 11.999s30.667 19.167 42 33.5s20 31.333 26 51s9 40.834 9 63.501s-3 43.667 -9 63s-14.667 36 -26 50s-25.333 25 -42 33s-35.667 12 -57 12h-50v-318h50z" />
    <glyph glyph-name="c" unicode="c" horiz-adv-x="387" 
d="M275 0c-32.667 0 -63.166 6.83105 -91.499 20.498s-52.833 32.334 -73.5 56.001s-37 51.167 -49 82.5s-18 65 -18 101c0 36.667 6 70.334 18 101.001s28.5 57.167 49.5 79.5s45.5 39.833 73.5 52.5s58.333 19 91 19h83v-97h-82c-22 0 -41.167 -4.16699 -57.5 -12.5
s-29.833 -19.666 -40.5 -33.999s-18.667 -31 -24 -50s-8 -39.5 -8 -61.5c0 -22.667 2.66699 -43.834 8 -63.501s13.5 -36.667 24.5 -51s24.667 -25.5 41 -33.5s35.166 -12 56.499 -12h82v-97h-83z" />
    <glyph glyph-name="d" unicode="d" horiz-adv-x="486" 
d="M256 0c-32.667 0 -62.999 6.83203 -90.999 20.499s-52.333 32.334 -73 56.001s-36.834 51.167 -48.501 82.5s-17.5 65 -17.5 101s5.66699 69.5 17 100.5s27.333 57.667 48 80s45 39.833 73 52.5s58.667 19 92 19h56v219h99v-642l75 -89h-230zM312.001 414.999
l-49 0.000976562c-21.333 0 -40.166 -4 -56.499 -12s-30.166 -19 -41.499 -33s-20 -30.667 -26 -50s-9 -40.333 -9 -63s3 -43.834 9 -63.501s14.667 -36.667 26 -51s25.166 -25.5 41.499 -33.5s35.166 -12 56.499 -12h49v318z" />
    <glyph glyph-name="e" unicode="e" horiz-adv-x="477" 
d="M49 0v512h381v-305h-282v-110h282v-97h-381zM332 415h-184v-110h184v110z" />
    <glyph glyph-name="f" unicode="f" horiz-adv-x="308" 
d="M62 0l-0.000976562 414.999h-44v97h44v72c0 20.667 3.16699 39.834 9.5 57.501s16 33.167 29 46.5s29.333 23.833 49 31.5s42.834 11.5 69.501 11.5h84v-98h-84c-19.333 0 -33.833 -5.5 -43.5 -16.5s-14.5 -25.5 -14.5 -43.5v-61h71v-97h-71v-415h-99z" />
    <glyph glyph-name="g" unicode="g" horiz-adv-x="505" 
d="M49 -146v94h286v52h-292l141 138h-135v374h456l-75 -89v-285h-137l-53 -50h190v-234h-381zM335 420h-190v-194h190v194z" />
    <glyph glyph-name="h" unicode="h" 
d="M332 0v415h-183v-415h-100v731h100v-219h282v-512h-99z" />
    <glyph glyph-name="i" unicode="i" horiz-adv-x="198" 
d="M41 618v113h116v-113h-116zM49 0v512h100v-512h-100z" />
    <glyph glyph-name="j" unicode="j" horiz-adv-x="215" 
d="M56 618v113h116v-113h-116zM-77 -138v98h59c28 0 48.667 5.5 62 16.5s20 25.167 20 42.5v493h99v-495c0 -21.333 -4.5 -41.5 -13.5 -60.5s-21.667 -35.5 -38 -49.5s-35.5 -25 -57.5 -33s-46 -12 -72 -12h-59z" />
    <glyph glyph-name="k" unicode="k" 
d="M339 0l-190 205v-205h-100v731h100v-405l187 186h131l-248 -242l251 -270h-131z" />
    <glyph glyph-name="l" unicode="l" horiz-adv-x="198" 
d="M49 0v731h100v-731h-100z" />
    <glyph glyph-name="m" unicode="m" horiz-adv-x="690" 
d="M542 0v415h-150v-415h-99v415h-144v-415h-100v587l92 -75h500v-512h-99z" />
    <glyph glyph-name="n" unicode="n" 
d="M332 0v415h-183v-415h-100v587l92 -75h290v-512h-99z" />
    <glyph glyph-name="o" unicode="o" horiz-adv-x="561" 
d="M281 -8c-41.333 0 -77.667 7.16699 -109 21.5s-57.666 33.666 -78.999 57.999s-37.333 52.666 -48 84.999s-16 66.833 -16 103.5c0 37.333 5.5 71.833 16.5 103.5s27 59.167 48 82.5s47.167 41.666 78.5 54.999s67.666 20 108.999 20c40.667 0 76.667 -6.66699 108 -20
s57.666 -31.666 78.999 -54.999s37.333 -50.833 48 -82.5s16 -66.167 16 -103.5c0 -36.667 -5.33301 -71.167 -16 -103.5s-26.667 -60.666 -48 -84.999s-47.666 -43.666 -78.999 -57.999s-67.333 -21.5 -108 -21.5zM280.999 88c22.667 0 43.167 4.16602 61.5 12.499
s34 19.833 47 34.5s23 32.334 30 53.001s10.5 43.667 10.5 69c0 50 -13 90.333 -39 121s-62.667 46 -110 46c-48 0 -84.833 -15.333 -110.5 -46s-38.5 -71 -38.5 -121s13.333 -90.667 40 -122s63 -47 109 -47z" />
    <glyph glyph-name="p" unicode="p" horiz-adv-x="490" 
d="M76 -146l-0.00292969 569l-76 89h232c32 0 61.833 -6.83301 89.5 -20.5s51.834 -32.334 72.501 -56.001s36.834 -51.167 48.501 -82.5s17.5 -64.666 17.5 -99.999c0 -36.667 -5.66699 -70.5 -17 -101.5s-27.166 -57.667 -47.499 -80s-44.5 -39.833 -72.5 -52.5
s-58.333 -19 -91 -19h-58v-146h-98zM223.997 97c20.667 0 39.3311 3.99902 55.998 11.999s30.667 19 42 33s20 30.667 26 50s9 40.333 9 63s-3 43.834 -9 63.501s-14.667 36.667 -26 51s-25.166 25.5 -41.499 33.5s-35.166 12 -56.499 12h-50v-318h50z" />
    <glyph glyph-name="q" unicode="q" horiz-adv-x="460" 
d="M312 -146l-0.000976562 146h-56c-33.333 -0 -64 6.33301 -92 19s-52.333 30.167 -73 52.5s-36.667 49 -48 80s-17 64.833 -17 101.5c0 35.333 5.83301 68.666 17.5 99.999s27.834 58.833 48.501 82.5s45 42.334 73 56.001s58.333 20.5 91 20.5h64l91 74v-732h-99z
M311.999 415l-49 0.000976562c-21.333 0 -40.166 -4 -56.499 -12s-30.166 -19.167 -41.499 -33.5s-20 -31.333 -26 -51s-9 -40.834 -9 -63.501s3 -43.667 9 -63s14.667 -36 26 -50s25.166 -25 41.499 -33s35.166 -12 56.499 -12h49v318z" />
    <glyph glyph-name="r" unicode="r" horiz-adv-x="339" 
d="M52 0v512.001h99v-39c17.333 13.333 35.166 23.166 53.499 29.499s39.166 9.5 62.499 9.5h57v-97h-21c-5.33301 0.666992 -10.166 1.16699 -14.499 1.5s-8.16602 0.5 -11.499 0.5c-52 0 -94 -20.667 -126 -62v-355h-99z" />
    <glyph glyph-name="s" unicode="s" horiz-adv-x="471" 
d="M44 0v97h282v110h-281v305h378v-97h-278v-110h280v-305h-381z" />
    <glyph glyph-name="t" unicode="t" horiz-adv-x="300" 
d="M245 0c-54.667 0 -98.332 12.001 -130.999 36.001s-49 63 -49 117v262h-48v97h48v130l99 97v-227h80v-97h-80v-258c0 -22.667 7.66699 -38.334 23 -47.001s34.666 -13 57.999 -13h40v-97h-40z" />
    <glyph glyph-name="u" unicode="u" horiz-adv-x="505" 
d="M49 0v512h100v-415h183v415h99v-423l91 -89h-473z" />
    <glyph glyph-name="v" unicode="v" horiz-adv-x="413" 
d="M163 0l-159 512h112l95 -322l94 322h103l-153 -512h-92z" />
    <glyph glyph-name="w" unicode="w" horiz-adv-x="711" 
d="M49 0v512h100v-415h148v415h100v-415h145v415h99v-423l91 -89h-683z" />
    <glyph glyph-name="x" unicode="x" horiz-adv-x="492" 
d="M359 0l-113 184l-117 -184h-120l174 260l-167 252h122l109 -170l110 170h119l-168 -249l176 -263h-125z" />
    <glyph glyph-name="y" unicode="y" 
d="M151 -146v97h126c19.333 0 33.333 3.5 42 10.5s13 19.5 13 37.5v19h-283v494h100v-398h183v398h99v-513c0 -49.333 -13.833 -85.833 -41.5 -109.5s-65.167 -35.5 -112.5 -35.5h-126z" />
    <glyph glyph-name="z" unicode="z" horiz-adv-x="455" 
d="M38 0v76l241 339h-241v97h381v-65l-241 -350h241v-97h-381z" />
    <glyph glyph-name="braceleft" unicode="{" horiz-adv-x="252" 
d="M167 -77l-85 86v299l-60 59l60 59v298l85 84l75 -74l-60 -59v-268l-41 -41l41 -40v-269l60 -60z" />
    <glyph glyph-name="bar" unicode="|" horiz-adv-x="245" 
d="M72 -84v872h100v-872h-100z" />
    <glyph glyph-name="braceright" unicode="}" horiz-adv-x="252" 
d="M8 -3l60 60v269l41 40l-41 41v268l-60 59l75 74l85 -84v-298l60 -59l-60 -59v-299l-85 -86z" />
    <glyph glyph-name="asciitilde" unicode="~" horiz-adv-x="462" 
d="M182 282v140h-42v-140h-100v239h242v-140h40v140h100v-239h-240z" />
    <glyph glyph-name="nonbreakingspace" unicode="&#xa0;" horiz-adv-x="234" 
 />
    <glyph glyph-name="exclamdown" unicode="&#xa1;" horiz-adv-x="198" 
d="M49 -115v574h100v-574h-100zM41 501v115h116v-115h-116z" />
    <glyph glyph-name="cent" unicode="&#xa2;" horiz-adv-x="455" 
d="M283 211v-71h-100v71h-141v380h141v70h100v-70h141v-99h-283v-182h283v-99h-141z" />
    <glyph glyph-name="sterling" unicode="&#xa3;" horiz-adv-x="449" 
d="M16 0v99h118v253h-72v99h72v280h264v-99h-165v-181h70v-99h-70v-253h192v-99h-409z" />
    <glyph glyph-name="yen" unicode="&#xa5;" 
d="M191 0v70h-71v99h71v42h-71v99h71v112h-142v309h100v-210h183v210h99v-309h-141v-112h70v-99h-70v-42h70v-99h-70v-70h-99z" />
    <glyph glyph-name="brokenbar" unicode="&#xa6;" horiz-adv-x="245" 
d="M72 -84v343h100v-343h-100zM72 461v327h100v-327h-100z" />
    <glyph glyph-name="dieresis" unicode="&#xa8;" horiz-adv-x="377" 
d="M211 610v115h117v-115h-117zM49 610v115h116v-115h-116z" />
    <glyph glyph-name="ordfeminine" unicode="&#xaa;" horiz-adv-x="313" 
d="M39 427v191h153v35h-153v78h230v-239l56 -65h-286zM192 540h-74v-35h74v35z" />
    <glyph glyph-name="guillemotleft" unicode="&#xab;" horiz-adv-x="444" 
d="M7 310l157 155l70 -70l-86 -85l86 -85l-71 -71zM210 310l157 155l70 -70l-86 -85l86 -85l-71 -71z" />
    <glyph glyph-name="macron" unicode="&#xaf;" horiz-adv-x="437" 
d="M49 602v99h338v-99h-338z" />
    <glyph glyph-name="degree" unicode="&#xb0;" horiz-adv-x="365" 
d="M43 458v273h278v-273h-278zM228 638h-92v-87h92v87z" />
    <glyph glyph-name="plusminus" unicode="&#xb1;" 
d="M191 140v142h-142v99h142v140h99v-140h141v-99h-141v-142h-99zM49 1v99h382v-99h-382z" />
    <glyph glyph-name="twosuperior" unicode="&#xb2;" horiz-adv-x="310" 
d="M38 313v266h152v74h-152v78h230v-230h-151v-110h151v-78h-230z" />
    <glyph glyph-name="threesuperior" unicode="&#xb3;" horiz-adv-x="302" 
d="M30 313v78h152v110h-152v78h152v74h-152v78h229v-418h-229z" />
    <glyph glyph-name="acute" unicode="&#xb4;" horiz-adv-x="320" 
d="M37 572l123 176h124l-139 -176h-108z" />
    <glyph glyph-name="periodcentered" unicode="&#xb7;" horiz-adv-x="269" 
d="M49 268v169h171v-169h-171z" />
    <glyph glyph-name="cedilla" unicode="&#xb8;" horiz-adv-x="253" 
d="M105 -232v85h-56v122h155v-141z" />
    <glyph glyph-name="onesuperior" unicode="&#xb9;" horiz-adv-x="170" 
d="M53 313v352l-68 66h145v-418h-77z" />
    <glyph glyph-name="ordmasculine" unicode="&#xba;" horiz-adv-x="355" 
d="M176 429c-24 0 -45.167 4.16699 -63.5 12.5s-33.666 19.666 -45.999 33.999s-21.666 31.166 -27.999 50.499s-9.5 39.666 -9.5 60.999c0 22 3.16699 42.5 9.5 61.5s15.666 35.5 27.999 49.5s27.666 24.833 45.999 32.5s39.5 11.5 63.5 11.5s45.167 -3.83301 63.5 -11.5
s33.666 -18.5 45.999 -32.5s21.666 -30.5 27.999 -49.5s9.5 -39.5 9.5 -61.5c0 -21.333 -3.16699 -41.666 -9.5 -60.999s-15.666 -36.166 -27.999 -50.499s-27.666 -25.666 -45.999 -33.999s-39.5 -12.5 -63.5 -12.5zM176 505c20.667 0 37 7.5 49 22.5s18 34.167 18 57.5
s-5.83301 42.166 -17.5 56.499s-28.167 21.5 -49.5 21.5s-38 -7.16699 -50 -21.5s-18 -33.166 -18 -56.499s6.16699 -42.5 18.5 -57.5s28.833 -22.5 49.5 -22.5z" />
    <glyph glyph-name="guillemotright" unicode="&#xbb;" horiz-adv-x="444" 
d="M7 225l85 85l-85 85l71 71l155 -155l-155 -157zM210 225l85 85l-85 85l71 71l155 -155l-155 -157z" />
    <glyph glyph-name="onequarter" unicode="&#xbc;" horiz-adv-x="721" 
d="M124 313v352l-68 66h145v-418h-77zM37 0l475 731h103l-475 -731h-103zM593 0v188h-151v230h78v-152h73v114h77v-380h-77z" />
    <glyph glyph-name="onehalf" unicode="&#xbd;" horiz-adv-x="728" 
d="M124 313v352l-68 66h145v-418h-77zM37 0l475 731h103l-475 -731h-103zM448 0v266h152v74h-152v78h230v-230h-151v-110h151v-78h-230z" />
    <glyph glyph-name="threequarters" unicode="&#xbe;" horiz-adv-x="801" 
d="M49 313v78h152v110h-152v78h152v74h-152v78h229v-418h-229zM117 0l475 731h103l-475 -731h-103zM673 0v188h-151v230h78v-152h73v114h77v-380h-77z" />
    <glyph glyph-name="questiondown" unicode="&#xbf;" horiz-adv-x="372" 
d="M32 -115v379h140v191h100v-290h-141v-181h211v-99h-310zM164 501v115h116v-115h-116z" />
    <glyph glyph-name="Agrave" unicode="&#xc0;" horiz-adv-x="476" 
d="M329 0v282h-182v-282h-100v531c0 33.333 4.83301 63 14.5 89s23 47.833 40 65.5s37.333 31 61 40s49.5 13.5 77.5 13.5s53.5 -4.5 76.5 -13.5s42.833 -22.333 59.5 -40s29.667 -39.5 39 -65.5s14 -55.667 14 -89v-531h-100zM329 535c0 34.667 -8.5 61.332 -25.5 79.999
s-38.833 28 -65.5 28c-28 0 -50.167 -9.16699 -66.5 -27.5s-24.5 -45.166 -24.5 -80.499v-154h182v154zM205 781.998l-139 176h124l123 -176h-108z" />
    <glyph glyph-name="Aacute" unicode="&#xc1;" horiz-adv-x="476" 
d="M329 0v282h-182v-282h-100v531c0 33.333 4.83301 63 14.5 89s23 47.833 40 65.5s37.333 31 61 40s49.5 13.5 77.5 13.5s53.5 -4.5 76.5 -13.5s42.833 -22.333 59.5 -40s29.667 -39.5 39 -65.5s14 -55.667 14 -89v-531h-100zM329 535c0 34.667 -8.5 61.332 -25.5 79.999
s-38.833 28 -65.5 28c-28 0 -50.167 -9.16699 -66.5 -27.5s-24.5 -45.166 -24.5 -80.499v-154h182v154zM163 781.998l123 176h124l-139 -176h-108z" />
    <glyph glyph-name="Acircumflex" unicode="&#xc2;" horiz-adv-x="476" 
d="M329 0v282h-182v-282h-100v531c0 33.333 4.83301 63 14.5 89s23 47.833 40 65.5s37.333 31 61 40s49.5 13.5 77.5 13.5s53.5 -4.5 76.5 -13.5s42.833 -22.333 59.5 -40s29.667 -39.5 39 -65.5s14 -55.667 14 -89v-531h-100zM329 535c0 34.667 -8.5 61.332 -25.5 79.999
s-38.833 28 -65.5 28c-28 0 -50.167 -9.16699 -66.5 -27.5s-24.5 -45.166 -24.5 -80.499v-154h182v154zM298 781.998l-61 85l-60 -85h-123l139 176h89l139 -176h-123z" />
    <glyph glyph-name="Atilde" unicode="&#xc3;" horiz-adv-x="476" 
d="M329 0v282h-182v-282h-100v531c0 33.333 4.83301 63 14.5 89s23 47.833 40 65.5s37.333 31 61 40s49.5 13.5 77.5 13.5s53.5 -4.5 76.5 -13.5s42.833 -22.333 59.5 -40s29.667 -39.5 39 -65.5s14 -55.667 14 -89v-531h-100zM329 535c0 34.667 -8.5 61.332 -25.5 79.999
s-38.833 28 -65.5 28c-28 0 -50.167 -9.16699 -66.5 -27.5s-24.5 -45.166 -24.5 -80.499v-154h182v154zM68 811.998v99h338v-99h-338z" />
    <glyph glyph-name="Adieresis" unicode="&#xc4;" horiz-adv-x="476" 
d="M329 0v282h-182v-282h-100v531c0 33.333 4.83301 63 14.5 89s23 47.833 40 65.5s37.333 31 61 40s49.5 13.5 77.5 13.5s53.5 -4.5 76.5 -13.5s42.833 -22.333 59.5 -40s29.667 -39.5 39 -65.5s14 -55.667 14 -89v-531h-100zM329 535c0 34.667 -8.5 61.332 -25.5 79.999
s-38.833 28 -65.5 28c-28 0 -50.167 -9.16699 -66.5 -27.5s-24.5 -45.166 -24.5 -80.499v-154h182v154zM260 819.998v115h117v-115h-117zM98 819.998v115h116v-115h-116z" />
    <glyph glyph-name="Aring" unicode="&#xc5;" horiz-adv-x="476" 
d="M329 0v282h-182v-282h-100v531c0 33.333 4.83301 63 14.5 89s23 47.833 40 65.5s37.333 31 61 40s49.5 13.5 77.5 13.5s53.5 -4.5 76.5 -13.5s42.833 -22.333 59.5 -40s29.667 -39.5 39 -65.5s14 -55.667 14 -89v-531h-100zM329 535c0 34.667 -8.5 61.332 -25.5 79.999
s-38.833 28 -65.5 28c-28 0 -50.167 -9.16699 -66.5 -27.5s-24.5 -45.166 -24.5 -80.499v-154h182v154zM98 744.998v213h279v-213h-279zM313 893.998h-151v-88h151v88z" />
    <glyph glyph-name="AE" unicode="&#xc6;" horiz-adv-x="670" 
d="M329 0l0.000976562 282h-182v-282h-100v531c0 33.333 4.83301 63 14.5 89s23 47.833 40 65.5s37.333 31 61 40s49.5 13.5 77.5 13.5c10 0 19.667 -0.5 29 -1.5s18.666 -3.16699 27.999 -6.5h343v-99h-211v-181h176v-99h-176v-253h211v-99h-311zM329.001 535
c0 34.667 -8.5 61.332 -25.5 79.999s-38.833 28 -65.5 28c-28 0 -50.167 -9.16699 -66.5 -27.5s-24.5 -45.166 -24.5 -80.499v-154h182v154z" />
    <glyph glyph-name="Ccedilla" unicode="&#xc7;" 
d="M357 0c-48 0 -91.999 9.16699 -131.999 27.5s-74.167 43.833 -102.5 76.5s-50.333 71.334 -66 116.001s-23.5 93.334 -23.5 146.001c0 52 7.66699 100.333 23 145s37.166 83.334 65.499 116.001s62.5 58.167 102.5 76.5s84.333 27.5 133 27.5h93v-99h-107
c-31.333 0 -59.666 -6.83301 -84.999 -20.5s-47.333 -32.334 -66 -56.001s-33 -51.667 -43 -84s-15 -67.5 -15 -105.5s5 -73.333 15 -106s24.333 -60.834 43 -84.501s40.667 -42.334 66 -56.001s53.666 -20.5 84.999 -20.5h107v-99h-93zM321.001 -232v85h-56v122h155v-141z
" />
    <glyph glyph-name="Egrave" unicode="&#xc8;" horiz-adv-x="415" 
d="M75 0v640l-75 91h385v-99h-211v-181h177v-99h-177v-253h211v-99h-310zM185 782l-139 176h124l123 -176h-108z" />
    <glyph glyph-name="Eacute" unicode="&#xc9;" horiz-adv-x="415" 
d="M75 0v640l-75 91h385v-99h-211v-181h177v-99h-177v-253h211v-99h-310zM142 782l123 176h124l-139 -176h-108z" />
    <glyph glyph-name="Ecircumflex" unicode="&#xca;" horiz-adv-x="415" 
d="M75 0v640l-75 91h385v-99h-211v-181h177v-99h-177v-253h211v-99h-310zM279 782l-61 85l-60 -85h-123l139 176h89l139 -176h-123z" />
    <glyph glyph-name="Edieresis" unicode="&#xcb;" horiz-adv-x="415" 
d="M75 0v640l-75 91h385v-99h-211v-181h177v-99h-177v-253h211v-99h-310zM240 820v115h117v-115h-117zM78 820v115h116v-115h-116z" />
    <glyph glyph-name="Igrave" unicode="&#xcc;" horiz-adv-x="225" 
d="M76 0v640l-76 91h175v-731h-99zM81 782l-139 176h124l123 -176h-108z" />
    <glyph glyph-name="Iacute" unicode="&#xcd;" horiz-adv-x="225" 
d="M76 0v640l-76 91h175v-731h-99zM37 782l123 176h124l-139 -176h-108z" />
    <glyph glyph-name="Icircumflex" unicode="&#xce;" horiz-adv-x="225" 
d="M76 0v640l-76 91h175v-731h-99zM174 782l-61 85l-60 -85h-123l139 176h89l139 -176h-123z" />
    <glyph glyph-name="Idieresis" unicode="&#xcf;" horiz-adv-x="225" 
d="M76 0v640l-76 91h175v-731h-99zM136 820v115h117v-115h-117zM-26 820v115h116v-115h-116z" />
    <glyph glyph-name="Eth" unicode="&#xd0;" horiz-adv-x="526" 
d="M75 0l-0.000976562 353.003h-59v98h59v189l-75 91h168c48 0 92 -9.16699 132 -27.5s74.333 -43.833 103 -76.5s50.834 -71.334 66.501 -116.001s23.5 -93 23.5 -145c0 -52.667 -8 -101.334 -24 -146.001s-38.167 -83.334 -66.5 -116.001s-62.5 -58.167 -102.5 -76.5
s-84 -27.5 -132 -27.5h-93zM181.999 99.0029c31.333 0 59.833 6.83008 85.5 20.4971s47.667 32.334 66 56.001s32.5 51.834 42.5 84.501s15 68 15 106s-5 73.167 -15 105.5s-24.167 60.333 -42.5 84s-40.333 42.334 -66 56.001s-54.167 20.5 -85.5 20.5h-8v-181h181v-98
h-181v-254h8z" />
    <glyph glyph-name="Ntilde" unicode="&#xd1;" horiz-adv-x="505" 
d="M365 0l-195 466v-466h-95v640l-75 91h170l189 -455v455h97v-731h-91zM83 812v99h338v-99h-338z" />
    <glyph glyph-name="Ograve" unicode="&#xd2;" horiz-adv-x="708" 
d="M362 -8c-55.333 0 -103.501 10.3311 -144.501 30.998s-75.167 48.334 -102.5 83.001s-47.833 74.5 -61.5 119.5s-20.5 91.833 -20.5 140.5c0 52 7.5 100.667 22.5 146s36.5 84.833 64.5 118.5s61.667 60.167 101 79.5s83.333 29 132 29c48 0 91.667 -9.33301 131 -28
s73.333 -44.667 102 -78s50.834 -72.666 66.501 -117.999s23.5 -95 23.5 -149c0 -52 -7.16699 -100.667 -21.5 -146s-35 -85 -62 -119s-60 -60.667 -99 -80s-82.833 -29 -131.5 -29zM355.999 85.998c34.667 0 65.8311 7.50293 93.498 22.5029s50.834 35.167 69.501 60.5
s33 55 43 89s15 70 15 108c0 39.333 -5.16699 76.166 -15.5 110.499s-25.166 64 -44.499 89s-42.833 44.667 -70.5 59s-59.167 21.5 -94.5 21.5c-34 0 -64.333 -7.33301 -91 -22s-49.334 -34.834 -68.001 -60.501s-33 -55.5 -43 -89.5s-15 -70 -15 -108
c0 -37.333 4.83301 -72.833 14.5 -106.5s23.834 -63.334 42.501 -89.001s41.667 -46.167 69 -61.5s59 -23 95 -23zM320.996 782.001l-139 176h124l123 -176h-108z" />
    <glyph glyph-name="Oacute" unicode="&#xd3;" horiz-adv-x="708" 
d="M362 -8c-55.333 0 -103.501 10.3311 -144.501 30.998s-75.167 48.334 -102.5 83.001s-47.833 74.5 -61.5 119.5s-20.5 91.833 -20.5 140.5c0 52 7.5 100.667 22.5 146s36.5 84.833 64.5 118.5s61.667 60.167 101 79.5s83.333 29 132 29c48 0 91.667 -9.33301 131 -28
s73.333 -44.667 102 -78s50.834 -72.666 66.501 -117.999s23.5 -95 23.5 -149c0 -52 -7.16699 -100.667 -21.5 -146s-35 -85 -62 -119s-60 -60.667 -99 -80s-82.833 -29 -131.5 -29zM355.999 85.998c34.667 0 65.8311 7.50293 93.498 22.5029s50.834 35.167 69.501 60.5
s33 55 43 89s15 70 15 108c0 39.333 -5.16699 76.166 -15.5 110.499s-25.166 64 -44.499 89s-42.833 44.667 -70.5 59s-59.167 21.5 -94.5 21.5c-34 0 -64.333 -7.33301 -91 -22s-49.334 -34.834 -68.001 -60.501s-33 -55.5 -43 -89.5s-15 -70 -15 -108
c0 -37.333 4.83301 -72.833 14.5 -106.5s23.834 -63.334 42.501 -89.001s41.667 -46.167 69 -61.5s59 -23 95 -23zM278.996 782.001l123 176h124l-139 -176h-108z" />
    <glyph glyph-name="Ocircumflex" unicode="&#xd4;" horiz-adv-x="708" 
d="M362 -8c-55.333 0 -103.501 10.3311 -144.501 30.998s-75.167 48.334 -102.5 83.001s-47.833 74.5 -61.5 119.5s-20.5 91.833 -20.5 140.5c0 52 7.5 100.667 22.5 146s36.5 84.833 64.5 118.5s61.667 60.167 101 79.5s83.333 29 132 29c48 0 91.667 -9.33301 131 -28
s73.333 -44.667 102 -78s50.834 -72.666 66.501 -117.999s23.5 -95 23.5 -149c0 -52 -7.16699 -100.667 -21.5 -146s-35 -85 -62 -119s-60 -60.667 -99 -80s-82.833 -29 -131.5 -29zM355.999 85.998c34.667 0 65.8311 7.50293 93.498 22.5029s50.834 35.167 69.501 60.5
s33 55 43 89s15 70 15 108c0 39.333 -5.16699 76.166 -15.5 110.499s-25.166 64 -44.499 89s-42.833 44.667 -70.5 59s-59.167 21.5 -94.5 21.5c-34 0 -64.333 -7.33301 -91 -22s-49.334 -34.834 -68.001 -60.501s-33 -55.5 -43 -89.5s-15 -70 -15 -108
c0 -37.333 4.83301 -72.833 14.5 -106.5s23.834 -63.334 42.501 -89.001s41.667 -46.167 69 -61.5s59 -23 95 -23zM414.996 782.001l-61 85l-60 -85h-123l139 176h89l139 -176h-123z" />
    <glyph glyph-name="Otilde" unicode="&#xd5;" horiz-adv-x="708" 
d="M362 -8c-55.333 0 -103.501 10.3311 -144.501 30.998s-75.167 48.334 -102.5 83.001s-47.833 74.5 -61.5 119.5s-20.5 91.833 -20.5 140.5c0 52 7.5 100.667 22.5 146s36.5 84.833 64.5 118.5s61.667 60.167 101 79.5s83.333 29 132 29c48 0 91.667 -9.33301 131 -28
s73.333 -44.667 102 -78s50.834 -72.666 66.501 -117.999s23.5 -95 23.5 -149c0 -52 -7.16699 -100.667 -21.5 -146s-35 -85 -62 -119s-60 -60.667 -99 -80s-82.833 -29 -131.5 -29zM355.999 85.998c34.667 0 65.8311 7.50293 93.498 22.5029s50.834 35.167 69.501 60.5
s33 55 43 89s15 70 15 108c0 39.333 -5.16699 76.166 -15.5 110.499s-25.166 64 -44.499 89s-42.833 44.667 -70.5 59s-59.167 21.5 -94.5 21.5c-34 0 -64.333 -7.33301 -91 -22s-49.334 -34.834 -68.001 -60.501s-33 -55.5 -43 -89.5s-15 -70 -15 -108
c0 -37.333 4.83301 -72.833 14.5 -106.5s23.834 -63.334 42.501 -89.001s41.667 -46.167 69 -61.5s59 -23 95 -23zM184.996 812.001v99h338v-99h-338z" />
    <glyph glyph-name="Odieresis" unicode="&#xd6;" horiz-adv-x="708" 
d="M362 -8c-55.333 0 -103.501 10.3311 -144.501 30.998s-75.167 48.334 -102.5 83.001s-47.833 74.5 -61.5 119.5s-20.5 91.833 -20.5 140.5c0 52 7.5 100.667 22.5 146s36.5 84.833 64.5 118.5s61.667 60.167 101 79.5s83.333 29 132 29c48 0 91.667 -9.33301 131 -28
s73.333 -44.667 102 -78s50.834 -72.666 66.501 -117.999s23.5 -95 23.5 -149c0 -52 -7.16699 -100.667 -21.5 -146s-35 -85 -62 -119s-60 -60.667 -99 -80s-82.833 -29 -131.5 -29zM355.999 85.998c34.667 0 65.8311 7.50293 93.498 22.5029s50.834 35.167 69.501 60.5
s33 55 43 89s15 70 15 108c0 39.333 -5.16699 76.166 -15.5 110.499s-25.166 64 -44.499 89s-42.833 44.667 -70.5 59s-59.167 21.5 -94.5 21.5c-34 0 -64.333 -7.33301 -91 -22s-49.334 -34.834 -68.001 -60.501s-33 -55.5 -43 -89.5s-15 -70 -15 -108
c0 -37.333 4.83301 -72.833 14.5 -106.5s23.834 -63.334 42.501 -89.001s41.667 -46.167 69 -61.5s59 -23 95 -23zM375.996 820.001v115h117v-115h-117zM213.996 820.001v115h116v-115h-116z" />
    <glyph glyph-name="multiply" unicode="&#xd7;" 
d="M241 259l-100 -99l-71 72l100 100l-100 99l71 71l100 -100l99 99l71 -71l-100 -99l100 -99l-70 -72z" />
    <glyph glyph-name="Oslash" unicode="&#xd8;" horiz-adv-x="708" 
d="M98 -96l66.999 152.999c-44.667 34.667 -77.834 79.167 -99.501 133.5s-32.5 112.833 -32.5 175.5c0 52 7.5 100.667 22.5 146s36.5 84.833 64.5 118.5s61.667 60.167 101 79.5s83.333 29 132 29c38.667 0 74.667 -6 108 -18l48 106h100l-67 -152
c42.667 -34 75.667 -77.167 99 -129.5s35 -112.166 35 -179.499c0 -52 -7.16699 -100.667 -21.5 -146s-35 -85 -62 -119s-60 -60.667 -99 -80s-82.833 -29 -131.5 -29c-21.333 0 -41.666 1.66699 -60.999 5s-37.666 8 -54.999 14l-48 -107h-100zM500.999 583.999
l-107.503 -242.498l-108.5 -243.5c22.667 -8 46.334 -12 71.001 -12c34.667 0 65.834 7.5 93.501 22.5s50.834 35.167 69.501 60.5s33 55 43 89s15 70 15 108c0 45.333 -6.5 86.666 -19.5 123.999s-31.833 68.666 -56.5 93.999zM422.996 634.001
c-11.333 4 -22.667 7.00098 -34 9.00098s-23.666 3 -36.999 3c-34 0 -64.333 -7.33301 -91 -22s-49.334 -34.834 -68.001 -60.501s-33 -55.5 -43 -89.5s-15 -70 -15 -108c0 -42 6.16699 -81.833 18.5 -119.5s30.5 -69.5 54.5 -95.5l107.5 241z" />
    <glyph glyph-name="Ugrave" unicode="&#xd9;" horiz-adv-x="476" 
d="M328 731h100.999v-530c0 -34 -4.83301 -64 -14.5 -90s-23 -47.833 -40 -65.5s-37.5 -31 -61.5 -40s-50 -13.5 -78 -13.5s-53.5 4.5 -76.5 13.5s-42.667 22.333 -59 40s-29.166 39.5 -38.499 65.5s-14 56 -14 90v530h99v-535c0 -35.333 8.5 -62.166 25.5 -80.499
s38.5 -27.5 64.5 -27.5c28 0 50.333 9.16699 67 27.5s25 45.166 25 80.499v535zM204.999 782l-139 176h124l123 -176h-108z" />
    <glyph glyph-name="Uacute" unicode="&#xda;" horiz-adv-x="476" 
d="M328 731h100.999v-530c0 -34 -4.83301 -64 -14.5 -90s-23 -47.833 -40 -65.5s-37.5 -31 -61.5 -40s-50 -13.5 -78 -13.5s-53.5 4.5 -76.5 13.5s-42.667 22.333 -59 40s-29.166 39.5 -38.499 65.5s-14 56 -14 90v530h99v-535c0 -35.333 8.5 -62.166 25.5 -80.499
s38.5 -27.5 64.5 -27.5c28 0 50.333 9.16699 67 27.5s25 45.166 25 80.499v535zM162.999 782l123 176h124l-139 -176h-108z" />
    <glyph glyph-name="Ucircumflex" unicode="&#xdb;" horiz-adv-x="476" 
d="M328 731h100.999v-530c0 -34 -4.83301 -64 -14.5 -90s-23 -47.833 -40 -65.5s-37.5 -31 -61.5 -40s-50 -13.5 -78 -13.5s-53.5 4.5 -76.5 13.5s-42.667 22.333 -59 40s-29.166 39.5 -38.499 65.5s-14 56 -14 90v530h99v-535c0 -35.333 8.5 -62.166 25.5 -80.499
s38.5 -27.5 64.5 -27.5c28 0 50.333 9.16699 67 27.5s25 45.166 25 80.499v535zM297.999 782l-61 85l-60 -85h-123l139 176h89l139 -176h-123z" />
    <glyph glyph-name="Udieresis" unicode="&#xdc;" horiz-adv-x="476" 
d="M328 731h100.999v-530c0 -34 -4.83301 -64 -14.5 -90s-23 -47.833 -40 -65.5s-37.5 -31 -61.5 -40s-50 -13.5 -78 -13.5s-53.5 4.5 -76.5 13.5s-42.667 22.333 -59 40s-29.166 39.5 -38.499 65.5s-14 56 -14 90v530h99v-535c0 -35.333 8.5 -62.166 25.5 -80.499
s38.5 -27.5 64.5 -27.5c28 0 50.333 9.16699 67 27.5s25 45.166 25 80.499v535zM259.999 820v115h117v-115h-117zM97.999 820v115h116v-115h-116z" />
    <glyph glyph-name="Yacute" unicode="&#xdd;" horiz-adv-x="486" 
d="M216 0v352h-141v288l-75 91h174v-280h183v280h99v-379h-141v-352h-99zM192 782l123 176h124l-139 -176h-108z" />
    <glyph glyph-name="Thorn" unicode="&#xde;" horiz-adv-x="474" 
d="M75 0v640.001l-75 91h174v-162h75c30 0 57.5 -4.5 82.5 -13.5s46.5 -21.667 64.5 -38s32 -36.333 42 -60s15 -49.834 15 -78.501c0 -28 -4.83301 -53.667 -14.5 -77s-23.5 -43.333 -41.5 -60s-39.5 -29.667 -64.5 -39s-52.833 -14 -83.5 -14h-75v-189h-99zM269 289.001
c25.333 0 45.5 9.16797 60.5 27.501s22.5 40.166 22.5 65.499s-7.5 46.5 -22.5 63.5s-35.167 25.5 -60.5 25.5h-95v-182h95z" />
    <glyph glyph-name="germandbls" unicode="&#xdf;" horiz-adv-x="474" 
d="M191 0v97h141v249h-71v287h-112v-633h-100v731h311v-288h71v-443h-240z" />
    <glyph glyph-name="agrave" unicode="&#xe0;" horiz-adv-x="485" 
d="M50 0v305h283v110h-283v97h381v-425l53 -87h-434zM333 207h-183v-110h183v110zM210 572l-139 176h124l123 -176h-108z" />
    <glyph glyph-name="aacute" unicode="&#xe1;" horiz-adv-x="485" 
d="M50 0v305h283v110h-283v97h381v-425l53 -87h-434zM333 207h-183v-110h183v110zM168 572l123 176h124l-139 -176h-108z" />
    <glyph glyph-name="acircumflex" unicode="&#xe2;" horiz-adv-x="485" 
d="M50 0v305h283v110h-283v97h381v-425l53 -87h-434zM333 207h-183v-110h183v110zM303 572l-61 85l-60 -85h-123l139 176h89l139 -176h-123z" />
    <glyph glyph-name="atilde" unicode="&#xe3;" horiz-adv-x="485" 
d="M50 0v305h283v110h-283v97h381v-425l53 -87h-434zM333 207h-183v-110h183v110zM73 602v99h338v-99h-338z" />
    <glyph glyph-name="adieresis" unicode="&#xe4;" horiz-adv-x="485" 
d="M50 0v305h283v110h-283v97h381v-425l53 -87h-434zM333 207h-183v-110h183v110zM265 610v115h117v-115h-117zM103 610v115h116v-115h-116z" />
    <glyph glyph-name="aring" unicode="&#xe5;" horiz-adv-x="485" 
d="M50 0v305h283v110h-283v97h381v-425l53 -87h-434zM333 207h-183v-110h183v110zM103 535v213h279v-213h-279zM318 684h-151v-88h151v88z" />
    <glyph glyph-name="ae" unicode="&#xe6;" horiz-adv-x="760" 
d="M50 0v305h283v110h-283v97h663v-305h-282v-110h282v-97h-663zM333 207h-183v-110h183v110zM615 415h-184v-110h184v110z" />
    <glyph glyph-name="ccedilla" unicode="&#xe7;" horiz-adv-x="387" 
d="M275 0c-32.667 0 -63.166 6.83105 -91.499 20.498s-52.833 32.334 -73.5 56.001s-37 51.167 -49 82.5s-18 65 -18 101c0 36.667 6 70.334 18 101.001s28.5 57.167 49.5 79.5s45.5 39.833 73.5 52.5s58.333 19 91 19h83v-97h-82c-22 0 -41.167 -4.16699 -57.5 -12.5
s-29.833 -19.666 -40.5 -33.999s-18.667 -31 -24 -50s-8 -39.5 -8 -61.5c0 -22.667 2.66699 -43.834 8 -63.501s13.5 -36.667 24.5 -51s24.667 -25.5 41 -33.5s35.166 -12 56.499 -12h82v-97h-83zM230.001 -232.002v85h-56v122h155v-141z" />
    <glyph glyph-name="egrave" unicode="&#xe8;" horiz-adv-x="477" 
d="M49 0v512h381v-305h-282v-110h282v-97h-381zM332 415h-184v-110h184v110zM205 572l-139 176h124l123 -176h-108z" />
    <glyph glyph-name="eacute" unicode="&#xe9;" horiz-adv-x="477" 
d="M49 0v512h381v-305h-282v-110h282v-97h-381zM332 415h-184v-110h184v110zM163 572l123 176h124l-139 -176h-108z" />
    <glyph glyph-name="ecircumflex" unicode="&#xea;" horiz-adv-x="477" 
d="M49 0v512h381v-305h-282v-110h282v-97h-381zM332 415h-184v-110h184v110zM299 572l-61 85l-60 -85h-123l139 176h89l139 -176h-123z" />
    <glyph glyph-name="edieresis" unicode="&#xeb;" horiz-adv-x="477" 
d="M49 0v512h381v-305h-282v-110h282v-97h-381zM332 415h-184v-110h184v110zM261 610v115h117v-115h-117zM99 610v115h116v-115h-116z" />
    <glyph glyph-name="igrave" unicode="&#xec;" horiz-adv-x="234" 
d="M85 0v512h100v-512h-100zM103 572l-139 176h124l123 -176h-108z" />
    <glyph glyph-name="iacute" unicode="&#xed;" horiz-adv-x="249" 
d="M49 0v512h100v-512h-100zM26 572l123 176h124l-139 -176h-108z" />
    <glyph glyph-name="icircumflex" unicode="&#xee;" horiz-adv-x="318" 
d="M110 0v512h100v-512h-100zM221 572l-61 85l-60 -85h-123l139 176h89l139 -176h-123z" />
    <glyph glyph-name="idieresis" unicode="&#xef;" horiz-adv-x="263" 
d="M82 0v512h100v-512h-100zM155 610v115h117v-115h-117zM-7 610v115h116v-115h-116z" />
    <glyph glyph-name="eth" unicode="&#xf0;" horiz-adv-x="561" 
d="M532 260c0 -36.667 -5.33984 -71.166 -16.0068 -103.499s-26.667 -60.666 -48 -84.999s-47.666 -43.666 -78.999 -57.999s-67.333 -21.5 -108 -21.5c-41.333 0 -77.666 7.16699 -108.999 21.5s-57.666 33.666 -78.999 57.999s-37.333 52.666 -48 84.999
s-16 66.833 -16 103.5c0 34 4.83301 66.833 14.5 98.5s24.667 59.5 45 83.5s46.333 43.167 78 57.5s69.834 21.5 114.501 21.5c25.333 0 50 -3.33301 74 -10s46.667 -19.334 68 -38.001c-0.666992 14.667 -4.66699 28.667 -12 42s-16.666 25.833 -27.999 37.5
s-24 22.167 -38 31.5s-28 17.333 -42 24l-101 -79l-42 54l64 50h-111v98h94c38.667 0 76.334 -7.33301 113.001 -22l67 52l42 -54l-44 -35c44.667 -32.667 80.334 -76.167 107.001 -130.5s40 -114.833 40 -181.5v-100zM280.993 88.001c22.667 0 43.167 4.16602 61.5 12.499
s34 19.833 47 34.5s23 32.334 30 53.001s10.5 43.667 10.5 69c0 50 -13 90.333 -39 121s-62.667 46 -110 46c-48 0 -84.833 -15.333 -110.5 -46s-38.5 -71 -38.5 -121s13.333 -90.667 40 -122s63 -47 109 -47z" />
    <glyph glyph-name="ntilde" unicode="&#xf1;" 
d="M332 0v415h-183v-415h-100v587l92 -75h290v-512h-99zM71 602v99h338v-99h-338z" />
    <glyph glyph-name="ograve" unicode="&#xf2;" horiz-adv-x="561" 
d="M281 -8c-41.333 0 -77.667 7.16699 -109 21.5s-57.666 33.666 -78.999 57.999s-37.333 52.666 -48 84.999s-16 66.833 -16 103.5c0 37.333 5.5 71.833 16.5 103.5s27 59.167 48 82.5s47.167 41.666 78.5 54.999s67.666 20 108.999 20c40.667 0 76.667 -6.66699 108 -20
s57.666 -31.666 78.999 -54.999s37.333 -50.833 48 -82.5s16 -66.167 16 -103.5c0 -36.667 -5.33301 -71.167 -16 -103.5s-26.667 -60.666 -48 -84.999s-47.666 -43.666 -78.999 -57.999s-67.333 -21.5 -108 -21.5zM280.999 88c22.667 0 43.167 4.16602 61.5 12.499
s34 19.833 47 34.5s23 32.334 30 53.001s10.5 43.667 10.5 69c0 50 -13 90.333 -39 121s-62.667 46 -110 46c-48 0 -84.833 -15.333 -110.5 -46s-38.5 -71 -38.5 -121s13.333 -90.667 40 -122s63 -47 109 -47zM246.999 571.999l-139 176h124l123 -176h-108z" />
    <glyph glyph-name="oacute" unicode="&#xf3;" horiz-adv-x="561" 
d="M281 -8c-41.333 0 -77.667 7.16699 -109 21.5s-57.666 33.666 -78.999 57.999s-37.333 52.666 -48 84.999s-16 66.833 -16 103.5c0 37.333 5.5 71.833 16.5 103.5s27 59.167 48 82.5s47.167 41.666 78.5 54.999s67.666 20 108.999 20c40.667 0 76.667 -6.66699 108 -20
s57.666 -31.666 78.999 -54.999s37.333 -50.833 48 -82.5s16 -66.167 16 -103.5c0 -36.667 -5.33301 -71.167 -16 -103.5s-26.667 -60.666 -48 -84.999s-47.666 -43.666 -78.999 -57.999s-67.333 -21.5 -108 -21.5zM280.999 88c22.667 0 43.167 4.16602 61.5 12.499
s34 19.833 47 34.5s23 32.334 30 53.001s10.5 43.667 10.5 69c0 50 -13 90.333 -39 121s-62.667 46 -110 46c-48 0 -84.833 -15.333 -110.5 -46s-38.5 -71 -38.5 -121s13.333 -90.667 40 -122s63 -47 109 -47zM204.999 571.999l123 176h124l-139 -176h-108z" />
    <glyph glyph-name="ocircumflex" unicode="&#xf4;" horiz-adv-x="561" 
d="M281 -8c-41.333 0 -77.667 7.16699 -109 21.5s-57.666 33.666 -78.999 57.999s-37.333 52.666 -48 84.999s-16 66.833 -16 103.5c0 37.333 5.5 71.833 16.5 103.5s27 59.167 48 82.5s47.167 41.666 78.5 54.999s67.666 20 108.999 20c40.667 0 76.667 -6.66699 108 -20
s57.666 -31.666 78.999 -54.999s37.333 -50.833 48 -82.5s16 -66.167 16 -103.5c0 -36.667 -5.33301 -71.167 -16 -103.5s-26.667 -60.666 -48 -84.999s-47.666 -43.666 -78.999 -57.999s-67.333 -21.5 -108 -21.5zM280.999 88c22.667 0 43.167 4.16602 61.5 12.499
s34 19.833 47 34.5s23 32.334 30 53.001s10.5 43.667 10.5 69c0 50 -13 90.333 -39 121s-62.667 46 -110 46c-48 0 -84.833 -15.333 -110.5 -46s-38.5 -71 -38.5 -121s13.333 -90.667 40 -122s63 -47 109 -47zM341.999 571.999l-61 85l-60 -85h-123l139 176h89l139 -176
h-123z" />
    <glyph glyph-name="otilde" unicode="&#xf5;" horiz-adv-x="561" 
d="M281 -8c-41.333 0 -77.667 7.16699 -109 21.5s-57.666 33.666 -78.999 57.999s-37.333 52.666 -48 84.999s-16 66.833 -16 103.5c0 37.333 5.5 71.833 16.5 103.5s27 59.167 48 82.5s47.167 41.666 78.5 54.999s67.666 20 108.999 20c40.667 0 76.667 -6.66699 108 -20
s57.666 -31.666 78.999 -54.999s37.333 -50.833 48 -82.5s16 -66.167 16 -103.5c0 -36.667 -5.33301 -71.167 -16 -103.5s-26.667 -60.666 -48 -84.999s-47.666 -43.666 -78.999 -57.999s-67.333 -21.5 -108 -21.5zM280.999 88c22.667 0 43.167 4.16602 61.5 12.499
s34 19.833 47 34.5s23 32.334 30 53.001s10.5 43.667 10.5 69c0 50 -13 90.333 -39 121s-62.667 46 -110 46c-48 0 -84.833 -15.333 -110.5 -46s-38.5 -71 -38.5 -121s13.333 -90.667 40 -122s63 -47 109 -47zM110.999 601.999v99h338v-99h-338z" />
    <glyph glyph-name="odieresis" unicode="&#xf6;" horiz-adv-x="561" 
d="M281 -8c-41.333 0 -77.667 7.16699 -109 21.5s-57.666 33.666 -78.999 57.999s-37.333 52.666 -48 84.999s-16 66.833 -16 103.5c0 37.333 5.5 71.833 16.5 103.5s27 59.167 48 82.5s47.167 41.666 78.5 54.999s67.666 20 108.999 20c40.667 0 76.667 -6.66699 108 -20
s57.666 -31.666 78.999 -54.999s37.333 -50.833 48 -82.5s16 -66.167 16 -103.5c0 -36.667 -5.33301 -71.167 -16 -103.5s-26.667 -60.666 -48 -84.999s-47.666 -43.666 -78.999 -57.999s-67.333 -21.5 -108 -21.5zM280.999 88c22.667 0 43.167 4.16602 61.5 12.499
s34 19.833 47 34.5s23 32.334 30 53.001s10.5 43.667 10.5 69c0 50 -13 90.333 -39 121s-62.667 46 -110 46c-48 0 -84.833 -15.333 -110.5 -46s-38.5 -71 -38.5 -121s13.333 -90.667 40 -122s63 -47 109 -47zM302.999 609.999v115h117v-115h-117zM140.999 609.999v115h116
v-115h-116z" />
    <glyph glyph-name="divide" unicode="&#xf7;" 
d="M49 282v99h382v-99h-382zM155 494v169h171v-169h-171zM155 0v169h171v-169h-171z" />
    <glyph glyph-name="oslash" unicode="&#xf8;" horiz-adv-x="561" 
d="M42 -94l76 140.999c-30 24.667 -52.333 55.334 -67 92.001s-22 77 -22 121c0 37.333 5.5 71.833 16.5 103.5s27 59.167 48 82.5s47.167 41.666 78.5 54.999s67.666 20 108.999 20c14.667 0 29 -1.16699 43 -3.5s27.667 -5.5 41 -9.5l52 99h100l-74 -139
c29.333 -23.333 51.5 -52.833 66.5 -88.5s22.5 -75.5 22.5 -119.5c0 -36.667 -5.33301 -71.167 -16 -103.5s-26.667 -60.666 -48 -84.999s-47.666 -43.666 -78.999 -57.999s-67.333 -21.5 -108 -21.5c-15.333 0 -30 1.16699 -44 3.5s-27.667 5.5 -41 9.5l-26 -50.5
c-9.33301 -17.667 -18.333 -33.834 -27 -48.501h-101zM394 375.999l-76 -141.501l-76 -142.5c11.333 -2.66699 24.333 -4 39 -4c22.667 0 43.167 4.16699 61.5 12.5s34 19.833 47 34.5s23 32.334 30 53.001s10.5 43.667 10.5 69c0 49.333 -12 89 -36 119zM318 419.998
c-10 2.66699 -22.333 4.00098 -37 4.00098c-48 0 -84.833 -15.333 -110.5 -46s-38.5 -71 -38.5 -121c0 -24 3 -45.833 9 -65.5s14.667 -36.834 26 -51.501z" />
    <glyph glyph-name="ugrave" unicode="&#xf9;" horiz-adv-x="505" 
d="M49 0v512h100v-415h183v415h99v-423l91 -89h-473zM205 572l-139 176h124l123 -176h-108z" />
    <glyph glyph-name="uacute" unicode="&#xfa;" horiz-adv-x="505" 
d="M49 0v512h100v-415h183v415h99v-423l91 -89h-473zM163 572l123 176h124l-139 -176h-108z" />
    <glyph glyph-name="ucircumflex" unicode="&#xfb;" horiz-adv-x="505" 
d="M49 0v512h100v-415h183v415h99v-423l91 -89h-473zM297 572l-61 85l-60 -85h-123l139 176h89l139 -176h-123z" />
    <glyph glyph-name="udieresis" unicode="&#xfc;" horiz-adv-x="505" 
d="M49 0v512h100v-415h183v415h99v-423l91 -89h-473zM262 610v115h117v-115h-117zM100 610v115h116v-115h-116z" />
    <glyph glyph-name="yacute" unicode="&#xfd;" 
d="M151 -146v97h126c19.333 0 33.333 3.5 42 10.5s13 19.5 13 37.5v19h-283v494h100v-398h183v398h99v-513c0 -49.333 -13.833 -85.833 -41.5 -109.5s-65.167 -35.5 -112.5 -35.5h-126zM165 572l123 176h124l-139 -176h-108z" />
    <glyph glyph-name="thorn" unicode="&#xfe;" horiz-adv-x="464" 
d="M49 -146l-0.00292969 877h100v-219h57c32 0 61.833 -6.83301 89.5 -20.5s51.834 -32.334 72.501 -56.001s36.834 -51.167 48.501 -82.5s17.5 -64.666 17.5 -99.999c0 -36.667 -5.66699 -70.5 -17 -101.5s-27.166 -57.667 -47.499 -80s-44.5 -39.833 -72.5 -52.5
s-58.333 -19 -91 -19h-58v-146h-99zM197.997 97c21.333 0 40.333 3.99902 57 11.999s30.667 19 42 33s20 30.667 26 50s9 40.333 9 63s-3 43.834 -9 63.501s-14.667 36.667 -26 51s-25.333 25.5 -42 33.5s-35.667 12 -57 12h-50v-318h50z" />
    <glyph glyph-name="ydieresis" unicode="&#xff;" 
d="M151 -146v97h126c19.333 0 33.333 3.5 42 10.5s13 19.5 13 37.5v19h-283v494h100v-398h183v398h99v-513c0 -49.333 -13.833 -85.833 -41.5 -109.5s-65.167 -35.5 -112.5 -35.5h-126zM263 610v115h117v-115h-117zM101 610v115h116v-115h-116z" />
    <glyph glyph-name="Amacron" unicode="&#x100;" horiz-adv-x="476" 
d="M329 0v282h-182v-282h-100v531c0 33.333 4.83301 63 14.5 89s23 47.833 40 65.5s37.333 31 61 40s49.5 13.5 77.5 13.5s53.5 -4.5 76.5 -13.5s42.833 -22.333 59.5 -40s29.667 -39.5 39 -65.5s14 -55.667 14 -89v-531h-100zM329 535c0 34.667 -8.5 61.332 -25.5 79.999
s-38.833 28 -65.5 28c-28 0 -50.167 -9.16699 -66.5 -27.5s-24.5 -45.166 -24.5 -80.499v-154h182v154zM68 811.998v99h338v-99h-338z" />
    <glyph glyph-name="amacron" unicode="&#x101;" horiz-adv-x="485" 
d="M50 0v305h283v110h-283v97h381v-425l53 -87h-434zM333 207h-183v-110h183v110zM73 602v99h338v-99h-338z" />
    <glyph glyph-name="Abreve" unicode="&#x102;" horiz-adv-x="476" 
d="M329 0v282h-182v-282h-100v531c0 33.333 4.83301 63 14.5 89s23 47.833 40 65.5s37.333 31 61 40s49.5 13.5 77.5 13.5s53.5 -4.5 76.5 -13.5s42.833 -22.333 59.5 -40s29.667 -39.5 39 -65.5s14 -55.667 14 -89v-531h-100zM329 535c0 34.667 -8.5 61.332 -25.5 79.999
s-38.833 28 -65.5 28c-28 0 -50.167 -9.16699 -66.5 -27.5s-24.5 -45.166 -24.5 -80.499v-154h182v154zM98 773.998v184h89v-100h101v100h89v-184h-279z" />
    <glyph glyph-name="abreve" unicode="&#x103;" horiz-adv-x="485" 
d="M50 0v305h283v110h-283v97h381v-425l53 -87h-434zM333 207h-183v-110h183v110zM103 564v184h89v-100h101v100h89v-184h-279z" />
    <glyph glyph-name="Aogonek" unicode="&#x104;" horiz-adv-x="476" 
d="M388 -232c-54 0 -96.167 15 -126.5 45s-48.5 72 -54.5 126l122 83v260h-182v-282h-100v531c0 33.333 4.83301 63 14.5 89s23 47.833 40 65.5s37.333 31 61 40s49.5 13.5 77.5 13.5s53.5 -4.5 76.5 -13.5s42.833 -22.333 59.5 -40s29.667 -39.5 39 -65.5
s14 -55.667 14 -89v-524l-116 -85c5.33301 -17.333 13.833 -30.833 25.5 -40.5s28.167 -14.5 49.5 -14.5h41v-99h-41zM329 535c0 34.667 -8.5 61.332 -25.5 79.999s-38.833 28 -65.5 28c-28 0 -50.167 -9.16699 -66.5 -27.5s-24.5 -45.166 -24.5 -80.499v-154h182v154z" />
    <glyph glyph-name="aogonek" unicode="&#x105;" horiz-adv-x="485" 
d="M452 -228c-54.667 0 -97.001 14.6689 -127.001 44.002s-48.333 70.666 -55 123.999l89 60h-309v305h283v110h-283v97h381v-425l68 -75l-122 -89c4.66699 -16.667 12.834 -29.834 24.501 -39.501s28.5 -14.5 50.5 -14.5h40v-97h-40zM332.999 207.002h-183v-110h183v110z
" />
    <glyph glyph-name="Cacute" unicode="&#x106;" 
d="M357 0c-48 0 -91.999 9.16699 -131.999 27.5s-74.167 43.833 -102.5 76.5s-50.333 71.334 -66 116.001s-23.5 93.334 -23.5 146.001c0 52 7.66699 100.333 23 145s37.166 83.334 65.499 116.001s62.5 58.167 102.5 76.5s84.333 27.5 133 27.5h93v-99h-107
c-31.333 0 -59.666 -6.83301 -84.999 -20.5s-47.333 -32.334 -66 -56.001s-33 -51.667 -43 -84s-15 -67.5 -15 -105.5s5 -73.333 15 -106s24.333 -60.834 43 -84.501s40.667 -42.334 66 -56.001s53.666 -20.5 84.999 -20.5h107v-99h-93zM290.001 782l123 176h124l-139 -176
h-108z" />
    <glyph glyph-name="cacute" unicode="&#x107;" horiz-adv-x="387" 
d="M275 0c-32.667 0 -63.166 6.83105 -91.499 20.498s-52.833 32.334 -73.5 56.001s-37 51.167 -49 82.5s-18 65 -18 101c0 36.667 6 70.334 18 101.001s28.5 57.167 49.5 79.5s45.5 39.833 73.5 52.5s58.333 19 91 19h83v-97h-82c-22 0 -41.167 -4.16699 -57.5 -12.5
s-29.833 -19.666 -40.5 -33.999s-18.667 -31 -24 -50s-8 -39.5 -8 -61.5c0 -22.667 2.66699 -43.834 8 -63.501s13.5 -36.667 24.5 -51s24.667 -25.5 41 -33.5s35.166 -12 56.499 -12h82v-97h-83zM215.001 571.998l123 176h124l-139 -176h-108z" />
    <glyph glyph-name="Cdotaccent" unicode="&#x10a;" 
d="M357 0c-48 0 -91.999 9.16699 -131.999 27.5s-74.167 43.833 -102.5 76.5s-50.333 71.334 -66 116.001s-23.5 93.334 -23.5 146.001c0 52 7.66699 100.333 23 145s37.166 83.334 65.499 116.001s62.5 58.167 102.5 76.5s84.333 27.5 133 27.5h93v-99h-107
c-31.333 0 -59.666 -6.83301 -84.999 -20.5s-47.333 -32.334 -66 -56.001s-33 -51.667 -43 -84s-15 -67.5 -15 -105.5s5 -73.333 15 -106s24.333 -60.834 43 -84.501s40.667 -42.334 66 -56.001s53.666 -20.5 84.999 -20.5h107v-99h-93zM297.001 820v115h116v-115h-116z" />
    <glyph glyph-name="cdotaccent" unicode="&#x10b;" horiz-adv-x="387" 
d="M275 0c-32.667 0 -63.166 6.83105 -91.499 20.498s-52.833 32.334 -73.5 56.001s-37 51.167 -49 82.5s-18 65 -18 101c0 36.667 6 70.334 18 101.001s28.5 57.167 49.5 79.5s45.5 39.833 73.5 52.5s58.333 19 91 19h83v-97h-82c-22 0 -41.167 -4.16699 -57.5 -12.5
s-29.833 -19.666 -40.5 -33.999s-18.667 -31 -24 -50s-8 -39.5 -8 -61.5c0 -22.667 2.66699 -43.834 8 -63.501s13.5 -36.667 24.5 -51s24.667 -25.5 41 -33.5s35.166 -12 56.499 -12h82v-97h-83zM212.001 609.998v115h116v-115h-116z" />
    <glyph glyph-name="Ccaron" unicode="&#x10c;" 
d="M357 0c-48 0 -91.999 9.16699 -131.999 27.5s-74.167 43.833 -102.5 76.5s-50.333 71.334 -66 116.001s-23.5 93.334 -23.5 146.001c0 52 7.66699 100.333 23 145s37.166 83.334 65.499 116.001s62.5 58.167 102.5 76.5s84.333 27.5 133 27.5h93v-99h-107
c-31.333 0 -59.666 -6.83301 -84.999 -20.5s-47.333 -32.334 -66 -56.001s-33 -51.667 -43 -84s-15 -67.5 -15 -105.5s5 -73.333 15 -106s24.333 -60.834 43 -84.501s40.667 -42.334 66 -56.001s53.666 -20.5 84.999 -20.5h107v-99h-93zM302.001 782l-139 176h123l61 -85
l60 85h123l-139 -176h-89z" />
    <glyph glyph-name="ccaron" unicode="&#x10d;" horiz-adv-x="387" 
d="M275 0c-32.667 0 -63.166 6.83105 -91.499 20.498s-52.833 32.334 -73.5 56.001s-37 51.167 -49 82.5s-18 65 -18 101c0 36.667 6 70.334 18 101.001s28.5 57.167 49.5 79.5s45.5 39.833 73.5 52.5s58.333 19 91 19h83v-97h-82c-22 0 -41.167 -4.16699 -57.5 -12.5
s-29.833 -19.666 -40.5 -33.999s-18.667 -31 -24 -50s-8 -39.5 -8 -61.5c0 -22.667 2.66699 -43.834 8 -63.501s13.5 -36.667 24.5 -51s24.667 -25.5 41 -33.5s35.166 -12 56.499 -12h82v-97h-83zM198.001 571.998l-139 176h123l61 -85l60 85h123l-139 -176h-89z" />
    <glyph glyph-name="Dcaron" unicode="&#x10e;" horiz-adv-x="526" 
d="M75 0l-0.000976562 640.003l-75 91h168c48 0 92 -9.16699 132 -27.5s74.333 -43.833 103 -76.5s50.834 -71.334 66.501 -116.001s23.5 -93 23.5 -145c0 -52.667 -8 -101.334 -24 -146.001s-38.167 -83.334 -66.5 -116.001s-62.5 -58.167 -102.5 -76.5
s-84 -27.5 -132 -27.5h-93zM181.999 99.0029c31.333 0 59.833 6.83008 85.5 20.4971s47.667 32.334 66 56.001s32.5 51.834 42.5 84.501s15 68 15 106s-5 73.167 -15 105.5s-24.167 60.333 -42.5 84s-40.333 42.334 -66 56.001s-54.167 20.5 -85.5 20.5h-8v-533h8z
M170.999 782l-139 176h123l61 -85l60 85h123l-139 -176h-89z" />
    <glyph glyph-name="dcaron" unicode="&#x10f;" horiz-adv-x="580" 
d="M256 0c-32.667 0 -62.999 6.83203 -90.999 20.499s-52.333 32.334 -73 56.001s-36.834 51.167 -48.501 82.5s-17.5 65 -17.5 101s5.66699 69.5 17 100.5s27.333 57.667 48 80s45 39.833 73 52.5s58.667 19 92 19h56v219h99v-642l75 -89h-230zM312.001 414.999
l-49 0.000976562c-21.333 0 -40.166 -4 -56.499 -12s-30.166 -19 -41.499 -33s-20 -30.667 -26 -50s-9 -40.333 -9 -63s3 -43.834 9 -63.501s14.667 -36.667 26 -51s25.166 -25.5 41.499 -33.5s35.166 -12 56.499 -12h49v318zM496.001 524v85h-56v122h155v-141z" />
    <glyph glyph-name="Dcroat" unicode="&#x110;" horiz-adv-x="526" 
d="M75 0l-0.000976562 353.003h-59v98h59v189l-75 91h168c48 0 92 -9.16699 132 -27.5s74.333 -43.833 103 -76.5s50.834 -71.334 66.501 -116.001s23.5 -93 23.5 -145c0 -52.667 -8 -101.334 -24 -146.001s-38.167 -83.334 -66.5 -116.001s-62.5 -58.167 -102.5 -76.5
s-84 -27.5 -132 -27.5h-93zM181.999 99.0029c31.333 0 59.833 6.83008 85.5 20.4971s47.667 32.334 66 56.001s32.5 51.834 42.5 84.501s15 68 15 106s-5 73.167 -15 105.5s-24.167 60.333 -42.5 84s-40.333 42.334 -66 56.001s-54.167 20.5 -85.5 20.5h-8v-181h181v-98
h-181v-254h8z" />
    <glyph glyph-name="dmacron" unicode="&#x111;" horiz-adv-x="486" 
d="M256 0c-32.667 0 -62.999 6.83203 -90.999 20.499s-52.333 32.334 -73 56.001s-36.834 51.167 -48.501 82.5s-17.5 65 -17.5 101s5.66699 69.5 17 100.5s27.333 57.667 48 80s45 39.833 73 52.5s58.667 19 92 19h56v70h-169v97h169v52h99v-52h70v-97h-70v-493l92 -89
h-247zM312.001 414.999l-49 0.000976562c-21.333 0 -40.166 -4 -56.499 -12s-30.166 -19 -41.499 -33s-20 -30.667 -26 -50s-9 -40.333 -9 -63s3 -43.834 9 -63.501s14.667 -36.667 26 -51s25.166 -25.5 41.499 -33.5s35.166 -12 56.499 -12h49v318z" />
    <glyph glyph-name="Emacron" unicode="&#x112;" horiz-adv-x="415" 
d="M75 0v640l-75 91h385v-99h-211v-181h177v-99h-177v-253h211v-99h-310zM49 812v99h338v-99h-338z" />
    <glyph glyph-name="emacron" unicode="&#x113;" horiz-adv-x="477" 
d="M49 0v512h381v-305h-282v-110h282v-97h-381zM332 415h-184v-110h184v110zM69 602v99h338v-99h-338z" />
    <glyph glyph-name="Ebreve" unicode="&#x114;" horiz-adv-x="415" 
d="M75 0v640l-75 91h385v-99h-211v-181h177v-99h-177v-253h211v-99h-310zM78 774v184h89v-100h101v100h89v-184h-279z" />
    <glyph glyph-name="ebreve" unicode="&#x115;" horiz-adv-x="477" 
d="M49 0v512h381v-305h-282v-110h282v-97h-381zM332 415h-184v-110h184v110zM99 564v184h89v-100h101v100h89v-184h-279z" />
    <glyph glyph-name="Edotaccent" unicode="&#x116;" horiz-adv-x="415" 
d="M75 0v640l-75 91h385v-99h-211v-181h177v-99h-177v-253h211v-99h-310zM159 820v115h116v-115h-116z" />
    <glyph glyph-name="edotaccent" unicode="&#x117;" horiz-adv-x="477" 
d="M49 0v512h381v-305h-282v-110h282v-97h-381zM332 415h-184v-110h184v110zM180 610v115h116v-115h-116z" />
    <glyph glyph-name="Eogonek" unicode="&#x118;" horiz-adv-x="415" 
d="M345 -232c-54.667 0 -97 15 -127 45s-48.333 72 -55 126l90 61h-178v640l-91 91h401v-99h-211v-181h177v-99h-177v-253h211v-92l-115 -85c5.33301 -17.333 13.833 -30.833 25.5 -40.5s28.167 -14.5 49.5 -14.5h40v-99h-40z" />
    <glyph glyph-name="eogonek" unicode="&#x119;" horiz-adv-x="477" 
d="M389 -228c-54 0 -96.167 14.6689 -126.5 44.002s-48.5 70.666 -54.5 123.999l89 60h-248v512h381v-305h-282v-110h282v-90l-116 -84c5.33301 -16.667 13.833 -29.834 25.5 -39.501s28.167 -14.5 49.5 -14.5h41v-97h-41zM332 415.002h-184v-110h184v110z" />
    <glyph glyph-name="Ecaron" unicode="&#x11a;" horiz-adv-x="415" 
d="M75 0v640l-75 91h385v-99h-211v-181h177v-99h-177v-253h211v-99h-310zM174 782l-139 176h123l61 -85l60 85h123l-139 -176h-89z" />
    <glyph glyph-name="ecaron" unicode="&#x11b;" horiz-adv-x="477" 
d="M49 0v512h381v-305h-282v-110h282v-97h-381zM332 415h-184v-110h184v110zM194 572l-139 176h123l61 -85l60 85h123l-139 -176h-89z" />
    <glyph glyph-name="Gbreve" unicode="&#x11e;" horiz-adv-x="531" 
d="M357 0c-48 0 -91.832 9.16699 -131.499 27.5s-73.834 43.833 -102.501 76.5s-50.834 71.334 -66.501 116.001s-23.5 93.334 -23.5 146.001c0 52 7.83301 100.333 23.5 145s37.667 83.334 66 116.001s62.333 58.167 102 76.5s83.834 27.5 132.501 27.5h94v-99h-107
c-31.333 0 -59.833 -6.83301 -85.5 -20.5s-47.667 -32.334 -66 -56.001s-32.5 -51.667 -42.5 -84s-15 -67.5 -15 -105.5s5 -73.333 15 -106s24.167 -60.834 42.5 -84.501s40.333 -42.334 66 -56.001s54.167 -20.5 85.5 -20.5h7v183h-70v99h250l-80 -92v-198l80 -91h-174z
M174.001 774v184h89v-100h101v100h89v-184h-279z" />
    <glyph glyph-name="gbreve" unicode="&#x11f;" horiz-adv-x="505" 
d="M49 -146v94h286v52h-292l141 138h-135v374h456l-75 -89v-285h-137l-53 -50h190v-234h-381zM335 420h-190v-194h190v194zM113 564v184h89v-100h101v100h89v-184h-279z" />
    <glyph glyph-name="Gdotaccent" unicode="&#x120;" horiz-adv-x="531" 
d="M357 0c-48 0 -91.832 9.16699 -131.499 27.5s-73.834 43.833 -102.501 76.5s-50.834 71.334 -66.501 116.001s-23.5 93.334 -23.5 146.001c0 52 7.83301 100.333 23.5 145s37.667 83.334 66 116.001s62.333 58.167 102 76.5s83.834 27.5 132.501 27.5h94v-99h-107
c-31.333 0 -59.833 -6.83301 -85.5 -20.5s-47.667 -32.334 -66 -56.001s-32.5 -51.667 -42.5 -84s-15 -67.5 -15 -105.5s5 -73.333 15 -106s24.167 -60.834 42.5 -84.501s40.333 -42.334 66 -56.001s54.167 -20.5 85.5 -20.5h7v183h-70v99h250l-80 -92v-198l80 -91h-174z
M304.001 820v115h116v-115h-116z" />
    <glyph glyph-name="gdotaccent" unicode="&#x121;" horiz-adv-x="505" 
d="M49 -146v94h286v52h-292l141 138h-135v374h456l-75 -89v-285h-137l-53 -50h190v-234h-381zM335 420h-190v-194h190v194zM185 610v115h116v-115h-116z" />
    <glyph glyph-name="Gcommaaccent" unicode="&#x122;" horiz-adv-x="531" 
d="M357 0c-48 0 -91.832 9.16699 -131.499 27.5s-73.834 43.833 -102.501 76.5s-50.834 71.334 -66.501 116.001s-23.5 93.334 -23.5 146.001c0 52 7.83301 100.333 23.5 145s37.667 83.334 66 116.001s62.333 58.167 102 76.5s83.834 27.5 132.501 27.5h94v-99h-107
c-31.333 0 -59.833 -6.83301 -85.5 -20.5s-47.667 -32.334 -66 -56.001s-32.5 -51.667 -42.5 -84s-15 -67.5 -15 -105.5s5 -73.333 15 -106s24.167 -60.834 42.5 -84.501s40.333 -42.334 66 -56.001s54.167 -20.5 85.5 -20.5h7v183h-70v99h250l-80 -92v-198l80 -91h-174z
M302.001 -232v85h-56v122h155v-141z" />
    <glyph glyph-name="gcommaaccent" unicode="&#x123;" horiz-adv-x="505" 
d="M49 -146v94h286v52h-292l141 138h-135v374h456l-75 -89v-285h-137l-53 -50h190v-234h-381zM335 420h-190v-194h190v194zM266.007 768.986v-84.9951h55.9961v-121.993h-154.99v140.992z" />
    <glyph glyph-name="Hbar" unicode="&#x126;" horiz-adv-x="505" 
d="M357 0v352h-183v-352h-99v640l-91 91h190v-108h183v108h99v-731h-99zM357 524h-183v-73h183v73z" />
    <glyph glyph-name="hbar" unicode="&#x127;" 
d="M332 0v415h-183v-415h-100v582h-44v97h44v40h100v-40h194v-97h-194v-70h282v-512h-99z" />
    <glyph glyph-name="Imacron" unicode="&#x12a;" horiz-adv-x="225" 
d="M76 0v640l-76 91h175v-731h-99zM-56 812v99h338v-99h-338z" />
    <glyph glyph-name="imacron" unicode="&#x12b;" horiz-adv-x="337" 
d="M119 0v512h100v-512h-100zM1 602v99h338v-99h-338z" />
    <glyph glyph-name="Ibreve" unicode="&#x12c;" horiz-adv-x="225" 
d="M76 0v640l-76 91h175v-731h-99zM-26 774v184h89v-100h101v100h89v-184h-279z" />
    <glyph glyph-name="ibreve" unicode="&#x12d;" horiz-adv-x="280" 
d="M90 0v512h100v-512h-100zM2 564v184h89v-100h101v100h89v-184h-279z" />
    <glyph glyph-name="Iogonek" unicode="&#x12e;" horiz-adv-x="225" 
d="M135 -232c-54.667 0 -97.168 15 -127.501 45s-48.5 72 -54.5 126l123 83v618l-92 91h191v-724l-115 -85c4.66699 -17.333 12.834 -30.833 24.501 -40.5s28.5 -14.5 50.5 -14.5h40v-99h-40z" />
    <glyph glyph-name="iogonek" unicode="&#x12f;" horiz-adv-x="198" 
d="M109 -228c-54.667 0 -97.168 14.6689 -127.501 44.002s-48.5 70.666 -54.5 123.999l122 82v490h100v-505l-115 -84c4.66699 -16.667 12.834 -29.834 24.501 -39.501s28.5 -14.5 50.5 -14.5h40v-97h-40zM40.999 618.002v113h116v-113h-116z" />
    <glyph glyph-name="Idotaccent" unicode="&#x130;" horiz-adv-x="225" 
d="M76 0v640l-76 91h175v-731h-99zM54 820v115h116v-115h-116z" />
    <glyph glyph-name="dotlessi" unicode="&#x131;" horiz-adv-x="198" 
d="M49 0v512h100v-512h-100z" />
    <glyph glyph-name="IJ" unicode="&#x132;" horiz-adv-x="625" 
d="M76 0v640l-76 91h175v-731h-99zM477 640l-75 91.002h175v-530c0 -30 -4.5 -57.667 -13.5 -83s-21.833 -47.333 -38.5 -66s-36.5 -33.334 -59.5 -44.001s-48.5 -16 -76.5 -16c-30 0 -56.833 5.33301 -80.5 16s-43.667 25 -60 43s-28.833 38.667 -37.5 62
s-13 47.666 -13 72.999v54h99v-55c0 -32 8.16699 -56.167 24.5 -72.5s38.5 -24.5 66.5 -24.5c26.667 0 48.167 9.83301 64.5 29.5s24.5 47.167 24.5 82.5v440z" />
    <glyph glyph-name="ij" unicode="&#x133;" horiz-adv-x="375" 
d="M41 618v113h116v-113h-116zM49 0v512h100v-512h-100zM216 618v113h116v-113h-116zM83 -138v98h59c28 0 48.667 5.5 62 16.5s20 25.167 20 42.5v493h99v-495c0 -21.333 -4.5 -41.5 -13.5 -60.5s-21.667 -35.5 -38 -49.5s-35.5 -25 -57.5 -33s-46 -12 -72 -12h-59z" />
    <glyph glyph-name="Kcommaaccent" unicode="&#x136;" horiz-adv-x="471" 
d="M348 0l-174 313v-313h-99v640l-75 91h174v-270l181 270h113l-226 -329l223 -402h-117zM233 -232v85h-56v122h155v-141z" />
    <glyph glyph-name="kcommaaccent" unicode="&#x137;" 
d="M339 0l-190 205v-205h-100v731h100v-405l187 186h131l-248 -242l251 -270h-131zM206 -232v85h-56v122h155v-141z" />
    <glyph glyph-name="Lacute" unicode="&#x139;" horiz-adv-x="403" 
d="M75 0v640l-75 91h174v-632h211v-99h-310zM78 782l123 176h124l-139 -176h-108z" />
    <glyph glyph-name="lacute" unicode="&#x13a;" horiz-adv-x="198" 
d="M49 0v731h100v-731h-100zM26 782l123 176h124l-139 -176h-108z" />
    <glyph glyph-name="Lcommaaccent" unicode="&#x13b;" horiz-adv-x="403" 
d="M75 0v640l-75 91h174v-632h211v-99h-310zM209 -232v85h-56v122h155v-141z" />
    <glyph glyph-name="lcommaaccent" unicode="&#x13c;" horiz-adv-x="198" 
d="M49 0v731h100v-731h-100zM79 -232v85h-56v122h155v-141z" />
    <glyph glyph-name="Lcaron" unicode="&#x13d;" horiz-adv-x="403" 
d="M75 0v640l-75 91h174v-632h211v-99h-310zM257 524v85h-56v122h155v-141z" />
    <glyph glyph-name="lcaron" unicode="&#x13e;" horiz-adv-x="318" 
d="M49 0v731h100v-731h-100zM235 524v85h-56v122h155v-141z" />
    <glyph glyph-name="Ldot" unicode="&#x13f;" horiz-adv-x="403" 
d="M75 0v640l-75 91h174v-632h211v-99h-310zM205 333v115h116v-115h-116z" />
    <glyph glyph-name="ldot" unicode="&#x140;" horiz-adv-x="280" 
d="M49 0v731h100v-731h-100zM179 338v115h116v-115h-116z" />
    <glyph glyph-name="Lslash" unicode="&#x141;" horiz-adv-x="403" 
d="M75 0v468l-70 -25v88l70 25v84l-75 91h174v-140l153 53v-88l-153 -53v-404h211v-99h-310z" />
    <glyph glyph-name="lslash" unicode="&#x142;" horiz-adv-x="315" 
d="M102 0v313l-105 -37v88l105 34v333h99v-297l118 41v-88l-118 -41v-346h-99z" />
    <glyph glyph-name="Nacute" unicode="&#x143;" horiz-adv-x="505" 
d="M365 0l-195 466v-466h-95v640l-75 91h170l189 -455v455h97v-731h-91zM177 782l123 176h124l-139 -176h-108z" />
    <glyph glyph-name="nacute" unicode="&#x144;" 
d="M332 0v415h-183v-415h-100v587l92 -75h290v-512h-99zM165 572l123 176h124l-139 -176h-108z" />
    <glyph glyph-name="Ncommaaccent" unicode="&#x145;" horiz-adv-x="505" 
d="M365 0l-195 466v-466h-95v640l-75 91h170l189 -455v455h97v-731h-91zM231 -232v85h-56v122h155v-141z" />
    <glyph glyph-name="ncommaaccent" unicode="&#x146;" 
d="M332 0v415h-183v-415h-100v587l92 -75h290v-512h-99zM218 -232v85h-56v122h155v-141z" />
    <glyph glyph-name="Ncaron" unicode="&#x147;" horiz-adv-x="505" 
d="M365 0l-195 466v-466h-95v640l-75 91h170l189 -455v455h97v-731h-91zM208 782l-139 176h123l61 -85l60 85h123l-139 -176h-89z" />
    <glyph glyph-name="ncaron" unicode="&#x148;" 
d="M332 0v415h-183v-415h-100v587l92 -75h290v-512h-99zM196 572l-139 176h123l61 -85l60 85h123l-139 -176h-89z" />
    <glyph glyph-name="Eng" unicode="&#x14a;" horiz-adv-x="505" 
d="M215 -146l-0.00292969 99h59c28 0 48.833 5.83301 62.5 17.5s21.167 25.5 22.5 41.5l-189 452v-464h-95v640l-91 91h186l189 -455v455h97v-717c0 -21.333 -4.66699 -41.666 -14 -60.999s-22.166 -36.333 -38.499 -51s-35.666 -26.334 -57.999 -35.001
s-46.166 -13 -71.499 -13h-59z" />
    <glyph glyph-name="eng" unicode="&#x14b;" 
d="M190 -146l-0.00292969 97.999h59c28.667 0 49.667 5.5 63 16.5s20 25.167 20 42.5v404h-183v-415h-100v602l92 -90h290v-506c0 -21.333 -4.66699 -41.166 -14 -59.499s-22.166 -34.333 -38.499 -48s-35.666 -24.5 -57.999 -32.5s-46.166 -12 -71.499 -12h-59z" />
    <glyph glyph-name="Omacron" unicode="&#x14c;" horiz-adv-x="708" 
d="M362 -8c-55.333 0 -103.501 10.3311 -144.501 30.998s-75.167 48.334 -102.5 83.001s-47.833 74.5 -61.5 119.5s-20.5 91.833 -20.5 140.5c0 52 7.5 100.667 22.5 146s36.5 84.833 64.5 118.5s61.667 60.167 101 79.5s83.333 29 132 29c48 0 91.667 -9.33301 131 -28
s73.333 -44.667 102 -78s50.834 -72.666 66.501 -117.999s23.5 -95 23.5 -149c0 -52 -7.16699 -100.667 -21.5 -146s-35 -85 -62 -119s-60 -60.667 -99 -80s-82.833 -29 -131.5 -29zM355.999 85.998c34.667 0 65.8311 7.50293 93.498 22.5029s50.834 35.167 69.501 60.5
s33 55 43 89s15 70 15 108c0 39.333 -5.16699 76.166 -15.5 110.499s-25.166 64 -44.499 89s-42.833 44.667 -70.5 59s-59.167 21.5 -94.5 21.5c-34 0 -64.333 -7.33301 -91 -22s-49.334 -34.834 -68.001 -60.501s-33 -55.5 -43 -89.5s-15 -70 -15 -108
c0 -37.333 4.83301 -72.833 14.5 -106.5s23.834 -63.334 42.501 -89.001s41.667 -46.167 69 -61.5s59 -23 95 -23zM184.996 812.001v99h338v-99h-338z" />
    <glyph glyph-name="omacron" unicode="&#x14d;" horiz-adv-x="561" 
d="M281 -8c-41.333 0 -77.667 7.16699 -109 21.5s-57.666 33.666 -78.999 57.999s-37.333 52.666 -48 84.999s-16 66.833 -16 103.5c0 37.333 5.5 71.833 16.5 103.5s27 59.167 48 82.5s47.167 41.666 78.5 54.999s67.666 20 108.999 20c40.667 0 76.667 -6.66699 108 -20
s57.666 -31.666 78.999 -54.999s37.333 -50.833 48 -82.5s16 -66.167 16 -103.5c0 -36.667 -5.33301 -71.167 -16 -103.5s-26.667 -60.666 -48 -84.999s-47.666 -43.666 -78.999 -57.999s-67.333 -21.5 -108 -21.5zM280.999 88c22.667 0 43.167 4.16602 61.5 12.499
s34 19.833 47 34.5s23 32.334 30 53.001s10.5 43.667 10.5 69c0 50 -13 90.333 -39 121s-62.667 46 -110 46c-48 0 -84.833 -15.333 -110.5 -46s-38.5 -71 -38.5 -121s13.333 -90.667 40 -122s63 -47 109 -47zM110.999 601.999v99h338v-99h-338z" />
    <glyph glyph-name="Obreve" unicode="&#x14e;" horiz-adv-x="708" 
d="M362 -8c-55.333 0 -103.501 10.3311 -144.501 30.998s-75.167 48.334 -102.5 83.001s-47.833 74.5 -61.5 119.5s-20.5 91.833 -20.5 140.5c0 52 7.5 100.667 22.5 146s36.5 84.833 64.5 118.5s61.667 60.167 101 79.5s83.333 29 132 29c48 0 91.667 -9.33301 131 -28
s73.333 -44.667 102 -78s50.834 -72.666 66.501 -117.999s23.5 -95 23.5 -149c0 -52 -7.16699 -100.667 -21.5 -146s-35 -85 -62 -119s-60 -60.667 -99 -80s-82.833 -29 -131.5 -29zM355.999 85.998c34.667 0 65.8311 7.50293 93.498 22.5029s50.834 35.167 69.501 60.5
s33 55 43 89s15 70 15 108c0 39.333 -5.16699 76.166 -15.5 110.499s-25.166 64 -44.499 89s-42.833 44.667 -70.5 59s-59.167 21.5 -94.5 21.5c-34 0 -64.333 -7.33301 -91 -22s-49.334 -34.834 -68.001 -60.501s-33 -55.5 -43 -89.5s-15 -70 -15 -108
c0 -37.333 4.83301 -72.833 14.5 -106.5s23.834 -63.334 42.501 -89.001s41.667 -46.167 69 -61.5s59 -23 95 -23zM213.996 774.001v184h89v-100h101v100h89v-184h-279z" />
    <glyph glyph-name="obreve" unicode="&#x14f;" horiz-adv-x="561" 
d="M281 -8c-41.333 0 -77.667 7.16699 -109 21.5s-57.666 33.666 -78.999 57.999s-37.333 52.666 -48 84.999s-16 66.833 -16 103.5c0 37.333 5.5 71.833 16.5 103.5s27 59.167 48 82.5s47.167 41.666 78.5 54.999s67.666 20 108.999 20c40.667 0 76.667 -6.66699 108 -20
s57.666 -31.666 78.999 -54.999s37.333 -50.833 48 -82.5s16 -66.167 16 -103.5c0 -36.667 -5.33301 -71.167 -16 -103.5s-26.667 -60.666 -48 -84.999s-47.666 -43.666 -78.999 -57.999s-67.333 -21.5 -108 -21.5zM280.999 88c22.667 0 43.167 4.16602 61.5 12.499
s34 19.833 47 34.5s23 32.334 30 53.001s10.5 43.667 10.5 69c0 50 -13 90.333 -39 121s-62.667 46 -110 46c-48 0 -84.833 -15.333 -110.5 -46s-38.5 -71 -38.5 -121s13.333 -90.667 40 -122s63 -47 109 -47zM140.999 563.999v184h89v-100h101v100h89v-184h-279z" />
    <glyph glyph-name="Ohungarumlaut" unicode="&#x150;" horiz-adv-x="708" 
d="M362 -8c-55.333 0 -103.501 10.3311 -144.501 30.998s-75.167 48.334 -102.5 83.001s-47.833 74.5 -61.5 119.5s-20.5 91.833 -20.5 140.5c0 52 7.5 100.667 22.5 146s36.5 84.833 64.5 118.5s61.667 60.167 101 79.5s83.333 29 132 29c48 0 91.667 -9.33301 131 -28
s73.333 -44.667 102 -78s50.834 -72.666 66.501 -117.999s23.5 -95 23.5 -149c0 -52 -7.16699 -100.667 -21.5 -146s-35 -85 -62 -119s-60 -60.667 -99 -80s-82.833 -29 -131.5 -29zM355.999 85.998c34.667 0 65.8311 7.50293 93.498 22.5029s50.834 35.167 69.501 60.5
s33 55 43 89s15 70 15 108c0 39.333 -5.16699 76.166 -15.5 110.499s-25.166 64 -44.499 89s-42.833 44.667 -70.5 59s-59.167 21.5 -94.5 21.5c-34 0 -64.333 -7.33301 -91 -22s-49.334 -34.834 -68.001 -60.501s-33 -55.5 -43 -89.5s-15 -70 -15 -108
c0 -37.333 4.83301 -72.833 14.5 -106.5s23.834 -63.334 42.501 -89.001s41.667 -46.167 69 -61.5s59 -23 95 -23zM356.996 782.001l124 176h123l-138 -176h-109zM199.996 782.001l123 176h124l-139 -176h-108z" />
    <glyph glyph-name="ohungarumlaut" unicode="&#x151;" horiz-adv-x="561" 
d="M281 -8c-41.333 0 -77.667 7.16699 -109 21.5s-57.666 33.666 -78.999 57.999s-37.333 52.666 -48 84.999s-16 66.833 -16 103.5c0 37.333 5.5 71.833 16.5 103.5s27 59.167 48 82.5s47.167 41.666 78.5 54.999s67.666 20 108.999 20c40.667 0 76.667 -6.66699 108 -20
s57.666 -31.666 78.999 -54.999s37.333 -50.833 48 -82.5s16 -66.167 16 -103.5c0 -36.667 -5.33301 -71.167 -16 -103.5s-26.667 -60.666 -48 -84.999s-47.666 -43.666 -78.999 -57.999s-67.333 -21.5 -108 -21.5zM280.999 88c22.667 0 43.167 4.16602 61.5 12.499
s34 19.833 47 34.5s23 32.334 30 53.001s10.5 43.667 10.5 69c0 50 -13 90.333 -39 121s-62.667 46 -110 46c-48 0 -84.833 -15.333 -110.5 -46s-38.5 -71 -38.5 -121s13.333 -90.667 40 -122s63 -47 109 -47zM283.999 571.999l124 176h123l-138 -176h-109zM126.999 571.999
l123 176h124l-139 -176h-108z" />
    <glyph glyph-name="OE" unicode="&#x152;" horiz-adv-x="921" 
d="M580 0v85.999c-26 -27.333 -57.833 -49.833 -95.5 -67.5s-78.5 -26.5 -122.5 -26.5c-55.333 0 -103.5 10.333 -144.5 31s-75.167 48.334 -102.5 83.001s-47.833 74.5 -61.5 119.5s-20.5 91.833 -20.5 140.5c0 52 7.5 100.667 22.5 146s36.5 84.833 64.5 118.5
s61.667 60.167 101 79.5s83.333 29 132 29c46 0 88.333 -8.83301 127 -26.5s72 -42.5 100 -74.5v2l-91 91h402v-99h-212v-181h177v-99h-177v-253h212v-99h-311zM356 85.999c34.667 0 65.8311 7.50293 93.498 22.5029s50.834 35.167 69.501 60.5s33 55 43 89s15 70 15 108
c0 39.333 -5.16699 76.166 -15.5 110.499s-25.166 64 -44.499 89s-42.833 44.667 -70.5 59s-59.167 21.5 -94.5 21.5c-34 0 -64.333 -7.33301 -91 -22s-49.334 -34.834 -68.001 -60.501s-33 -55.5 -43 -89.5s-15 -70 -15 -108c0 -37.333 4.83301 -72.833 14.5 -106.5
s23.834 -63.334 42.501 -89.001s41.667 -46.167 69 -61.5s59 -23 95 -23z" />
    <glyph glyph-name="oe" unicode="&#x153;" horiz-adv-x="861" 
d="M433 0l-0.000976562 39.0029c-20 -14 -42.833 -25.333 -68.5 -34s-53.5 -13 -83.5 -13c-41.333 0 -77.666 7.16699 -108.999 21.5s-57.666 33.666 -78.999 57.999s-37.333 52.666 -48 84.999s-16 66.833 -16 103.5c0 37.333 5.5 71.833 16.5 103.5s27 59.167 48 82.5
s47.167 41.666 78.5 54.999s67.666 20 108.999 20c31.333 0 59.5 -4 84.5 -12s47.5 -19 67.5 -33v36h381v-305h-282v-110h282v-97h-381zM280.999 88.0029c22.667 0 43.167 4.16602 61.5 12.499s34 19.833 47 34.5s23 32.334 30 53.001s10.5 43.667 10.5 69
c0 50 -13 90.333 -39 121s-62.667 46 -110 46c-48 0 -84.833 -15.333 -110.5 -46s-38.5 -71 -38.5 -121s13.333 -90.667 40 -122s63 -47 109 -47zM715.999 415.002h-184v-110h184v110z" />
    <glyph glyph-name="Racute" unicode="&#x154;" horiz-adv-x="499" 
d="M356 0l-0.000976562 295.001c0 38 -24.333 57 -73 57h-110v-352h-98v640l-75 91h270c58.667 0 104.334 -16.833 137.001 -50.5s49 -78.834 49 -135.501c0 -32 -6 -59 -18 -81s-27.333 -39 -46 -51c18.667 -10.667 34 -26 46 -46s18 -43.667 18 -71v-296h-100z
M267.999 454.001c60 0 90 30.333 90 91c0 28 -7.83301 49.5 -23.5 64.5s-36.167 22.5 -61.5 22.5h-100v-178h95zM150.999 782.001l123 176h124l-139 -176h-108z" />
    <glyph glyph-name="racute" unicode="&#x155;" horiz-adv-x="339" 
d="M52 0v512.001h99v-39c17.333 13.333 35.166 23.166 53.499 29.499s39.166 9.5 62.499 9.5h57v-97h-21c-5.33301 0.666992 -10.166 1.16699 -14.499 1.5s-8.16602 0.5 -11.499 0.5c-52 0 -94 -20.667 -126 -62v-355h-99zM114 572.001l123 176h124l-139 -176h-108z" />
    <glyph glyph-name="Rcommaaccent" unicode="&#x156;" horiz-adv-x="499" 
d="M356 0l-0.000976562 295.001c0 38 -24.333 57 -73 57h-110v-352h-98v640l-75 91h270c58.667 0 104.334 -16.833 137.001 -50.5s49 -78.834 49 -135.501c0 -32 -6 -59 -18 -81s-27.333 -39 -46 -51c18.667 -10.667 34 -26 46 -46s18 -43.667 18 -71v-296h-100z
M267.999 454.001c60 0 90 30.333 90 91c0 28 -7.83301 49.5 -23.5 64.5s-36.167 22.5 -61.5 22.5h-100v-178h95zM241.999 -231.999v85h-56v122h155v-141z" />
    <glyph glyph-name="rcommaaccent" unicode="&#x157;" horiz-adv-x="339" 
d="M52 0v512.001h99v-39c17.333 13.333 35.166 23.166 53.499 29.499s39.166 9.5 62.499 9.5h57v-97h-21c-5.33301 0.666992 -10.166 1.16699 -14.499 1.5s-8.16602 0.5 -11.499 0.5c-52 0 -94 -20.667 -126 -62v-355h-99zM82 -231.999v85h-56v122h155v-141z" />
    <glyph glyph-name="Rcaron" unicode="&#x158;" horiz-adv-x="499" 
d="M356 0l-0.000976562 295.001c0 38 -24.333 57 -73 57h-110v-352h-98v640l-75 91h270c58.667 0 104.334 -16.833 137.001 -50.5s49 -78.834 49 -135.501c0 -32 -6 -59 -18 -81s-27.333 -39 -46 -51c18.667 -10.667 34 -26 46 -46s18 -43.667 18 -71v-296h-100z
M267.999 454.001c60 0 90 30.333 90 91c0 28 -7.83301 49.5 -23.5 64.5s-36.167 22.5 -61.5 22.5h-100v-178h95zM182.999 782.001l-139 176h123l61 -85l60 85h123l-139 -176h-89z" />
    <glyph glyph-name="rcaron" unicode="&#x159;" horiz-adv-x="339" 
d="M52 0v512.001h99v-39c17.333 13.333 35.166 23.166 53.499 29.499s39.166 9.5 62.499 9.5h57v-97h-21c-5.33301 0.666992 -10.166 1.16699 -14.499 1.5s-8.16602 0.5 -11.499 0.5c-52 0 -94 -20.667 -126 -62v-355h-99zM146 572.001l-139 176h123l61 -85l60 85h123
l-139 -176h-89z" />
    <glyph glyph-name="Sacute" unicode="&#x15a;" horiz-adv-x="463" 
d="M41 0v99h282v253h-282v379h382v-99h-282v-181h282v-451h-382zM156 782l123 176h124l-139 -176h-108z" />
    <glyph glyph-name="sacute" unicode="&#x15b;" horiz-adv-x="471" 
d="M44 0v97h282v110h-281v305h378v-97h-278v-110h280v-305h-381zM160 572l123 176h124l-139 -176h-108z" />
    <glyph glyph-name="Scedilla" unicode="&#x15e;" horiz-adv-x="463" 
d="M41 0v99h282v253h-282v379h382v-99h-282v-181h282v-451h-382zM210 -232v85h-56v122h155v-141z" />
    <glyph glyph-name="scedilla" unicode="&#x15f;" horiz-adv-x="471" 
d="M44 0v97h282v110h-281v305h378v-97h-278v-110h280v-305h-381zM214 -232v85h-56v122h155v-141z" />
    <glyph glyph-name="Scaron" unicode="&#x160;" horiz-adv-x="463" 
d="M41 0v99h282v253h-282v379h382v-99h-282v-181h282v-451h-382zM187 782l-139 176h123l61 -85l60 85h123l-139 -176h-89z" />
    <glyph glyph-name="scaron" unicode="&#x161;" horiz-adv-x="471" 
d="M44 0v97h282v110h-281v305h378v-97h-278v-110h280v-305h-381zM191 572l-139 176h123l61 -85l60 85h123l-139 -176h-89z" />
    <glyph glyph-name="Tcedilla" unicode="&#x162;" horiz-adv-x="413" 
d="M157 0v632h-141v99h381v-99h-141v-632h-99zM185 -232v85h-56v122h155v-141z" />
    <glyph glyph-name="tcedilla" unicode="&#x163;" horiz-adv-x="300" 
d="M245 0c-54.667 0 -98.332 12.001 -130.999 36.001s-49 63 -49 117v262h-48v97h48v130l99 97v-227h80v-97h-80v-258c0 -22.667 7.66699 -38.334 23 -47.001s34.666 -13 57.999 -13h40v-97h-40zM147.002 -231.999v85h-56v122h155v-141z" />
    <glyph glyph-name="Tcaron" unicode="&#x164;" horiz-adv-x="413" 
d="M157 0v632h-141v99h381v-99h-141v-632h-99zM164 782l-139 176h123l61 -85l60 85h123l-139 -176h-89z" />
    <glyph glyph-name="tcaron" unicode="&#x165;" horiz-adv-x="340" 
d="M245 0c-54.667 0 -98.332 12.001 -130.999 36.001s-49 63 -49 117v262h-48v97h48v130l99 97v-227h80v-97h-80v-258c0 -22.667 7.66699 -38.334 23 -47.001s34.666 -13 57.999 -13h40v-97h-40zM257.002 524.001v85h-56v122h155v-141z" />
    <glyph glyph-name="Tbar" unicode="&#x166;" horiz-adv-x="413" 
d="M157 0v476h-71v99h71v57h-141v99h381v-99h-141v-57h71v-99h-71v-476h-99z" />
    <glyph glyph-name="tbar" unicode="&#x167;" horiz-adv-x="300" 
d="M245 0c-27.333 0 -51.998 2.99902 -73.998 8.99902s-40.833 15.333 -56.5 28s-27.834 28.834 -36.501 48.501s-13 43.167 -13 70.5v88h-46v99h46v79h-48v99h48v132l99 99v-231h80v-99h-80v-79h78v-99h-78v-84c0 -23.333 7.66699 -39.333 23 -48s34.666 -13 57.999 -13h40
v-99h-40z" />
    <glyph glyph-name="Utilde" unicode="&#x168;" horiz-adv-x="476" 
d="M328 731h100.999v-530c0 -34 -4.83301 -64 -14.5 -90s-23 -47.833 -40 -65.5s-37.5 -31 -61.5 -40s-50 -13.5 -78 -13.5s-53.5 4.5 -76.5 13.5s-42.667 22.333 -59 40s-29.166 39.5 -38.499 65.5s-14 56 -14 90v530h99v-535c0 -35.333 8.5 -62.166 25.5 -80.499
s38.5 -27.5 64.5 -27.5c28 0 50.333 9.16699 67 27.5s25 45.166 25 80.499v535zM67.999 812v99h338v-99h-338z" />
    <glyph glyph-name="utilde" unicode="&#x169;" horiz-adv-x="505" 
d="M49 0v512h100v-415h183v415h99v-423l91 -89h-473zM64 602v99h338v-99h-338z" />
    <glyph glyph-name="Umacron" unicode="&#x16a;" horiz-adv-x="476" 
d="M328 731h100.999v-530c0 -34 -4.83301 -64 -14.5 -90s-23 -47.833 -40 -65.5s-37.5 -31 -61.5 -40s-50 -13.5 -78 -13.5s-53.5 4.5 -76.5 13.5s-42.667 22.333 -59 40s-29.166 39.5 -38.499 65.5s-14 56 -14 90v530h99v-535c0 -35.333 8.5 -62.166 25.5 -80.499
s38.5 -27.5 64.5 -27.5c28 0 50.333 9.16699 67 27.5s25 45.166 25 80.499v535zM67.999 812v99h338v-99h-338z" />
    <glyph glyph-name="umacron" unicode="&#x16b;" horiz-adv-x="505" 
d="M49 0v512h100v-415h183v415h99v-423l91 -89h-473zM64 602v99h338v-99h-338z" />
    <glyph glyph-name="Ubreve" unicode="&#x16c;" horiz-adv-x="476" 
d="M328 731h100.999v-530c0 -34 -4.83301 -64 -14.5 -90s-23 -47.833 -40 -65.5s-37.5 -31 -61.5 -40s-50 -13.5 -78 -13.5s-53.5 4.5 -76.5 13.5s-42.667 22.333 -59 40s-29.166 39.5 -38.499 65.5s-14 56 -14 90v530h99v-535c0 -35.333 8.5 -62.166 25.5 -80.499
s38.5 -27.5 64.5 -27.5c28 0 50.333 9.16699 67 27.5s25 45.166 25 80.499v535zM97.999 774v184h89v-100h101v100h89v-184h-279z" />
    <glyph glyph-name="ubreve" unicode="&#x16d;" horiz-adv-x="505" 
d="M49 0v512h100v-415h183v415h99v-423l91 -89h-473zM94 564v184h89v-100h101v100h89v-184h-279z" />
    <glyph glyph-name="Uring" unicode="&#x16e;" horiz-adv-x="476" 
d="M328 731h100.999v-530c0 -34 -4.83301 -64 -14.5 -90s-23 -47.833 -40 -65.5s-37.5 -31 -61.5 -40s-50 -13.5 -78 -13.5s-53.5 4.5 -76.5 13.5s-42.667 22.333 -59 40s-29.166 39.5 -38.499 65.5s-14 56 -14 90v530h99v-535c0 -35.333 8.5 -62.166 25.5 -80.499
s38.5 -27.5 64.5 -27.5c28 0 50.333 9.16699 67 27.5s25 45.166 25 80.499v535zM97.999 745v213h279v-213h-279zM312.999 894h-151v-88h151v88z" />
    <glyph glyph-name="uring" unicode="&#x16f;" horiz-adv-x="505" 
d="M49 0v512h100v-415h183v415h99v-423l91 -89h-473zM94 535v213h279v-213h-279zM309 684h-151v-88h151v88z" />
    <glyph glyph-name="Uhungarumlaut" unicode="&#x170;" horiz-adv-x="476" 
d="M328 731h100.999v-530c0 -34 -4.83301 -64 -14.5 -90s-23 -47.833 -40 -65.5s-37.5 -31 -61.5 -40s-50 -13.5 -78 -13.5s-53.5 4.5 -76.5 13.5s-42.667 22.333 -59 40s-29.166 39.5 -38.499 65.5s-14 56 -14 90v530h99v-535c0 -35.333 8.5 -62.166 25.5 -80.499
s38.5 -27.5 64.5 -27.5c28 0 50.333 9.16699 67 27.5s25 45.166 25 80.499v535zM240.999 782l124 176h123l-138 -176h-109zM83.999 782l123 176h124l-139 -176h-108z" />
    <glyph glyph-name="uhungarumlaut" unicode="&#x171;" horiz-adv-x="505" 
d="M49 0v512h100v-415h183v415h99v-423l91 -89h-473zM237 572l124 176h123l-138 -176h-109zM80 572l123 176h124l-139 -176h-108z" />
    <glyph glyph-name="Uogonek" unicode="&#x172;" horiz-adv-x="476" 
d="M283 -232c-54 0 -96.168 14.832 -126.501 44.499s-48.5 71.5 -54.5 125.5l84 59c-40.667 10 -74 32.333 -100 67s-39 80.334 -39 137.001v530h99v-535c0 -35.333 8.5 -62.166 25.5 -80.499s38.5 -27.5 64.5 -27.5c28 0 50.333 9.16699 67 27.5s25 45.166 25 80.499v535
h101v-530c0 -40.667 -7.16699 -75.5 -21.5 -104.5s-33.5 -52.5 -57.5 -70.5l-141 -104c4.66699 -17.333 12.834 -30.833 24.501 -40.5s28.167 -14.5 49.5 -14.5h41v-99h-41z" />
    <glyph glyph-name="uogonek" unicode="&#x173;" horiz-adv-x="505" 
d="M460 -228c-54 0 -96.167 14.6689 -126.5 44.002s-48.5 70.666 -54.5 123.999l89 60h-319v512h100v-415h183v415h99v-423l77 -76l-123 -90c5.33301 -16.667 13.833 -29.834 25.5 -39.501s28.167 -14.5 49.5 -14.5h41v-97h-41z" />
    <glyph glyph-name="Wcircumflex" unicode="&#x174;" horiz-adv-x="741" 
d="M75 0v731h99v-632h148v632h100v-632h145v632h99v-640l75 -91h-666zM431 782l-61 85l-60 -85h-123l139 176h89l139 -176h-123z" />
    <glyph glyph-name="wcircumflex" unicode="&#x175;" horiz-adv-x="711" 
d="M49 0v512h100v-415h148v415h100v-415h145v415h99v-423l91 -89h-683zM412 572l-61 85l-60 -85h-123l139 176h89l139 -176h-123z" />
    <glyph glyph-name="Ycircumflex" unicode="&#x176;" horiz-adv-x="486" 
d="M216 0v352h-141v288l-75 91h174v-280h183v280h99v-379h-141v-352h-99zM327 782l-61 85l-60 -85h-123l139 176h89l139 -176h-123z" />
    <glyph glyph-name="ycircumflex" unicode="&#x177;" 
d="M151 -146v97h126c19.333 0 33.333 3.5 42 10.5s13 19.5 13 37.5v19h-283v494h100v-398h183v398h99v-513c0 -49.333 -13.833 -85.833 -41.5 -109.5s-65.167 -35.5 -112.5 -35.5h-126zM301 572l-61 85l-60 -85h-123l139 176h89l139 -176h-123z" />
    <glyph glyph-name="Ydieresis" unicode="&#x178;" horiz-adv-x="486" 
d="M216 0v352h-141v288l-75 91h174v-280h183v280h99v-379h-141v-352h-99zM289 820v115h117v-115h-117zM127 820v115h116v-115h-116z" />
    <glyph glyph-name="Zacute" unicode="&#x179;" horiz-adv-x="431" 
d="M18 0v70l264 562h-254v99h375v-69l-256 -562h252v-100h-381zM146 782l123 176h124l-139 -176h-108z" />
    <glyph glyph-name="zacute" unicode="&#x17a;" horiz-adv-x="455" 
d="M38 0v76l241 339h-241v97h381v-65l-241 -350h241v-97h-381zM152 572l123 176h124l-139 -176h-108z" />
    <glyph glyph-name="Zdotaccent" unicode="&#x17b;" horiz-adv-x="431" 
d="M18 0v70l264 562h-254v99h375v-69l-256 -562h252v-100h-381zM167 820v115h116v-115h-116z" />
    <glyph glyph-name="zdotaccent" unicode="&#x17c;" horiz-adv-x="455" 
d="M38 0v76l241 339h-241v97h381v-65l-241 -350h241v-97h-381zM169 610v115h116v-115h-116z" />
    <glyph glyph-name="Zcaron" unicode="&#x17d;" horiz-adv-x="431" 
d="M18 0v70l264 562h-254v99h375v-69l-256 -562h252v-100h-381zM172 782l-139 176h123l61 -85l60 85h123l-139 -176h-89z" />
    <glyph glyph-name="zcaron" unicode="&#x17e;" horiz-adv-x="455" 
d="M38 0v76l241 339h-241v97h381v-65l-241 -350h241v-97h-381zM183 572l-139 176h123l61 -85l60 85h123l-139 -176h-89z" />
    <glyph glyph-name="Scommaaccent" unicode="&#x218;" horiz-adv-x="463" 
d="M41 0v99h282v253h-282v379h382v-99h-282v-181h282v-451h-382zM210 -232v85h-56v122h155v-141z" />
    <glyph glyph-name="scommaaccent" unicode="&#x219;" horiz-adv-x="471" 
d="M44 0v97h282v110h-281v305h378v-97h-278v-110h280v-305h-381zM214 -232v85h-56v122h155v-141z" />
    <glyph glyph-name="uni021A" unicode="&#x21a;" horiz-adv-x="413" 
d="M157 0v632h-141v99h381v-99h-141v-632h-99zM185 -232v85h-56v122h155v-141z" />
    <glyph glyph-name="uni021B" unicode="&#x21b;" horiz-adv-x="300" 
d="M245 0c-54.667 0 -98.332 12.001 -130.999 36.001s-49 63 -49 117v262h-48v97h48v130l99 97v-227h80v-97h-80v-258c0 -22.667 7.66699 -38.334 23 -47.001s34.666 -13 57.999 -13h40v-97h-40zM147.002 -231.999v85h-56v122h155v-141z" />
    <glyph glyph-name="circumflex" unicode="&#x2c6;" horiz-adv-x="439" 
d="M280 572l-61 85l-60 -85h-123l139 176h89l139 -176h-123z" />
    <glyph glyph-name="caron" unicode="&#x2c7;" horiz-adv-x="439" 
d="M175 572l-139 176h123l61 -85l60 85h123l-139 -176h-89z" />
    <glyph glyph-name="breve" unicode="&#x2d8;" horiz-adv-x="377" 
d="M49 564v184h89v-100h101v100h89v-184h-279z" />
    <glyph glyph-name="dotaccent" unicode="&#x2d9;" horiz-adv-x="214" 
d="M49 610v115h116v-115h-116z" />
    <glyph glyph-name="ring" unicode="&#x2da;" horiz-adv-x="377" 
d="M49 535v213h279v-213h-279zM264 684h-151v-88h151v88z" />
    <glyph glyph-name="ogonek" unicode="&#x2db;" horiz-adv-x="319" 
d="M230 -232c-108.667 0 -169.334 54 -182.001 162l133 99h119l-145 -116c4.66699 -17.333 12.834 -29.333 24.501 -36s28.5 -10 50.5 -10h40v-99h-40z" />
    <glyph glyph-name="tilde" unicode="&#x2dc;" horiz-adv-x="437" 
d="M49 602v99h338v-99h-338z" />
    <glyph glyph-name="hungarumlaut" unicode="&#x2dd;" horiz-adv-x="458" 
d="M194 572l124 176h123l-138 -176h-109zM37 572l123 176h124l-139 -176h-108z" />
    <glyph glyph-name="Wgrave" unicode="&#x1e80;" horiz-adv-x="741" 
d="M75 0v731h99v-632h148v632h100v-632h145v632h99v-640l75 -91h-666zM337 782l-139 176h124l123 -176h-108z" />
    <glyph glyph-name="wgrave" unicode="&#x1e81;" horiz-adv-x="711" 
d="M49 0v512h100v-415h148v415h100v-415h145v415h99v-423l91 -89h-683zM317 572l-139 176h124l123 -176h-108z" />
    <glyph glyph-name="Wacute" unicode="&#x1e82;" horiz-adv-x="741" 
d="M75 0v731h99v-632h148v632h100v-632h145v632h99v-640l75 -91h-666zM296 782l123 176h124l-139 -176h-108z" />
    <glyph glyph-name="wacute" unicode="&#x1e83;" horiz-adv-x="711" 
d="M49 0v512h100v-415h148v415h100v-415h145v415h99v-423l91 -89h-683zM275 572l123 176h124l-139 -176h-108z" />
    <glyph glyph-name="Wdieresis" unicode="&#x1e84;" horiz-adv-x="741" 
d="M75 0v731h99v-632h148v632h100v-632h145v632h99v-640l75 -91h-666zM393 820v115h117v-115h-117zM231 820v115h116v-115h-116z" />
    <glyph glyph-name="wdieresis" unicode="&#x1e85;" horiz-adv-x="711" 
d="M49 0v512h100v-415h148v415h100v-415h145v415h99v-423l91 -89h-683zM373 610v115h117v-115h-117zM211 610v115h116v-115h-116z" />
    <glyph glyph-name="Ygrave" unicode="&#x1ef2;" horiz-adv-x="486" 
d="M216 0v352h-141v288l-75 91h174v-280h183v280h99v-379h-141v-352h-99zM235 782l-139 176h124l123 -176h-108z" />
    <glyph glyph-name="ygrave" unicode="&#x1ef3;" 
d="M151 -146v97h126c19.333 0 33.333 3.5 42 10.5s13 19.5 13 37.5v19h-283v494h100v-398h183v398h99v-513c0 -49.333 -13.833 -85.833 -41.5 -109.5s-65.167 -35.5 -112.5 -35.5h-126zM207 572l-139 176h124l123 -176h-108z" />
    <glyph glyph-name="endash" unicode="&#x2013;" horiz-adv-x="478" 
d="M31 282v98h415v-98h-415z" />
    <glyph glyph-name="emdash" unicode="&#x2014;" horiz-adv-x="648" 
d="M31 282v99h586v-99h-586z" />
    <glyph glyph-name="quoteleft" unicode="&#x2018;" horiz-adv-x="267" 
d="M49 523v230h169v-170h-70v-160z" />
    <glyph glyph-name="quoteright" unicode="&#x2019;" horiz-adv-x="269" 
d="M121 583h-72v170h171v-230l-99 -100v160z" />
    <glyph glyph-name="quotesinglbase" unicode="&#x201a;" horiz-adv-x="269" 
d="M121 0h-72v169h171v-231l-99 -99v161z" />
    <glyph glyph-name="quotedblleft" unicode="&#x201c;" horiz-adv-x="496" 
d="M49 523v230h169v-170h-70v-160zM278 523v230h169v-170h-70v-160z" />
    <glyph glyph-name="quotedblright" unicode="&#x201d;" horiz-adv-x="500" 
d="M121 583h-72v170h171v-230l-99 -100v160zM352 583h-72v170h171v-230l-99 -100v160z" />
    <glyph glyph-name="quotedblbase" unicode="&#x201e;" horiz-adv-x="500" 
d="M121 0h-72v169h171v-231l-99 -99v161zM352 0h-72v169h171v-231l-99 -99v161z" />
    <glyph glyph-name="dagger" unicode="&#x2020;" horiz-adv-x="450" 
d="M175 0v493h-141v98h141v140h100v-140h140v-98h-140v-493h-100z" />
    <glyph glyph-name="daggerdbl" unicode="&#x2021;" horiz-adv-x="450" 
d="M175 0v140h-141v99h141v254h-141v98h141v140h100v-140h140v-98h-140v-254h140v-99h-140v-140h-100z" />
    <glyph glyph-name="bullet" unicode="&#x2022;" horiz-adv-x="465" 
d="M49 170v365h366v-365h-366z" />
    <glyph glyph-name="ellipsis" unicode="&#x2026;" horiz-adv-x="923" 
d="M59 0v169h171v-169h-171zM376 0v169h171v-169h-171zM693 0v169h171v-169h-171z" />
    <glyph glyph-name="perthousand" unicode="&#x2030;" horiz-adv-x="934" 
d="M49 313v418h230v-418h-230zM201 653h-73v-262h73v262zM60 0l475 731h103l-475 -731h-103zM412 0v418h230v-418h-230zM564 340h-73v-262h73v262zM654 0v418h230v-418h-230zM806 340h-73v-262h73v262z" />
    <glyph glyph-name="guilsinglleft" unicode="&#x2039;" horiz-adv-x="241" 
d="M7 310l157 155l70 -70l-86 -85l86 -85l-71 -71z" />
    <glyph glyph-name="guilsinglright" unicode="&#x203a;" horiz-adv-x="241" 
d="M7 225l85 85l-85 85l71 71l155 -155l-155 -157z" />
    <glyph glyph-name="fraction" unicode="&#x2044;" horiz-adv-x="246" 
d="M-166 0l475 731h103l-475 -731h-103z" />
    <glyph glyph-name="zerosuperior" unicode="&#x2070;" horiz-adv-x="310" 
d="M38 313v418h230v-418h-230zM190 653h-73v-262h73v262z" />
    <glyph glyph-name="foursuperior" unicode="&#x2074;" horiz-adv-x="303" 
d="M183 313v188h-151v230h78v-152h73v114h77v-380h-77z" />
    <glyph glyph-name="fivesuperior" unicode="&#x2075;" horiz-adv-x="310" 
d="M38 313v78h152v110h-152v230h230v-78h-151v-74h151v-266h-230z" />
    <glyph glyph-name="sixsuperior" unicode="&#x2076;" horiz-adv-x="310" 
d="M38 313v418h230v-78h-151v-74h151v-266h-230zM190 501h-73v-110h73v110z" />
    <glyph glyph-name="sevensuperior" unicode="&#x2077;" horiz-adv-x="295" 
d="M103 313v174l75 95v71h-151v78h230v-175l-76 -93v-150h-78z" />
    <glyph glyph-name="eightsuperior" unicode="&#x2078;" horiz-adv-x="310" 
d="M38 313v418h230v-418h-230zM190 653h-73v-74h73v74zM190 501h-73v-110h73v110z" />
    <glyph glyph-name="ninesuperior" unicode="&#x2079;" horiz-adv-x="310" 
d="M38 313v78h152v110h-152v230h230v-418h-230zM190 653h-73v-74h73v74z" />
    <glyph glyph-name="zeroinferior" unicode="&#x2080;" horiz-adv-x="310" 
d="M38 0v418h230v-418h-230zM190 340h-73v-262h73v262z" />
    <glyph glyph-name="oneinferior" unicode="&#x2081;" horiz-adv-x="170" 
d="M53 0v352l-68 66h145v-418h-77z" />
    <glyph glyph-name="twoinferior" unicode="&#x2082;" horiz-adv-x="310" 
d="M38 0v266h152v74h-152v78h230v-230h-151v-110h151v-78h-230z" />
    <glyph glyph-name="threeinferior" unicode="&#x2083;" horiz-adv-x="302" 
d="M30 0v78h152v110h-152v78h152v74h-152v78h229v-418h-229z" />
    <glyph glyph-name="fourinferior" unicode="&#x2084;" horiz-adv-x="303" 
d="M183 0v188h-151v230h78v-152h73v114h77v-380h-77z" />
    <glyph glyph-name="fiveinferior" unicode="&#x2085;" horiz-adv-x="310" 
d="M38 0v78h152v110h-152v230h230v-78h-151v-74h151v-266h-230z" />
    <glyph glyph-name="sixinferior" unicode="&#x2086;" horiz-adv-x="310" 
d="M38 0v418h230v-78h-151v-74h151v-266h-230zM190 188h-73v-110h73v110z" />
    <glyph glyph-name="seveninferior" unicode="&#x2087;" horiz-adv-x="295" 
d="M103 0v174l75 95v71h-151v78h230v-175l-76 -93v-150h-78z" />
    <glyph glyph-name="eightinferior" unicode="&#x2088;" horiz-adv-x="310" 
d="M38 0v418h230v-418h-230zM190 340h-73v-74h73v74zM190 188h-73v-110h73v110z" />
    <glyph glyph-name="nineinferior" unicode="&#x2089;" horiz-adv-x="310" 
d="M38 0v78h152v110h-152v230h230v-418h-230zM190 340h-73v-74h73v74z" />
    <glyph glyph-name="Euro" unicode="&#x20ac;" horiz-adv-x="491" 
d="M81 0v252h-70v99h70v54h-70v98h70v228h380v-99h-281v-129h141v-98h-141v-54h141v-99h-141v-152h281v-100h-380z" />
    <glyph glyph-name="trademark" unicode="&#x2122;" horiz-adv-x="833" 
d="M141 318v335h-100v78h279v-78h-100v-335h-79zM682 318v335h-94v-335h-78v335h-100v-335h-77v413h499l-71 -71v-342h-79z" />
    <glyph glyph-name="onethird" unicode="&#x2153;" horiz-adv-x="720" 
d="M124 313v352l-68 66h145v-418h-77zM37 0l475 731h103l-475 -731h-103zM440 0v78h152v110h-152v78h152v74h-152v78h229v-418h-229z" />
    <glyph glyph-name="twothirds" unicode="&#x2154;" horiz-adv-x="800" 
d="M49 313v266h152v74h-152v78h230v-230h-151v-110h151v-78h-230zM117 0l475 731h103l-475 -731h-103zM520 0v78h152v110h-152v78h152v74h-152v78h229v-418h-229z" />
    <glyph glyph-name="oneeighth" unicode="&#x215b;" horiz-adv-x="728" 
d="M124 313v352l-68 66h145v-418h-77zM37 0l475 731h103l-475 -731h-103zM448 0v418h230v-418h-230zM600 340h-73v-74h73v74zM600 188h-73v-110h73v110z" />
    <glyph glyph-name="threeeighths" unicode="&#x215c;" horiz-adv-x="808" 
d="M49 313v78h152v110h-152v78h152v74h-152v78h229v-418h-229zM117 0l475 731h103l-475 -731h-103zM528 0v418h230v-418h-230zM680 340h-73v-74h73v74zM680 188h-73v-110h73v110z" />
    <glyph glyph-name="fiveeighths" unicode="&#x215d;" horiz-adv-x="808" 
d="M49 313v78h152v110h-152v230h230v-78h-151v-74h151v-266h-230zM117 0l475 731h103l-475 -731h-103zM528 0v418h230v-418h-230zM680 340h-73v-74h73v74zM680 188h-73v-110h73v110z" />
    <glyph glyph-name="seveneighths" unicode="&#x215e;" horiz-adv-x="748" 
d="M125 313v174l75 95v71h-151v78h230v-175l-76 -93v-150h-78zM56 0l475 731h103l-475 -731h-103zM468 0v418h230v-418h-230zM620 340h-73v-74h73v74zM620 188h-73v-110h73v110z" />
    <glyph glyph-name="minus" unicode="&#x2212;" 
d="M49 282v99h382v-99h-382z" />
    <glyph glyph-name="approxequal" unicode="&#x2248;" horiz-adv-x="462" 
d="M182 139v140h-42v-140h-100v239h242v-140h40v140h100v-239h-240zM182 426v140h-42v-140h-100v239h242v-140h40v140h100v-239h-240z" />
    <glyph glyph-name="notequal" unicode="&#x2260;" horiz-adv-x="409" 
d="M194 211l-71.999 -175.001h-100l73 175h-46v99h87c3.33301 8.66699 5.66602 15.334 6.99902 20.001s4.33301 12 9 22h-103v99h144l72 177h100l-72 -177h67v-99h-108l-17 -42h125v-99h-166z" />
    <glyph glyph-name="lessequal" unicode="&#x2264;" horiz-adv-x="377" 
d="M42 310l221 220l70 -72l-148 -148l148 -150l-70 -70zM0 1v99h382v-99h-382z" />
    <glyph glyph-name="greaterequal" unicode="&#x2265;" horiz-adv-x="377" 
d="M42 160l150 150l-150 148l71 72l220 -220l-220 -220zM0 1v99h382v-99h-382z" />
    <glyph glyph-name=".null" horiz-adv-x="0" 
 />
    <glyph glyph-name="nonmarkingreturn" horiz-adv-x="234" 
 />
    <glyph glyph-name=".ttfautohint" horiz-adv-x="234" 
d="M0 0z" />
    </font>
</defs>
</svg>
